999
dxfrw 0.5.11
0
SECTION
2
HEADER
9
$ACADVER
1
AC1021
9
$HANDSEED
5
20000
9
$DWGCODEPAGE
3
ANSI_1252
9
$INSBASE
10
0
20
0
30
0
9
$EXTMIN
10
482346.881628
20
229579.05971
30
0
9
$EXTMAX
10
484546.107823
20
231095.424396
30
0
9
$LIMMIN
10
0
20
0
9
$LIMMAX
10
12
20
9
9
$ORTHOMODE
70
0
9
$LTSCALE
40
1
9
$TEXTSTYLE
7
Standard
9
$CLAYER
8
Road-Trackway
9
$DIMASZ
40
0.18
9
$DIMLFAC
40
1
9
$DIMSCALE
40
1
9
$DIMEXO
40
0.0625
9
$DIMEXE
40
0.18
9
$DIMTXT
40
0.18
9
$DIMTSZ
40
0
9
$DIMAUNIT
70
0
9
$DIMADEC
70
0
9
$DIMLUNIT
70
2
9
$DIMSTYLE
2
Standard
9
$DIMGAP
40
0.09
9
$DIMTIH
70
1
9
$LUNITS
70
2
9
$LUPREC
70
4
9
$AUNITS
70
0
9
$AUPREC
70
0
9
$SPLINESEGS
70
8
9
$GRIDMODE
70
1
9
$SNAPSTYLE
70
0
9
$GRIDUNIT
10
0
20
0
9
$PINSBASE
10
-160.848211807
20
-76.7621069454
30
0
9
$PLIMMIN
10
0
20
0
9
$PLIMMAX
10
0.297
20
0.21
9
$INSUNITS
70
6
9
$PSVPSCALE
40
0.000333333333333
0
ENDSEC
0
SECTION
2
CLASSES
0
ENDSEC
0
SECTION
2
TABLES
0
TABLE
2
VPORT
5
8
330
0
100
AcDbSymbolTable
70
1
0
VPORT
5
31
330
2
100
AcDbSymbolTableRecord
100
AcDbViewportTableRecord
2
*ACTIVE
70
0
10
0
20
0
11
1
21
1
12
241753.702634
22
115463.11284
13
0
23
0
14
10
24
10
15
10
25
10
16
0
26
0
36
1
17
0
27
0
37
0
40
635.044680823
41
1.52250274424
42
50
43
0
44
0
50
0
51
0
71
0
72
100
73
1
74
3
75
0
76
1
77
0
78
0
281
0
65
1
110
0
120
0
130
0
111
1
121
0
131
0
112
0
122
1
132
0
79
0
146
0
348
10020
60
7
61
5
292
1
282
1
141
0
142
0
63
250
421
3358443
0
ENDTAB
0
TABLE
2
LTYPE
5
5
330
0
100
AcDbSymbolTable
70
4
0
LTYPE
5
14
330
5
100
AcDbSymbolTableRecord
100
AcDbLinetypeTableRecord
2
ByBlock
70
0
3

72
65
73
0
40
0
0
LTYPE
5
15
330
5
100
AcDbSymbolTableRecord
100
AcDbLinetypeTableRecord
2
ByLayer
70
0
3

72
65
73
0
40
0
0
LTYPE
5
16
330
5
100
AcDbSymbolTableRecord
100
AcDbLinetypeTableRecord
2
Continuous
70
0
3
Solid line
72
65
73
0
40
0
0
LTYPE
5
32
330
5
100
AcDbSymbolTableRecord
100
AcDbLinetypeTableRecord
2
DOT
70
0
3
Dot . . . . . . . . . . . . . . . . . . . . . .
72
65
73
2
40
6.35
49
0
74
0
49
-6.35
74
0
0
LTYPE
5
33
330
5
100
AcDbSymbolTableRecord
100
AcDbLinetypeTableRecord
2
DOT2
70
0
3
Dot (.5x) .....................................
72
65
73
2
40
3.175
49
0
74
0
49
-3.175
74
0
0
LTYPE
5
34
330
5
100
AcDbSymbolTableRecord
100
AcDbLinetypeTableRecord
2
DOTX2
70
0
3
Dot (2x) .  .  .  .  .  .  .  .  .  .  .  .  .
72
65
73
2
40
12.7
49
0
74
0
49
-12.7
74
0
0
LTYPE
5
35
330
5
100
AcDbSymbolTableRecord
100
AcDbLinetypeTableRecord
2
DASHED
70
0
3
Dot . . . . . . . . . . . . . . . . . . . . . .
72
65
73
2
40
19.05
49
12.7
74
0
49
-6.35
74
0
0
LTYPE
5
36
330
5
100
AcDbSymbolTableRecord
100
AcDbLinetypeTableRecord
2
DASHED2
70
0
3
Dashed (.5x) _ _ _ _ _ _ _ _ _ _ _ _ _ _ _ _ _
72
65
73
2
40
9.525
49
6.35
74
0
49
-3.175
74
0
0
LTYPE
5
37
330
5
100
AcDbSymbolTableRecord
100
AcDbLinetypeTableRecord
2
DASHEDX2
70
0
3
Dashed (2x) ____  ____  ____  ____  ____  ___
72
65
73
2
40
38.1
49
25.4
74
0
49
-12.7
74
0
0
LTYPE
5
38
330
5
100
AcDbSymbolTableRecord
100
AcDbLinetypeTableRecord
2
DASHDOT
70
0
3
Dash dot __ . __ . __ . __ . __ . __ . __ . __
72
65
73
4
40
25.4
49
12.7
74
0
49
-6.35
74
0
49
0
74
0
49
-6.35
74
0
0
LTYPE
5
39
330
5
100
AcDbSymbolTableRecord
100
AcDbLinetypeTableRecord
2
DASHDOT2
70
0
3
Dash dot (.5x) _._._._._._._._._._._._._._._.
72
65
73
4
40
12.7
49
6.35
74
0
49
-3.175
74
0
49
0
74
0
49
-3.175
74
0
0
LTYPE
5
3A
330
5
100
AcDbSymbolTableRecord
100
AcDbLinetypeTableRecord
2
DASHDOTX2
70
0
3
Dash dot (2x) ____  .  ____  .  ____  .  ___
72
65
73
4
40
50.8
49
25.4
74
0
49
-12.7
74
0
49
0
74
0
49
-12.7
74
0
0
LTYPE
5
3B
330
5
100
AcDbSymbolTableRecord
100
AcDbLinetypeTableRecord
2
DIVIDE
70
0
3
Divide ____ . . ____ . . ____ . . ____ . . ____
72
65
73
6
40
31.75
49
12.7
74
0
49
-6.35
74
0
49
0
74
0
49
-6.35
74
0
49
0
74
0
49
-6.35
74
0
0
LTYPE
5
3C
330
5
100
AcDbSymbolTableRecord
100
AcDbLinetypeTableRecord
2
DIVIDE2
70
0
3
Divide (.5x) __..__..__..__..__..__..__..__.._
72
65
73
6
40
15.875
49
6.35
74
0
49
-3.175
74
0
49
0
74
0
49
-3.175
74
0
49
0
74
0
49
-3.175
74
0
0
LTYPE
5
3D
330
5
100
AcDbSymbolTableRecord
100
AcDbLinetypeTableRecord
2
DIVIDEX2
70
0
3
Divide (2x) ________  .  .  ________  .  .  _
72
65
73
6
40
63.5
49
25.4
74
0
49
-12.7
74
0
49
0
74
0
49
-12.7
74
0
49
0
74
0
49
-12.7
74
0
0
LTYPE
5
3E
330
5
100
AcDbSymbolTableRecord
100
AcDbLinetypeTableRecord
2
BORDER
70
0
3
Border __ __ . __ __ . __ __ . __ __ . __ __ .
72
65
73
6
40
44.45
49
12.7
74
0
49
-6.35
74
0
49
12.7
74
0
49
-6.35
74
0
49
0
74
0
49
-6.35
74
0
0
LTYPE
5
3F
330
5
100
AcDbSymbolTableRecord
100
AcDbLinetypeTableRecord
2
BORDER2
70
0
3
Border (.5x) __.__.__.__.__.__.__.__.__.__.__.
72
65
73
6
40
22.225
49
6.35
74
0
49
-3.175
74
0
49
6.35
74
0
49
-3.175
74
0
49
0
74
0
49
-3.175
74
0
0
LTYPE
5
40
330
5
100
AcDbSymbolTableRecord
100
AcDbLinetypeTableRecord
2
BORDERX2
70
0
3
Border (2x) ____  ____  .  ____  ____  .  ___
72
65
73
6
40
88.9
49
25.4
74
0
49
-12.7
74
0
49
25.4
74
0
49
-12.7
74
0
49
0
74
0
49
-12.7
74
0
0
LTYPE
5
41
330
5
100
AcDbSymbolTableRecord
100
AcDbLinetypeTableRecord
2
CENTER
70
0
3
Center ____ _ ____ _ ____ _ ____ _ ____ _ ____
72
65
73
4
40
50.8
49
31.75
74
0
49
-6.35
74
0
49
6.35
74
0
49
-6.35
74
0
0
LTYPE
5
42
330
5
100
AcDbSymbolTableRecord
100
AcDbLinetypeTableRecord
2
CENTER2
70
0
3
Center (.5x) ___ _ ___ _ ___ _ ___ _ ___ _ ___
72
65
73
4
40
28.575
49
19.05
74
0
49
-3.175
74
0
49
3.175
74
0
49
-3.175
74
0
0
LTYPE
5
43
330
5
100
AcDbSymbolTableRecord
100
AcDbLinetypeTableRecord
2
CENTERX2
70
0
3
Center (2x) ________  __  ________  __  _____
72
65
73
4
40
101.6
49
63.5
74
0
49
-12.7
74
0
49
12.7
74
0
49
-12.7
74
0
0
ENDTAB
0
TABLE
2
LAYER
5
2
330
0
100
AcDbSymbolTable
70
1
0
LAYER
5
10
330
2
100
AcDbSymbolTableRecord
100
AcDbLayerTableRecord
2
0
70
4
62
7
6
CONTINUOUS
370
-3
390
F
0
LAYER
5
44
330
2
100
AcDbSymbolTableRecord
100
AcDbLayerTableRecord
2
Datenklos
70
0
62
4
6
DASHED2
370
0
390
F
0
LAYER
5
45
330
2
100
AcDbSymbolTableRecord
100
AcDbLayerTableRecord
2
Event Fields
70
4
62
7
6
CONTINUOUS
370
0
390
F
0
LAYER
5
46
330
2
100
AcDbSymbolTableRecord
100
AcDbLayerTableRecord
2
Fields
70
4
62
7
6
CONTINUOUS
370
0
390
F
0
LAYER
5
47
330
2
100
AcDbSymbolTableRecord
100
AcDbLayerTableRecord
2
Footpaths
70
4
62
7
6
CONTINUOUS
370
0
390
F
0
LAYER
5
48
330
2
100
AcDbSymbolTableRecord
100
AcDbLayerTableRecord
2
Lighting-ExtFestoon
70
4
62
56
420
8421376
6
DASHED2
370
0
390
F
0
LAYER
5
49
330
2
100
AcDbSymbolTableRecord
100
AcDbLayerTableRecord
2
Paths
70
5
62
7
6
CONTINUOUS
370
0
390
F
0
LAYER
5
4A
330
2
100
AcDbSymbolTableRecord
100
AcDbLayerTableRecord
2
Perimeter
70
4
62
1
6
CONTINUOUS
370
35
390
F
0
LAYER
5
4B
330
2
100
AcDbSymbolTableRecord
100
AcDbLayerTableRecord
2
Power - Generator
70
4
62
6
6
CONTINUOUS
370
0
390
F
0
LAYER
5
4C
330
2
100
AcDbSymbolTableRecord
100
AcDbLayerTableRecord
2
Rivers
70
4
62
5
6
CONTINUOUS
370
0
390
F
0
LAYER
5
4D
330
2
100
AcDbSymbolTableRecord
100
AcDbLayerTableRecord
2
Road-Trackway
70
0
62
2
6
CONTINUOUS
370
200
390
F
0
LAYER
5
4E
330
2
100
AcDbSymbolTableRecord
100
AcDbLayerTableRecord
2
Roads
70
4
62
7
6
CONTINUOUS
370
0
390
F
0
LAYER
5
4F
330
2
100
AcDbSymbolTableRecord
100
AcDbLayerTableRecord
2
Tents
70
4
62
7
6
CONTINUOUS
370
0
390
F
0
LAYER
5
50
330
2
100
AcDbSymbolTableRecord
100
AcDbLayerTableRecord
2
Text
70
4
62
7
6
CONTINUOUS
370
0
390
F
0
LAYER
5
51
330
2
100
AcDbSymbolTableRecord
100
AcDbLayerTableRecord
2
Trees
70
4
62
3
6
CONTINUOUS
370
0
390
F
0
LAYER
5
52
330
2
100
AcDbSymbolTableRecord
100
AcDbLayerTableRecord
2
Water
70
4
62
5
6
CONTINUOUS
370
0
390
F
0
ENDTAB
0
TABLE
2
STYLE
5
3
330
0
100
AcDbSymbolTable
70
3
0
STYLE
5
53
330
2
100
AcDbSymbolTableRecord
100
AcDbTextStyleTableRecord
2
standard
70
0
40
0
41
1
50
0
71
0
42
1
3
standard
4

0
ENDTAB
0
TABLE
2
VIEW
5
6
330
0
100
AcDbSymbolTable
70
0
0
ENDTAB
0
TABLE
2
UCS
5
7
330
0
100
AcDbSymbolTable
70
0
0
ENDTAB
0
TABLE
2
APPID
5
9
330
0
100
AcDbSymbolTable
70
1
0
APPID
5
12
330
9
100
AcDbSymbolTableRecord
100
AcDbRegAppTableRecord
2
ACAD
70
0
0
ENDTAB
0
TABLE
2
DIMSTYLE
5
A
330
0
100
AcDbSymbolTable
70
1
100
AcDbDimStyleTable
71
1
0
DIMSTYLE
105
54
330
A
100
AcDbSymbolTableRecord
100
AcDbDimStyleTableRecord
2
Standard
70
0
40
1
41
0.18
42
0.0625
43
0.38
44
0.18
45
0
46
0
47
0
48
0
140
0.18
141
0.09
142
0
143
25.4
144
1
145
0
146
1
147
0.09
148
0
71
0
72
0
73
0
74
1
75
0
76
0
77
0
78
0
79
0
170
0
171
2
172
0
173
0
174
0
175
0
176
0
177
0
178
0
179
0
271
4
272
4
273
2
274
2
275
0
276
0
277
2
278
46
279
0
280
0
281
0
282
0
283
1
284
0
285
0
286
0
288
0
289
3
340
Standard
341

371
-2
372
-2
0
ENDTAB
0
TABLE
2
BLOCK_RECORD
5
1
330
0
100
AcDbSymbolTable
70
2
0
BLOCK_RECORD
5
1F
330
1
100
AcDbSymbolTableRecord
100
AcDbBlockTableRecord
2
*Model_Space
70
0
280
1
281
0
0
BLOCK_RECORD
5
1E
330
1
100
AcDbSymbolTableRecord
100
AcDbBlockTableRecord
2
*Paper_Space
70
0
280
1
281
0
0
BLOCK_RECORD
5
55
330
1
100
AcDbSymbolTableRecord
100
AcDbBlockTableRecord
2
Tent 20x30
70
0
280
1
281
0
0
BLOCK_RECORD
5
58
330
1
100
AcDbSymbolTableRecord
100
AcDbBlockTableRecord
2
Tent 10x15
70
0
280
1
281
0
0
BLOCK_RECORD
5
5B
330
1
100
AcDbSymbolTableRecord
100
AcDbBlockTableRecord
2
Tent 5x5
70
0
280
1
281
0
0
BLOCK_RECORD
5
5E
330
1
100
AcDbSymbolTableRecord
100
AcDbBlockTableRecord
2
Generator
70
0
280
1
281
0
0
BLOCK_RECORD
5
61
330
1
100
AcDbSymbolTableRecord
100
AcDbBlockTableRecord
2
Datenklos5
70
0
280
1
281
0
0
ENDTAB
0
ENDSEC
0
SECTION
2
BLOCKS
0
BLOCK
5
20
330
1F
100
AcDbEntity
8
0
100
AcDbBlockBegin
2
*Model_Space
70
0
10
0
20
0
30
0
3
*Model_Space
1

0
ENDBLK
5
21
330
1F
100
AcDbEntity
8
0
100
AcDbBlockEnd
0
BLOCK
5
1C
330
1B
100
AcDbEntity
8
0
100
AcDbBlockBegin
2
*Paper_Space
70
0
10
0
20
0
30
0
3
*Paper_Space
1

0
ENDBLK
5
1D
330
1F
100
AcDbEntity
8
0
100
AcDbBlockEnd
0
BLOCK
5
56
330
55
100
AcDbEntity
8
0
100
AcDbBlockBegin
2
Tent 20x30
70
0
10
0
20
0
3
Tent 20x30
1

0
LINE
5
64
100
AcDbEntity
8
Tents
6
ByLayer
62
256
370
-1
100
AcDbLine
10
0
20
0
11
20
21
0
0
LINE
5
65
100
AcDbEntity
8
Tents
6
ByLayer
62
256
370
-1
100
AcDbLine
10
20
20
0
11
20
21
30
0
LINE
5
66
100
AcDbEntity
8
Tents
6
ByLayer
62
256
370
-1
100
AcDbLine
10
20
20
30
11
0
21
30
0
LINE
5
67
100
AcDbEntity
8
Tents
6
ByLayer
62
256
370
-1
100
AcDbLine
10
0
20
30
11
0
21
0
0
ENDBLK
5
57
330
55
100
AcDbEntity
8
0
100
AcDbBlockEnd
0
BLOCK
5
59
330
58
100
AcDbEntity
8
0
100
AcDbBlockBegin
2
Tent 10x15
70
0
10
0
20
0
3
Tent 10x15
1

0
LINE
5
68
100
AcDbEntity
8
Tents
6
ByLayer
62
256
370
-1
100
AcDbLine
10
0
20
10
11
0
21
0
0
LINE
5
69
100
AcDbEntity
8
Tents
6
ByLayer
62
256
370
-1
100
AcDbLine
10
0
20
0
11
15
21
0
0
LINE
5
6A
100
AcDbEntity
8
Tents
6
ByLayer
62
256
370
-1
100
AcDbLine
10
15
20
0
11
15
21
10
0
LINE
5
6B
100
AcDbEntity
8
Tents
6
ByLayer
62
256
370
-1
100
AcDbLine
10
15
20
10
11
0
21
10
0
ENDBLK
5
5A
330
58
100
AcDbEntity
8
0
100
AcDbBlockEnd
0
BLOCK
5
5C
330
5B
100
AcDbEntity
8
0
100
AcDbBlockBegin
2
Tent 5x5
70
0
10
0
20
0
3
Tent 5x5
1

0
LINE
5
6C
100
AcDbEntity
8
Tents
6
ByLayer
62
256
370
-1
100
AcDbLine
10
5
20
5
11
0
21
5
0
LINE
5
6D
100
AcDbEntity
8
Tents
6
ByLayer
62
256
370
-1
100
AcDbLine
10
0
20
5
11
0
21
0
0
LINE
5
6E
100
AcDbEntity
8
Tents
6
ByLayer
62
256
370
-1
100
AcDbLine
10
0
20
0
11
5
21
0
0
LINE
5
6F
100
AcDbEntity
8
Tents
6
ByLayer
62
256
370
-1
100
AcDbLine
10
5
20
0
11
5
21
5
0
ENDBLK
5
5D
330
5B
100
AcDbEntity
8
0
100
AcDbBlockEnd
0
BLOCK
5
5F
330
5E
100
AcDbEntity
8
0
100
AcDbBlockBegin
2
Generator
70
0
10
0
20
0
3
Generator
1

0
ENDBLK
5
60
330
5E
100
AcDbEntity
8
0
100
AcDbBlockEnd
0
BLOCK
5
62
330
61
100
AcDbEntity
8
0
100
AcDbBlockBegin
2
Datenklos5
70
0
10
0
20
0
3
Datenklos5
1

0
CIRCLE
5
70
100
AcDbEntity
8
Datenklos
6
ByLayer
62
256
370
-1
100
AcDbCircle
10
0
20
0
40
40
0
INSERT
5
71
100
AcDbEntity
8
Datenklos
6
ByLayer
62
256
370
-1
100
AcDbBlockReference
2
DatenKlos
10
5.82076609135e-11
20
2.91038304567e-11
30
0
41
1
42
1
43
0
50
0
70
1
71
1
44
0
45
0
0
ENDBLK
5
63
330
61
100
AcDbEntity
8
0
100
AcDbBlockEnd
0
ENDSEC
0
SECTION
2
ENTITIES
0
HATCH
5
72
100
AcDbEntity
8
Power - Generator
6
ByLayer
62
256
370
-1
100
AcDbHatch
10
0
20
0
30
0
210
0
220
0
230
1
2
ansi31
70
0
71
0
91
1
92
0
93
4
72
1
10
483056.863428
20
230753.067
11
483062.360159
21
230750.260352
72
1
10
483062.360159
20
230750.260352
11
483065.166807
21
230755.757083
72
1
10
483065.166807
20
230755.757083
11
483059.670076
21
230758.563731
72
1
10
483059.670076
20
230758.563731
11
483056.863428
21
230753.067
97
0
75
0
76
1
52
5.81109119781
41
1
77
0
78
0
98
0
0
HATCH
5
73
100
AcDbEntity
8
Power - Generator
6
ByLayer
62
256
370
-1
100
AcDbHatch
10
0
20
0
30
0
210
0
220
0
230
1
2
ansi31
70
0
71
0
91
1
92
0
93
4
72
1
10
483013.382234
20
230568.451972
11
483019.483722
21
230567.522901
72
1
10
483019.483722
20
230567.522901
11
483020.412793
21
230573.624389
72
1
10
483020.412793
20
230573.624389
11
483014.311305
21
230574.55346
72
1
10
483014.311305
20
230574.55346
11
483013.382234
21
230568.451972
97
0
75
0
76
1
52
6.13207644587
41
1
77
0
78
0
98
0
0
HATCH
5
74
100
AcDbEntity
8
Power - Generator
6
ByLayer
62
256
370
-1
100
AcDbHatch
10
0
20
0
30
0
210
0
220
0
230
1
2
ansi31
70
0
71
0
91
1
92
0
93
4
72
1
10
482879.007425
20
230475.570773
11
482884.734178
21
230477.871996
72
1
10
482884.734178
20
230477.871996
11
482882.432955
21
230483.598749
72
1
10
482882.432955
20
230483.598749
11
482876.706202
21
230481.297526
72
1
10
482876.706202
20
230481.297526
11
482879.007425
21
230475.570773
97
0
75
0
76
1
52
0.382089225176
41
1
77
0
78
0
98
0
0
LWPOLYLINE
5
75
100
AcDbEntity
8
Water
6
ByLayer
62
256
370
-1
100
AcDbPolyline
90
22
70
0
43
0
10
482890.904844
20
230491.853549
10
483001.85338
20
230490.93585
10
483009.401719
20
230490.309195
10
483014.821131
20
230489.271296
10
483017.489863
20
230487.435894
10
483013.791695
20
230475.595208
10
483007.687526
20
230457.323644
10
483005.257769
20
230444.752059
10
483003.905527
20
230427.812352
10
483002.706804
20
230416.76488
10
482998.076239
20
230415.685563
10
482987.270509
20
230415.756972
10
482956.858765
20
230416.255211
10
482921.672169
20
230416.79982
10
482910.466814
20
230418.243221
10
482908.06174
20
230419.331193
10
482906.377054
20
230422.436116
10
482895.866277
20
230450.206788
10
482885.913048
20
230482.247166
10
482886.950046
20
230487.903375
10
482888.535088
20
230490.8118
10
482890.904844
20
230491.853549
0
LWPOLYLINE
5
76
100
AcDbEntity
8
Water
6
ByLayer
62
256
370
-1
100
AcDbPolyline
90
18
70
0
43
0
10
483324.719394
20
230280.259375
10
483329.818626
20
230275.832858
10
483326.056258
20
230230.154429
10
483324.442943
20
230206.316968
10
483315.9018
20
230206.174758
10
483309.579833
20
230208.575891
10
483308.784489
20
230211.069033
10
483302.41665
20
230216.226426
10
483300.361092
20
230218.949226
10
483300.638277
20
230232.488262
10
483300.111784
20
230249.02152
10
483300.526609
20
230254.291784
10
483302.741596
20
230257.085652
10
483306.133363
20
230264.661186
10
483305.551694
20
230269.413575
10
483309.462547
20
230275.995195
10
483312.653144
20
230280.559741
10
483324.719394
20
230280.259375
0
LWPOLYLINE
5
77
100
AcDbEntity
8
Fields
6
ByLayer
62
256
370
-1
100
AcDbPolyline
90
35
70
0
43
0
10
483062.873944
20
230500.720241
10
483331.525461
20
230475.11217
10
483415.633964
20
230463.982318
10
483426.359698
20
230453.634836
10
483418.420462
20
230417.412151
10
483370.629741
20
230329.897608
10
483346.848032
20
230309.450815
10
483306.411454
20
230293.238183
10
483288.205905
20
230269.876749
10
483285.967088
20
230223.221121
10
483283.411289
20
230195.60838
10
483289.640524
20
230183.681371
10
483296.991417
20
230164.755083
10
483300.950509
20
230138.253022
10
483297.775525
20
230117.647503
10
483296.476773
20
230105.093728
10
483028.017377
20
230080.07975
10
483013.874447
20
230084.356719
10
482978.259929
20
230080.257057
10
482961.060914
20
230086.989938
10
482953.341682
20
230097.890286
10
482950.949569
20
230181.564722
10
482935.291316
20
230246.972151
10
482912.234385
20
230334.31176
10
482895.194388
20
230392.175548
10
482911.665683
20
230398.964769
10
482993.741653
20
230404.335426
10
483004.346786
20
230406.709792
10
483016.042338
20
230408.088827
10
483025.665401
20
230426.293648
10
483028.007402
20
230434.433607
10
483034.249797
20
230449.842466
10
483042.931308
20
230461.464454
10
483054.401498
20
230473.762847
10
483062.873944
20
230500.720241
0
LWPOLYLINE
5
78
100
AcDbEntity
8
Fields
6
ByLayer
62
256
370
-1
100
AcDbPolyline
90
50
70
0
43
0
10
483319.687186
20
231095.424396
10
483409.233504
20
231028.754462
10
483467.880076
20
230977.106775
10
483584.833649
20
230894.355672
10
483587.043967
20
230882.363557
10
483579.684463
20
230871.715173
10
483572.768692
20
230864.582678
10
483565.367284
20
230856.439646
10
483565.367284
20
230856.439646
10
483559.908327
20
230852.338764
10
483548.454561
20
230846.132917
10
483542.987212
20
230842.533121
10
483543.723844
20
230828.511397
10
483538.959626
20
230812.894131
10
483531.641743
20
230799.740282
10
483521.870565
20
230783.036914
10
483505.250209
20
230755.192303
10
483503.44982
20
230742.631664
10
483498.601764
20
230732.025035
10
483496.173548
20
230726.972257
10
483486.745611
20
230719.797768
10
483476.41323
20
230706.593468
10
483479.058095
20
230668.544145
10
483475.238961
20
230626.376804
10
483472.148651
20
230600.762163
10
483463.54045
20
230574.554109
10
483447.940536
20
230545.723111
10
483432.968162
20
230509.383766
10
483429.433642
20
230480.252412
10
483424.987299
20
230475.667026
10
483419.577932
20
230468.55933
10
483395.396208
20
230472.166256
10
483186.494645
20
230493.25018
10
483047.831971
20
230507.069217
10
483034.440633
20
230556.249769
10
483032.045492
20
230565.070915
10
483006.911727
20
230568.461851
10
483041.794625
20
230612.648302
10
483068.154882
20
230647.112181
10
483090.531583
20
230673.605277
10
483100.489012
20
230694.321007
10
483110.873813
20
230719.554799
10
483120.438362
20
230748.784641
10
483138.903773
20
230786.682949
10
483157.110723
20
230840.114383
10
483171.739936
20
230866.921774
10
483171.925759
20
230885.970822
10
483164.098969
20
230903.382982
10
483172.389023
20
230918.55697
10
483319.687186
20
231095.424396
0
LWPOLYLINE
5
79
100
AcDbEntity
8
Fields
6
ByLayer
62
256
370
-1
100
AcDbPolyline
90
76
70
0
43
0
10
484095.712419
20
231068.063115
10
484113.229852
20
231042.295433
10
484150.510606
20
230976.763923
10
484184.275869
20
230911.172639
10
484220.452568
20
230851.635882
10
484245.515204
20
230825.49329
10
484267.154406
20
230793.779571
10
484308.968736
20
230727.82096
10
484331.144909
20
230694.110984
10
484352.810554
20
230660.893495
10
484373.476343
20
230597.584546
10
484382.046854
20
230566.150697
10
484384.19161
20
230558.16693
10
484328.15674
20
230513.613609
10
484284.52037
20
230478.793228
10
484263.145282
20
230464.89935
10
484248.601133
20
230463.150681
10
484239.57489
20
230461.996203
10
484221.775429
20
230444.653863
10
484189.013485
20
230420.543398
10
484120.373137
20
230378.285579
10
484077.713716
20
230344.986403
10
484047.588737
20
230313.401718
10
484035.598219
20
230309.190182
10
484021.648523
20
230301.938154
10
483998.57125
20
230299.545639
10
483978.487403
20
230298.456642
10
483959.734107
20
230301.787407
10
483942.116215
20
230309.62623
10
483913.779539
20
230321.181414
10
483905.581342
20
230330.568024
10
483878.350492
20
230336.126699
10
483874.758041
20
230340.577878
10
483875.628459
20
230348.612716
10
483883.967754
20
230360.782855
10
483893.11858
20
230384.495617
10
483898.552588
20
230390.1006
10
483903.526196
20
230393.191559
10
483920.206314
20
230387.45614
10
483927.868429
20
230380.065719
10
483938.963333
20
230377.745508
10
483939.892484
20
230382.272455
10
483940.25198
20
230390.799934
10
483935.093465
20
230398.733575
10
483924.986601
20
230402.072874
10
483902.168486
20
230414.221704
10
483887.464472
20
230421.995309
10
483875.648897
20
230437.336209
10
483871.989322
20
230445.796217
10
483857.804641
20
230452.576049
10
483808.702927
20
230473.808555
10
483799.149052
20
230474.149797
10
483790.74262
20
230465.988977
10
483788.289385
20
230462.439124
10
483773.795438
20
230457.685162
10
483770.781066
20
230457.634696
10
483766.761903
20
230457.567411
10
483733.938487
20
230467.043097
10
483713.624734
20
230479.735758
10
483707.537335
20
230483.142677
10
483713.673774
20
230536.87891
10
483722.632207
20
230572.115873
10
483738.096292
20
230608.9652
10
483744.459496
20
230619.096459
10
483751.986795
20
230619.723687
10
483761.297117
20
230633.914171
10
483763.088519
20
230646.976285
10
483763.791271
20
230665.032474
10
483770.078844
20
230679.673479
10
483788.548054
20
230717.073746
10
483802.544841
20
230781.464945
10
483803.155097
20
230805.03253
10
483805.549394
20
230812.089701
10
483811.895406
20
230823.222801
10
483816.366268
20
230826.305002
10
484095.712419
20
231068.063115
0
LWPOLYLINE
5
7A
100
AcDbEntity
8
Fields
6
ByLayer
62
256
370
-1
100
AcDbPolyline
90
52
70
0
43
0
10
483439.124823
20
230456.604569
10
483539.306211
20
230430.957758
10
483650.922537
20
230397.734414
10
483694.560454
20
230387.687018
10
483737.10989
20
230382.634374
10
483786.429805
20
230363.409461
10
483784.336796
20
230353.34914
10
483762.078425
20
230272.021681
10
483759.687982
20
230264.713215
10
483761.015319
20
230260.47461
10
483764.842153
20
230257.029751
10
483771.428085
20
230253.881718
10
483825.635696
20
230227.971228
10
483883.36503
20
230201.869559
10
483909.939616
20
230190.534998
10
483913.280992
20
230186.079495
10
483913.088604
20
230182.567297
10
483910.166498
20
230177.004196
10
483879.666435
20
230152.681901
10
483869.727098
20
230145.998607
10
483863.203947
20
230145.388
10
483850.681061
20
230142.92237
10
483837.400325
20
230140.694716
10
483828.444779
20
230135.281189
10
483819.790791
20
230126.865002
10
483817.592814
20
230123.068533
10
483814.951159
20
230115.755617
10
483814.268858
20
230111.483238
10
483810.588758
20
230106.158072
10
483761.326226
20
230076.75974
10
483721.286936
20
230051.777038
10
483701.248403
20
230032.893933
10
483689.361696
20
230022.418564
10
483683.139868
20
230018.805442
10
483668.09601
20
230016.799368
10
483653.462432
20
230020.314465
10
483634.570709
20
230023.006494
10
483539.882364
20
230050.249428
10
483447.527075
20
230073.271895
10
483350.060726
20
230101.474317
10
483333.175052
20
230104.451476
10
483330.587796
20
230108.919976
10
483327.968041
20
230130.431634
10
483335.629715
20
230198.482811
10
483339.538081
20
230235.39168
10
483336.83071
20
230262.164685
10
483361.698342
20
230307.943747
10
483378.124109
20
230332.528799
10
483396.044401
20
230357.890592
10
483412.670912
20
230385.486431
10
483431.579464
20
230426.904773
10
483439.124823
20
230456.604569
0
LWPOLYLINE
5
7B
100
AcDbEntity
8
Fields
6
ByLayer
62
256
370
-1
100
AcDbPolyline
90
46
70
0
43
0
10
483591.163249
20
230876.417848
10
483688.005309
20
230824.65749
10
483694.238971
20
230812.481935
10
483729.274943
20
230790.763883
10
483790.40898
20
230770.986635
10
483786.503906
20
230749.118005
10
483774.783238
20
230713.835884
10
483752.014382
20
230678.117988
10
483752.190524
20
230667.595058
10
483752.048377
20
230661.076648
10
483748.737243
20
230648.74099
10
483745.585023
20
230641.921557
10
483738.937117
20
230633.790521
10
483728.433675
20
230615.820833
10
483719.140335
20
230585.590968
10
483705.459534
20
230547.267636
10
483700.046999
20
230510.335482
10
483695.949293
20
230454.878702
10
483692.429313
20
230394.919645
10
483679.069579
20
230397.453142
10
483633.124915
20
230410.219014
10
483550.304576
20
230434.399548
10
483485.709245
20
230450.614671
10
483473.526352
20
230457.930215
10
483463.319638
20
230467.283745
10
483449.068746
20
230478.073581
10
483431.380548
20
230484.044248
10
483435.308296
20
230504.660936
10
483455.417825
20
230549.356522
10
483469.757546
20
230578.417122
10
483482.171556
20
230617.470215
10
483485.898312
20
230650.112672
10
483486.028621
20
230672.419682
10
483488.93033
20
230694.271609
10
483491.517778
20
230704.840583
10
483503.340505
20
230719.072245
10
483510.533132
20
230739.74254
10
483517.474514
20
230760.408568
10
483526.986207
20
230777.608888
10
483542.363015
20
230804.680865
10
483549.613921
20
230821.843334
10
483549.37963
20
230835.873465
10
483558.208662
20
230848.801881
10
483572.881686
20
230857.818194
10
483586.194131
20
230873.076953
10
483591.163249
20
230876.417848
0
LWPOLYLINE
5
7C
100
AcDbEntity
8
Fields
6
ByLayer
62
256
370
-1
100
AcDbPolyline
90
40
70
0
43
0
10
482784.630537
20
230948.682296
10
482807.599194
20
230942.296193
10
482840.778898
20
230941.341867
10
482888.501749
20
230942.132288
10
482928.940583
20
230942.802422
10
482974.645736
20
230944.061424
10
482988.97921
20
230943.296758
10
483010.027851
20
230946.653161
10
483037.561212
20
230952.873884
10
483048.83486
20
230954.815214
10
483061.360202
20
230957.02795
10
483074.719108
20
230924.170382
10
483079.753508
20
230908.46602
10
483081.283964
20
230891.951614
10
483082.621497
20
230871.925484
10
483082.323002
20
230859.640879
10
483080.953229
20
230851.348149
10
483079.051973
20
230844.800824
10
483077.104952
20
230841.009401
10
483029.98913
20
230848.998489
10
483004.15524
20
230846.314381
10
482968.936341
20
230848.988093
10
482939.569326
20
230847.248155
10
482901.340501
20
230849.62184
10
482879.450702
20
230851.514631
10
482855.831724
20
230851.624644
10
482846.278685
20
230851.967661
10
482813.573495
20
230839.397153
10
482790.848958
20
230831.001678
10
482761.672439
20
230817.73804
10
482749.937465
20
230813.283623
10
482738.902148
20
230812.098693
10
482751.830873
20
230820.331929
10
482754.828445
20
230821.383934
10
482762.251916
20
230828.273098
10
482767.668443
20
230850.165395
10
482764.496825
20
230859.635916
10
482750.582642
20
230865.420271
10
482767.069979
20
230901.52929
10
482784.630537
20
230948.682296
0
LWPOLYLINE
5
7D
100
AcDbEntity
8
Fields
6
ByLayer
62
256
370
-1
100
AcDbPolyline
90
41
70
0
43
0
10
484049.50082
20
230309.893617
10
484067.708192
20
230273.105365
10
484095.955878
20
230192.122382
10
484121.03823
20
230120.108215
10
484118.962622
20
230109.044955
10
484107.81943
20
230084.294385
10
484100.97486
20
230072.900259
10
484098.631125
20
230062.83499
10
484101.031049
20
230054.603952
10
484102.949598
20
230045.111572
10
484106.861062
20
230036.655262
10
484109.798609
20
230011.389056
10
484104.733542
20
229998.77142
10
484032.849453
20
230014.608067
10
484027.075598
20
230014.260469
10
483829.201246
20
229825.708756
10
483820.600687
20
229829.073925
10
483815.354248
20
229827.231451
10
483808.420534
20
229821.099531
10
483797.002423
20
229812.636597
10
483780.400719
20
229798.572389
10
483754.377549
20
229791.870336
10
483751.362775
20
229791.819886
10
483746.823842
20
229792.746573
10
483736.946168
20
229797.343837
10
483627.158254
20
229900.784101
10
483629.113624
20
229904.075281
10
483639.665048
20
229919.290838
10
483674.890356
20
229976.777684
10
483684.959993
20
229990.731825
10
483703.378278
20
230016.355434
10
483711.51764
20
230025.514924
10
483724.660389
20
230036.011356
10
483750.221424
20
230055.237611
10
483809.892646
20
230093.332196
10
483899.24656
20
230159.495501
10
483941.577675
20
230197.550922
10
483997.999936
20
230249.37741
10
484037.957997
20
230294.521474
10
484042.211977
20
230305.111157
10
484049.50082
20
230309.893617
0
LWPOLYLINE
5
7E
100
AcDbEntity
8
Fields
6
ByLayer
62
256
370
-1
100
AcDbPolyline
90
47
70
0
43
0
10
482916.476971
20
230265.927946
10
482926.896877
20
230228.505275
10
482934.993746
20
230194.803415
10
482937.91493
20
230155.000197
10
482939.173164
20
230109.404329
10
482936.777333
20
230072.018757
10
482940.435563
20
230063.557471
10
482946.2717
20
230060.14517
10
482954.51618
20
230063.038917
10
482967.760066
20
230067.519426
10
483007.69524
20
230068.682948
10
483008.698266
20
230053.660883
10
483008.171823
20
229994.499491
10
482996.063752
20
229966.977935
10
482977.326234
20
229930.072247
10
482952.226855
20
229882.784125
10
482946.174617
20
229868.897839
10
482939.734078
20
229863.276701
10
482930.74388
20
229859.869211
10
482923.01811
20
229855.981375
10
482919.523709
20
229839.380218
10
482917.50973
20
229839.597507
10
482911.966102
20
229840.50829
10
482905.895113
20
229842.914277
10
482902.031222
20
229848.61535
10
482897.174881
20
229853.548015
10
482893.574686
20
229858.501484
10
482887.989583
20
229861.91815
10
482720.592141
20
229879.200896
10
482717.77067
20
229882.663411
10
482713.680649
20
229886.856918
10
482709.293857
20
229893.8027
10
482658.863376
20
229995.485425
10
482634.227868
20
230041.698813
10
482622.193092
20
230055.285576
10
482625.174604
20
230057.339956
10
482632.64906
20
230061.22303
10
482662.654381
20
230070.240453
10
482757.424689
20
230113.6641
10
482768.391096
20
230119.108939
10
482773.01082
20
230128.459078
10
482773.083821
20
230139.237844
10
482778.255679
20
230145.589401
10
482818.336696
20
230198.636113
10
482836.899565
20
230215.736057
10
482859.811681
20
230228.145941
10
482916.476971
20
230265.927946
0
LWPOLYLINE
5
7F
100
AcDbEntity
8
Fields
6
ByLayer
62
256
370
-1
100
AcDbPolyline
90
54
70
0
43
0
10
483024.921119
20
230075.485455
10
483287.393306
20
230097.893194
10
483306.008283
20
230096.699171
10
483322.144489
20
230093.458792
10
483342.258444
20
230092.791148
10
483354.333497
20
230091.989681
10
483669.384142
20
230005.51037
10
483667.064643
20
229993.941713
10
483649.487712
20
229963.068523
10
483624.516199
20
229923.549448
10
483610.75742
20
229904.771196
10
483590.45828
20
229886.384983
10
483539.634752
20
229859.969504
10
483479.263997
20
229833.395171
10
483434.887801
20
229812.10124
10
483414.03507
20
229796.71413
10
483401.707379
20
229782.471758
10
483388.550045
20
229757.687806
10
483364.799014
20
229735.23393
10
483346.968909
20
229719.395908
10
483302.56019
20
229609.366442
10
483297.199727
20
229599.250493
10
483289.812633
20
229590.103481
10
483279.277186
20
229588.9255
10
483230.142271
20
229581.590813
10
483219.120979
20
229579.402201
10
483198.51917
20
229579.05971
10
483165.824453
20
229580.521713
10
483141.12786
20
229584.623468
10
483122.394507
20
229592.835067
10
483102.045596
20
229607.537265
10
483093.320381
20
229618.421779
10
483091.638215
20
229628.921868
10
483084.964565
20
229637.333744
10
483072.186355
20
229650.156274
10
483066.995237
20
229660.096734
10
483060.699383
20
229676.034792
10
483047.452125
20
229686.844187
10
483040.392569
20
229688.231038
10
483026.206957
20
229695.014279
10
483017.129222
20
229696.869009
10
483010.983195
20
229703.785635
10
483001.456661
20
229732.704447
10
482994.9284
20
229762.675463
10
482983.61658
20
229778.028785
10
482974.792208
20
229794.927269
10
482962.579293
20
229834.328651
10
482958.003048
20
229867.840616
10
482965.298924
20
229882.499499
10
482988.191186
20
229926.492624
10
483017.934353
20
229981.627694
10
483020.99781
20
230039.327454
10
483019.332542
20
230048.824373
10
483024.921119
20
230075.485455
0
LWPOLYLINE
5
80
100
AcDbEntity
8
Fields
6
ByLayer
62
256
370
-1
100
AcDbPolyline
90
50
70
0
43
0
10
482837.202256
20
230510.512796
10
482844.933062
20
230498.861525
10
482871.407556
20
230432.633791
10
482897.457042
20
230346.598479
10
482914.337337
20
230283.217581
10
482913.239067
20
230273.675292
10
482907.569251
20
230267.06486
10
482880.914217
20
230253.089036
10
482853.077669
20
230234.582314
10
482832.870801
20
230225.726166
10
482818.121717
20
230205.932374
10
482791.060695
20
230170.896527
10
482772.403776
20
230144.270723
10
482751.082374
20
230130.710232
10
482717.415309
20
230117.721021
10
482685.593074
20
230121.029891
10
482649.1517
20
230106.141346
10
482632.128184
20
230087.062046
10
482628.60818
20
230071.965329
10
482619.667805
20
230065.551629
10
482605.101365
20
230065.060529
10
482581.99456
20
230049.139231
10
482541.397375
20
230027.164646
10
482499.741261
20
230008.431259
10
482433.872737
20
229995.064176
10
482422.262956
20
229998.13137
10
482413.317576
20
230007.257981
10
482383.445583
20
230066.419639
10
482348.125622
20
230136.017985
10
482346.881628
20
230150.534606
10
482358.568351
20
230188.573293
10
482372.820977
20
230208.106908
10
482382.893694
20
230222.057699
10
482409.541965
20
230236.532046
10
482417.477457
20
230242.928604
10
482431.832883
20
230256.198039
10
482452.789785
20
230265.31548
10
482486.492048
20
230278.653197
10
482542.520665
20
230324.69082
10
482599.827988
20
230384.53436
10
482624.911459
20
230432.818198
10
482644.400243
20
230454.693799
10
482671.375068
20
230479.700545
10
482754.34623
20
230518.226851
10
482768.118582
20
230526.284857
10
482795.360874
20
230537.45131
10
482811.995215
20
230539.264393
10
482816.133483
20
230535.166311
10
482819.119215
20
230529.010096
10
482837.202256
20
230510.512796
0
LWPOLYLINE
5
81
100
AcDbEntity
8
Roads
6
ByLayer
62
256
370
-1
100
AcDbPolyline
90
18
70
0
43
0
10
484546.107823
20
230819.787609
10
484512.878408
20
230764.091574
10
484474.195381
20
230696.524131
10
484450.647348
20
230655.150645
10
484437.474298
20
230631.746052
10
484414.036446
20
230591.251267
10
484402.317376
20
230571.003798
10
484399.923788
20
230563.945983
10
484397.503912
20
230550.998065
10
484398.858272
20
230537.737839
10
484402.967327
20
230525.025295
10
484411.432465
20
230499.854911
10
484420.074011
20
230471.679857
10
484430.426656
20
230438.896887
10
484439.919256
20
230404.971367
10
484446.362467
20
230380.518201
10
484455.389663
20
230351.847762
10
484474.288442
20
230304.044865
0
LWPOLYLINE
5
82
100
AcDbEntity
8
Footpaths
6
ByLayer
62
256
370
-1
100
AcDbPolyline
90
19
70
0
43
0
10
483586.184213
20
230883.069684
10
483577.321833
20
230872.145591
10
483570.929338
20
230863.768809
10
483562.234379
20
230857.859633
10
483555.293459
20
230852.230366
10
483550.345213
20
230847.636806
10
483542.927011
20
230840.495932
10
483478.230208
20
230772.75408
10
483424.692945
20
230713.719148
10
483348.97324
20
230628.751668
10
483240.731183
20
230504.897633
10
483225.926192
20
230488.611442
10
483218.10044
20
230475.699437
10
483166.384755
20
230397.395982
10
483109.558597
20
230308.981728
10
483034.000213
20
230198.450319
10
482958.170622
20
230088.915844
10
482938.631876
20
230070.044337
10
482707.421398
20
229889.260006
0
LWPOLYLINE
5
83
100
AcDbEntity
8
Paths
6
ByLayer
62
256
370
-1
100
AcDbPolyline
90
25
70
0
43
0
10
482855.839968
20
230511.635899
10
482884.984757
20
230511.74265
10
482920.691748
20
230510.078645
10
482953.328357
20
230511.747395
10
482969.923816
20
230511.020055
10
482993.35764
20
230507.022781
10
483021.54758
20
230504.107015
10
483032.974873
20
230504.421939
10
483047.04595
20
230504.404832
10
483081.900936
20
230501.09878
10
483111.355275
20
230497.70326
10
483175.64397
20
230492.255275
10
483227.10308
20
230487.722504
10
483259.184755
20
230484.9981
10
483305.247489
20
230480.125707
10
483355.469676
20
230474.44583
10
483396.133979
20
230469.359016
10
483419.557948
20
230465.990084
10
483446.567658
20
230458.545724
10
483474.086117
20
230450.734043
10
483525.56679
20
230437.432685
10
483578.837534
20
230422.281997
10
483646.651052
20
230401.485109
10
483678.061684
20
230393.864813
10
483712.327697
20
230388.297509
0
LWPOLYLINE
5
84
100
AcDbEntity
8
Paths
6
ByLayer
62
256
370
-1
100
AcDbPolyline
90
8
70
0
43
0
10
482856.093237
20
230511.514782
10
482860.150639
20
230501.682381
10
482864.976166
20
230490.985502
10
482872.055145
20
230473.183141
10
482883.82479
20
230437.664005
10
482889.639609
20
230420.341788
10
482895.345471
20
230402.015201
10
482892.853143
20
230393.201934
0
LWPOLYLINE
5
85
100
AcDbEntity
8
Paths
6
ByLayer
62
256
370
-1
100
AcDbPolyline
90
42
70
0
43
0
10
482855.833745
20
230512.01173
10
482855.532573
20
230499.851551
10
482859.407246
20
230485.880814
10
482863.118999
20
230474.162959
10
482869.425728
20
230457.475558
10
482879.955018
20
230428.577365
10
482885.691962
20
230408.371608
10
482892.974592
20
230393.454574
10
482898.487406
20
230371.615883
10
482906.955516
20
230345.815976
10
482914.663871
20
230320.379307
10
482923.342867
20
230289.444668
10
482931.079423
20
230254.734704
10
482937.688737
20
230227.39961
10
482945.764915
20
230194.950606
10
482948.358073
20
230174.942491
10
482949.514582
20
230150.649598
10
482949.912233
20
230134.239214
10
482950.510253
20
230113.320539
10
482951.171583
20
230096.162474
10
482952.753638
20
230091.677119
10
482955.585545
20
230087.588444
10
482959.020574
20
230085.013627
10
482962.342461
20
230081.685004
10
482966.654678
20
230079.250052
10
482973.987728
20
230076.489222
10
482982.905912
20
230076.637093
10
483006.21709
20
230080.15674
10
483016.016603
20
230080.193967
10
483020.32677
20
230077.884348
10
483022.178816
20
230072.275574
10
483020.771281
20
230066.236753
10
483018.187806
20
230047.77147
10
483017.619386
20
230021.444172
10
483017.214888
20
230000.383069
10
483015.065218
20
229986.06045
10
483013.412661
20
229979.64149
10
482987.354691
20
229929.580567
10
482963.23123
20
229884.063141
10
482958.548311
20
229870.951504
10
482958.022008
20
229864.801743
10
482958.247308
20
229858.789761
0
LWPOLYLINE
5
86
100
AcDbEntity
8
Paths
6
ByLayer
62
256
370
-1
100
AcDbPolyline
90
19
70
0
43
0
10
483095.383222
20
230907.190642
10
483099.181129
20
230875.176432
10
483094.104632
20
230848.026745
10
483083.740833
20
230821.540937
10
483069.725688
20
230787.977347
10
483048.376569
20
230742.137216
10
483032.684594
20
230711.176821
10
483005.776608
20
230659.605116
10
482998.768559
20
230642.822925
10
482979.233318
20
230616.309476
10
482946.101429
20
230583.93164
10
482904.206432
20
230549.654291
10
482875.852661
20
230532.142374
10
482862.408538
20
230524.651699
10
482859.975431
20
230519.849595
10
482855.710222
20
230511.884373
10
482840.328129
20
230507.619733
10
482830.560568
20
230505.703679
10
482825.15988
20
230505.614281
0
LWPOLYLINE
5
87
100
AcDbEntity
8
Paths
6
ByLayer
62
256
370
-1
100
AcDbPolyline
90
43
70
0
43
0
10
483711.884951
20
230388.478075
10
483739.345544
20
230384.17557
10
483791.169087
20
230365.493871
10
483816.180813
20
230357.391275
10
483844.010437
20
230346.077779
10
483868.582938
20
230334.208549
10
483895.881001
20
230324.640806
10
483934.362476
20
230307.49109
10
483955.23405
20
230299.068996
10
483969.236936
20
230295.669736
10
483978.927288
20
230294.704493
10
483990.614675
20
230294.524694
10
484004.171388
20
230295.253527
10
484012.065446
20
230296.513913
10
484023.704449
20
230299.215687
10
484036.676679
20
230304.822181
10
484046.621793
20
230311.129764
10
484058.762486
20
230321.359076
10
484068.382668
20
230332.04732
10
484068.382668
20
230332.04732
10
484068.386878
20
230331.796757
10
484077.753711
20
230342.606059
10
484091.518663
20
230353.36395
10
484097.586813
20
230358.6039
10
484106.773925
20
230365.149436
10
484126.056773
20
230376.501392
10
484143.087148
20
230387.314261
10
484150.41753
20
230392.199522
10
484164.956865
20
230401.717392
10
484180.124147
20
230411.245852
10
484197.629284
20
230423.695921
10
484208.923935
20
230431.906125
10
484224.427775
20
230443.821307
10
484236.116007
20
230451.035655
10
484250.341496
20
230456.788974
10
484268.621984
20
230460.480281
10
484286.422247
20
230470.303939
10
484305.14913
20
230484.779854
10
484324.855355
20
230500.776062
10
484344.212114
20
230515.137347
10
484361.554983
20
230529.715341
10
484383.640853
20
230546.127711
10
484396.913964
20
230548.732501
0
LWPOLYLINE
5
88
100
AcDbEntity
8
Paths
6
ByLayer
62
256
370
-1
100
AcDbPolyline
90
26
70
0
43
0
10
484038.701418
20
230305.827395
10
484030.421304
20
230290.148946
10
484008.476184
20
230265.218112
10
483982.601365
20
230242.351732
10
483930.501519
20
230194.984057
10
483915.431857
20
230179.567568
10
483881.745867
20
230150.429644
10
483838.052879
20
230118.617698
10
483786.944262
20
230086.932438
10
483748.255423
20
230063.852021
10
483717.43351
20
230043.660532
10
483696.547093
20
230022.883371
10
483678.298318
20
230002.150321
10
483657.976891
20
229970.10333
10
483637.556809
20
229936.425338
10
483619.487507
20
229908.676864
10
483594.492551
20
229885.575074
10
483558.395241
20
229865.170483
10
483520.338156
20
229849.245201
10
483500.271069
20
229839.510726
10
483468.996807
20
229823.698938
10
483450.908023
20
229815.877551
10
483432.098913
20
229806.038943
10
483419.442796
20
229796.428272
10
483407.21359
20
229783.816815
10
483387.818947
20
229748.777153
0
LWPOLYLINE
5
89
100
AcDbEntity
8
Rivers
6
ByLayer
62
256
370
-1
100
AcDbPolyline
90
19
70
0
43
0
10
482840.378602
20
230515.953757
10
482845.477157
20
230511.526971
10
482852.04535
20
230494.217448
10
482865.616754
20
230456.096698
10
482898.42872
20
230363.782739
10
482917.625871
20
230297.056908
10
482929.673221
20
230244.873486
10
482942.156482
20
230198.835655
10
482946.328043
20
230145.002323
10
482948.621101
20
230089.612319
10
482963.261141
20
230071.79335
10
483010.546257
20
230070.770879
10
483013.347096
20
230050.365344
10
483012.46147
20
230023.010866
10
483011.790354
20
229988.462483
10
482986.803291
20
229937.545684
10
482953.249693
20
229878.139587
10
482946.652804
20
229857.15587
10
482941.822568
20
229845.295499
0
LWPOLYLINE
5
8A
100
AcDbEntity
8
Rivers
6
ByLayer
62
256
370
-1
100
AcDbPolyline
90
23
70
0
43
0
10
483085.332187
20
230918.614093
10
483088.276093
20
230907.761765
10
483089.568648
20
230898.009705
10
483091.842264
20
230882.134119
10
483091.74712
20
230872.73487
10
483089.851363
20
230858.293593
10
483087.679452
20
230845.351327
10
483084.978129
20
230834.02918
10
483076.894377
20
230813.971679
10
483069.401072
20
230796.179393
10
483062.914518
20
230778.278467
10
483050.419508
20
230751.506383
10
483033.381406
20
230718.393494
10
483014.630498
20
230682.495282
10
483004.798288
20
230661.781769
10
482994.702338
20
230641.815666
10
482973.293539
20
230614.644617
10
482954.014377
20
230595.403309
10
482936.184074
20
230579.694691
10
482908.905928
20
230557.93997
10
482867.147546
20
230530.557128
10
482844.465232
20
230519.530122
10
482840.502125
20
230516.081113
0
LWPOLYLINE
5
8B
100
AcDbEntity
8
Rivers
6
ByLayer
62
256
370
-1
100
AcDbPolyline
90
18
70
0
43
0
10
482839.878287
20
230515.820163
10
482829.945743
20
230516.282289
10
482825.555168
20
230523.477643
10
482819.554657
20
230529.267925
10
482816.698222
20
230534.859623
10
482808.883405
20
230544.003254
10
482799.402339
20
230539.961737
10
482781.378615
20
230535.90421
10
482774.654424
20
230532.284277
10
482772.784979
20
230531.376178
10
482756.534064
20
230526.470888
10
482732.678383
20
230510.412547
10
482687.271507
20
230490.865312
10
482654.702205
20
230469.901412
10
482641.725429
20
230456.905243
10
482633.245321
20
230445.487082
10
482627.315872
20
230439.374164
10
482619.834289
20
230428.348416
0
LWPOLYLINE
5
8C
100
AcDbEntity
8
Event Fields
6
ByLayer
62
256
370
-1
100
AcDbPolyline
90
59
70
0
43
0
10
483098.389549
20
230845.186024
10
483111.046251
20
230856.791832
10
483131.506644
20
230865.24227
10
483136.883773
20
230870.62265
10
483146.335197
20
230872.44004
10
483151.512599
20
230872.515124
10
483156.787071
20
230871.543977
10
483158.10476
20
230866.327947
10
483154.837734
20
230858.896227
10
483149.649907
20
230838.539893
10
483144.502974
20
230819.680698
10
483135.736714
20
230794.522369
10
483126.470899
20
230775.817771
10
483117.377535
20
230762.50029
10
483104.598065
20
230740.73418
10
483100.473826
20
230728.380547
10
483086.4517
20
230703.924307
10
483071.065926
20
230685.256528
10
483053.06246
20
230663.613754
10
483044.983291
20
230650.408879
10
483036.849361
20
230632.086392
10
483021.215368
20
230614.990013
10
482996.56426
20
230577.97877
10
482978.667083
20
230551.68962
10
482970.138222
20
230534.613079
10
482968.255993
20
230529.515069
10
482963.615175
20
230523.623491
10
482963.67027
20
230518.636311
10
482959.734543
20
230515.855446
10
482947.434113
20
230513.902735
10
482939.256227
20
230512.924241
10
482929.51298
20
230513.6101
10
482926.052793
20
230515.326201
10
482923.225863
20
230521.453455
10
482920.363097
20
230523.230735
10
482910.910848
20
230522.666411
10
482900.821583
20
230521.241558
10
482890.073294
20
230516.670698
10
482882.163596
20
230513.662302
10
482875.178757
20
230512.584574
10
482866.678074
20
230512.268811
10
482862.908313
20
230515.223826
10
482862.067903
20
230518.966217
10
482863.837671
20
230523.094943
10
482867.217575
20
230526.205566
10
482879.295015
20
230530.389211
10
482890.905662
20
230538.59194
10
482926.038426
20
230563.247683
10
482947.956373
20
230582.56523
10
482973.542369
20
230607.757843
10
482979.515443
20
230612.532031
10
482985.980831
20
230614.269398
10
483005.135647
20
230642.433823
10
483011.749117
20
230657.964106
10
483025.440785
20
230686.890542
10
483042.818496
20
230726.58661
10
483057.389748
20
230754.242332
10
483085.80997
20
230822.053514
10
483098.389549
20
230845.186024
0
LWPOLYLINE
5
8D
100
AcDbEntity
8
Event Fields
6
ByLayer
62
256
370
-1
100
AcDbPolyline
90
24
70
0
43
0
10
483021.318331
20
230495.347839
10
483026.838714
20
230500.327541
10
483030.048209
20
230497.307714
10
483034.625529
20
230494.00884
10
483040.67729
20
230495.545768
10
483043.215889
20
230496.135061
10
483045.56461
20
230500.345405
10
483046.178902
20
230503.004606
10
483063.122966
20
230501.009741
10
483054.48336
20
230473.83676
10
483042.545269
20
230460.907902
10
483034.215253
20
230449.58142
10
483029.069891
20
230437.083512
10
483025.707562
20
230426.510281
10
483015.855181
20
230407.782735
10
483004.901955
20
230406.888717
10
482994.061914
20
230404.216464
10
482993.874544
20
230412.852157
10
483003.176428
20
230414.786362
10
483005.507566
20
230437.559353
10
483006.11964
20
230445.415374
10
483008.661185
20
230456.72479
10
483011.406387
20
230465.197944
10
483021.318331
20
230495.347839
0
LWPOLYLINE
5
8E
100
AcDbEntity
8
Event Fields
6
ByLayer
62
256
370
-1
100
AcDbPolyline
90
14
70
0
43
0
10
483006.918844
20
230568.546131
10
483031.976253
20
230564.86615
10
483047.887268
20
230506.830027
10
482988.439904
20
230509.795093
10
482971.770346
20
230513.615065
10
482966.162576
20
230513.769282
10
482970.891123
20
230522.091958
10
482975.528653
20
230526.203121
10
482979.810882
20
230533.912275
10
482981.887202
20
230540.91027
10
482987.06227
20
230545.871084
10
482997.985898
20
230555.28409
10
483004.245166
20
230565.648674
10
483006.918844
20
230568.546131
0
LWPOLYLINE
5
8F
100
AcDbEntity
8
Event Fields
6
ByLayer
62
256
370
-1
100
AcDbPolyline
90
27
70
0
43
0
10
483891.876432
20
230323.69645
10
483915.661931
20
230313.81927
10
483928.318839
20
230308.266943
10
483944.266668
20
230301.266036
10
483956.1448
20
230297.204511
10
483973.800691
20
230293.239965
10
483991.406144
20
230292.282258
10
484010.225571
20
230293.851351
10
484024.242622
20
230297.094322
10
484031.983721
20
230299.981301
10
484033.022206
20
230297.993657
10
484021.936715
20
230284.77445
10
484010.863786
20
230270.803537
10
483996.7763
20
230256.78201
10
483978.192209
20
230241.181195
10
483956.384319
20
230223.019928
10
483944.502795
20
230212.293753
10
483926.450216
20
230194.947441
10
483920.982403
20
230191.346776
10
483893.130739
20
230203.913067
10
483869.336371
20
230214.291721
10
483856.394497
20
230221.844644
10
483879.96881
20
230254.572055
10
483876.878716
20
230259.031728
10
483869.731512
20
230265.679129
10
483878.631384
20
230289.388097
10
483891.876432
20
230323.69645
0
LWPOLYLINE
5
90
100
AcDbEntity
8
Event Fields
6
ByLayer
62
256
370
-1
100
AcDbPolyline
90
17
70
0
43
0
10
483935.026222
20
230378.400031
10
483945.559883
20
230379.579257
10
483965.445799
20
230392.444448
10
483990.052815
20
230423.434259
10
484107.535924
20
230370.268874
10
484081.722444
20
230351.288258
10
484061.067546
20
230324.37408
10
484035.739234
20
230306.404236
10
483995.68095
20
230297.711346
10
483963.484557
20
230299.677366
10
483931.605688
20
230312.676848
10
483901.251021
20
230324.699512
10
483877.411003
20
230337.834054
10
483877.251405
20
230347.355428
10
483893.677901
20
230386.729343
10
483904.169538
20
230390.414082
10
483935.026222
20
230378.400031
0
LWPOLYLINE
5
91
100
AcDbEntity
8
Event Fields
6
ByLayer
62
256
370
-1
100
AcDbPolyline
90
8
70
0
43
0
10
483007.156683
20
230568.841843
10
483019.121236
20
230582.197859
10
483049.965776
20
230623.685775
10
483068.282117
20
230647.9237
10
483082.084456
20
230664.06695
10
483101.438336
20
230663.636508
10
483032.225098
20
230564.746615
10
483007.156683
20
230568.841843
0
LWPOLYLINE
5
92
100
AcDbEntity
8
Trees
6
ByLayer
62
256
370
-1
100
AcDbPolyline
90
47
70
0
43
0
10
482963.563913
20
230523.3204
10
482968.295535
20
230529.664398
10
482969.920465
20
230533.951906
10
482978.792981
20
230551.955776
10
482991.795548
20
230570.905269
10
483021.154471
20
230614.874622
10
483036.887133
20
230632.052338
10
483045.036837
20
230650.261455
10
483053.135157
20
230663.586337
10
483086.447715
20
230703.924396
10
483100.431699
20
230728.027478
10
483104.75074
20
230740.892039
10
483117.200458
20
230762.201173
10
483126.459884
20
230775.762636
10
483135.573205
20
230794.333831
10
483144.396066
20
230819.040039
10
483152.492001
20
230849.685959
10
483155.034716
20
230859.157546
10
483158.244388
20
230866.384188
10
483156.77651
20
230871.559846
10
483161.71122
20
230873.208148
10
483148.890783
20
230884.961432
10
483157.723866
20
230897.701088
10
483157.723866
20
230897.701088
10
483174.295354
20
230875.672778
10
483171.791277
20
230867.611791
10
483163.222886
20
230854.061966
10
483156.572305
20
230834.717391
10
483153.167224
20
230816.617078
10
483141.772922
20
230791.680154
10
483129.579169
20
230769.486564
10
483118.727947
20
230745.874199
10
483114.156957
20
230729.884435
10
483111.97605
20
230721.264742
10
483098.775445
20
230691.59845
10
483090.644695
20
230674.359
10
483069.328867
20
230649.194158
10
483048.058568
20
230621.273257
10
483018.196937
20
230581.117392
10
483004.93856
20
230566.236194
10
482998.021098
20
230555.344783
10
482981.857251
20
230541.417867
10
482979.846762
20
230533.865889
10
482975.390242
20
230526.085372
10
482970.869312
20
230522.188422
10
482969.707299
20
230520.289489
10
482963.563913
20
230523.3204
0
LWPOLYLINE
5
93
100
AcDbEntity
8
Trees
6
ByLayer
62
256
370
-1
100
AcDbPolyline
90
34
70
0
43
0
10
483083.203626
20
230838.761237
10
483061.11841
20
230776.744992
10
483039.01769
20
230730.767021
10
483006.888105
20
230668.332425
10
482996.49436
20
230643.599703
10
482980.26083
20
230622.52929
10
482957.294879
20
230598.339806
10
482923.367632
20
230568.455026
10
482888.348048
20
230543.815258
10
482854.517712
20
230523.205269
10
482842.522626
20
230519.247337
10
482831.515708
20
230516.308278
10
482827.162457
20
230521.248653
10
482813.785215
20
230540.074448
10
482809.029133
20
230538.993253
10
482795.234241
20
230537.51187
10
482768.032394
20
230526.285139
10
482727.213576
20
230502.803528
10
482675.258959
20
230484.150622
10
482649.251721
20
230461.415476
10
482637.906479
20
230463.734341
10
482559.52622
20
230569.455847
10
482596.008567
20
230657.773726
10
482597.244636
20
230704.658802
10
482622.983076
20
230728.390626
10
482701.261218
20
230735.197304
10
482718.484853
20
230787.608793
10
482741.357296
20
230802.271633
10
482755.956613
20
230809.830458
10
482798.936205
20
230830.039104
10
482852.904483
20
230848.224322
10
482945.948181
20
230843.250233
10
483018.266623
20
230845.702716
10
483083.203626
20
230838.761237
0
INSERT
5
94
100
AcDbEntity
8
Tents
6
ByLayer
62
256
370
-1
100
AcDbBlockReference
2
Tent 20x30
10
482794.281674
20
230485.201356
30
0
41
1
42
1
43
0
50
108.902
70
1
71
1
44
1
45
1
0
INSERT
5
95
100
AcDbEntity
8
Tents
6
ByLayer
62
256
370
-1
100
AcDbBlockReference
2
Tent 20x30
10
483069.572514
20
230522.864291
30
0
41
1
42
1
43
0
50
0
70
1
71
1
44
1
45
1
0
MTEXT
5
96
100
AcDbEntity
8
Tents
6
ByLayer
62
256
370
-1
100
AcDbMText
10
482769.355515
20
230512.333435
30
0
40
5
41
26.5277767178
71
1
72
5
1
Stage A
7
standard
210
0
220
0
230
1
50
0
73
1
44
0.96
0
INSERT
5
97
100
AcDbEntity
8
Tents
6
ByLayer
62
256
370
-1
100
AcDbBlockReference
2
Tent 10x15
10
483068.801452
20
230481.226943
30
0
41
1
42
1
43
0
50
0
70
1
71
1
44
1
45
1
0
MTEXT
5
98
100
AcDbEntity
8
Tents
6
ByLayer
62
256
370
-1
100
AcDbMText
10
483070.457393
20
230487.610498
30
0
40
2.5
41
12.2222222222
71
1
72
5
1
HQ/NOC
7
standard
210
0
220
0
230
1
50
0
73
1
44
0.96
0
INSERT
5
99
100
AcDbEntity
8
Tents
6
ByLayer
62
256
370
-1
100
AcDbBlockReference
2
Tent 5x5
10
482915.761067
20
230516.449055
30
0
41
1
42
1
43
0
50
0
70
1
71
1
44
1
45
1
0
INSERT
5
9A
100
AcDbEntity
8
Tents
6
ByLayer
62
256
370
-1
100
AcDbBlockReference
2
Tent 10x15
10
482803.494439
20
230431.32381
30
0
41
1
42
1
43
0
50
0
70
1
71
1
44
1
45
1
0
MTEXT
5
9B
100
AcDbEntity
8
Tents
6
ByLayer
62
256
370
-1
100
AcDbMText
10
483068.739768
20
230561.355706
30
0
40
5
41
25.9722211622
71
1
72
5
1
Stage B
7
standard
210
0
220
0
230
1
50
0
73
1
44
0.96
0
LINE
5
9C
100
AcDbEntity
8
Perimeter
6
ByLayer
62
256
370
-1
100
AcDbLine
10
482698.691692
20
230490.094156
11
482784.279574
21
230376.362511
0
LINE
5
9D
100
AcDbEntity
8
Perimeter
6
ByLayer
62
256
370
-1
100
AcDbLine
10
482784.279574
20
230376.362511
11
482900.324405
21
230391.012689
0
LINE
5
9E
100
AcDbEntity
8
Perimeter
6
ByLayer
62
256
370
-1
100
AcDbLine
10
482900.324405
20
230391.012689
11
482923.070735
21
230308.123524
0
LINE
5
9F
100
AcDbEntity
8
Perimeter
6
ByLayer
62
256
370
-1
100
AcDbLine
10
482923.070735
20
230308.123524
11
483059.548709
21
230305.424807
0
LINE
5
A0
100
AcDbEntity
8
Perimeter
6
ByLayer
62
256
370
-1
100
AcDbLine
10
483059.548709
20
230305.424807
11
483093.860968
21
230489.708625
0
LINE
5
A1
100
AcDbEntity
8
Perimeter
6
ByLayer
62
256
370
-1
100
AcDbLine
10
483093.860968
20
230489.708625
11
483121.233669
21
230514.76814
0
LINE
5
A2
100
AcDbEntity
8
Perimeter
6
ByLayer
62
256
370
-1
100
AcDbLine
10
483121.233669
20
230514.76814
11
483123.161324
21
230680.932001
0
LINE
5
A3
100
AcDbEntity
8
Perimeter
6
ByLayer
62
256
370
-1
100
AcDbLine
10
483123.161324
20
230680.932001
11
483100.029464
21
230685.172842
0
LINE
5
A4
100
AcDbEntity
8
Perimeter
6
ByLayer
62
256
370
-1
100
AcDbLine
10
483100.029464
20
230685.172842
11
483179.44885
21
230874.468564
0
LINE
5
A5
100
AcDbEntity
8
Perimeter
6
ByLayer
62
256
370
-1
100
AcDbLine
10
483179.44885
20
230874.468564
11
483091.842264
21
230882.134119
0
LINE
5
A6
100
AcDbEntity
8
Perimeter
6
ByLayer
62
256
370
-1
100
AcDbLine
10
483091.842264
20
230882.134119
11
483054.536806
21
230772.302849
0
LINE
5
A7
100
AcDbEntity
8
Perimeter
6
ByLayer
62
256
370
-1
100
AcDbLine
10
483054.536806
20
230772.302849
11
482987.839943
21
230639.680184
0
LINE
5
A8
100
AcDbEntity
8
Perimeter
6
ByLayer
62
256
370
-1
100
AcDbLine
10
482987.839943
20
230639.680184
11
482923.070735
21
230574.525445
0
LINE
5
A9
100
AcDbEntity
8
Perimeter
6
ByLayer
62
256
370
-1
100
AcDbLine
10
482923.070735
20
230574.525445
11
482848.663251
21
230527.105132
0
LINE
5
AA
100
AcDbEntity
8
Perimeter
6
ByLayer
62
256
370
-1
100
AcDbLine
10
482848.663251
20
230527.105132
11
482822.832674
21
230536.357876
0
LINE
5
AB
100
AcDbEntity
8
Perimeter
6
ByLayer
62
256
370
-1
100
AcDbLine
10
482822.832674
20
230536.357876
11
482810.110151
21
230550.622523
0
LINE
5
AC
100
AcDbEntity
8
Perimeter
6
ByLayer
62
256
370
-1
100
AcDbLine
10
482810.110151
20
230550.622523
11
482694.450851
21
230499.3469
0
LINE
5
AD
100
AcDbEntity
8
Perimeter
6
ByLayer
62
256
370
-1
100
AcDbLine
10
482694.450851
20
230499.3469
11
482698.691692
21
230490.094156
0
MTEXT
5
AE
100
AcDbEntity
8
Text
6
ByLayer
62
256
370
-1
100
AcDbMText
10
483042.970876
20
230710.232357
30
0
40
5
41
24.4444444444
71
1
72
5
1
Camping
7
standard
210
0
220
0
230
1
50
0
73
1
44
0.96
0
MTEXT
5
AF
100
AcDbEntity
8
Text
6
ByLayer
62
256
370
-1
100
AcDbMText
10
483000.176935
20
230537.514469
30
0
40
5
41
24.4444444444
71
1
72
5
1
Camping
7
standard
210
0
220
0
230
1
50
0
73
1
44
0.96
0
MTEXT
5
B0
100
AcDbEntity
8
Text
6
ByLayer
62
256
370
-1
100
AcDbMText
10
483022.537733
20
230480.455881
30
0
40
5
41
24.4444444444
71
1
72
5
1
Camping
7
standard
210
0
220
0
230
1
50
0
73
1
44
0.96
0
MTEXT
5
B1
100
AcDbEntity
8
Text
6
ByLayer
62
256
370
-1
100
AcDbMText
10
483046.440655
20
230607.29558
30
0
40
5
41
42.6388914603
71
1
72
5
1
Camper Vans
7
standard
210
0
220
0
230
1
50
3139.09824965
73
1
44
0.96
0
MTEXT
5
B2
100
AcDbEntity
8
Text
6
ByLayer
62
256
370
-1
100
AcDbMText
10
482825.531391
20
230460.7938
30
0
40
5
41
26.1111111111
71
1
72
5
1
Catering
7
standard
210
0
220
0
230
1
50
0
73
1
44
0.96
0
MTEXT
5
B3
100
AcDbEntity
8
Text
6
ByLayer
62
256
370
-1
100
AcDbMText
10
482951.069924
20
230367.423011
30
0
40
5
41
76.9444444444
71
1
72
5
1
UAV/Model flying area
7
standard
210
0
220
0
230
1
50
0
73
1
44
0.96
0
LINE
5
B4
100
AcDbEntity
8
Power - Generator
6
ByLayer
62
256
370
-1
100
AcDbLine
10
482879.007425
20
230475.570773
11
482884.734178
21
230477.871996
0
LINE
5
B5
100
AcDbEntity
8
Power - Generator
6
ByLayer
62
256
370
-1
100
AcDbLine
10
482884.734178
20
230477.871996
11
482882.432955
21
230483.598749
0
LINE
5
B6
100
AcDbEntity
8
Power - Generator
6
ByLayer
62
256
370
-1
100
AcDbLine
10
482882.432955
20
230483.598749
11
482876.706202
21
230481.297526
0
LINE
5
B7
100
AcDbEntity
8
Power - Generator
6
ByLayer
62
256
370
-1
100
AcDbLine
10
482876.706202
20
230481.297526
11
482879.007425
21
230475.570773
0
LINE
5
B8
100
AcDbEntity
8
Power - Generator
6
ByLayer
62
256
370
-1
100
AcDbLine
10
483013.382234
20
230568.451972
11
483019.483722
21
230567.522901
0
LINE
5
B9
100
AcDbEntity
8
Power - Generator
6
ByLayer
62
256
370
-1
100
AcDbLine
10
483019.483722
20
230567.522901
11
483020.412793
21
230573.624389
0
LINE
5
BA
100
AcDbEntity
8
Power - Generator
6
ByLayer
62
256
370
-1
100
AcDbLine
10
483020.412793
20
230573.624389
11
483014.311305
21
230574.55346
0
LINE
5
BB
100
AcDbEntity
8
Power - Generator
6
ByLayer
62
256
370
-1
100
AcDbLine
10
483014.311305
20
230574.55346
11
483013.382234
21
230568.451972
0
LINE
5
BC
100
AcDbEntity
8
Power - Generator
6
ByLayer
62
256
370
-1
100
AcDbLine
10
483056.863428
20
230753.067
11
483062.360159
21
230750.260352
0
LINE
5
BD
100
AcDbEntity
8
Power - Generator
6
ByLayer
62
256
370
-1
100
AcDbLine
10
483062.360159
20
230750.260352
11
483065.166807
21
230755.757083
0
LINE
5
BE
100
AcDbEntity
8
Power - Generator
6
ByLayer
62
256
370
-1
100
AcDbLine
10
483065.166807
20
230755.757083
11
483059.670076
21
230758.563731
0
LINE
5
BF
100
AcDbEntity
8
Power - Generator
6
ByLayer
62
256
370
-1
100
AcDbLine
10
483059.670076
20
230758.563731
11
483056.863428
21
230753.067
0
LWPOLYLINE
5
C0
100
AcDbEntity
8
Road-Trackway
6
ByLayer
62
256
370
-1
100
AcDbPolyline
90
4
70
0
43
0
10
483062.380427
20
230500.602131
10
483054.528459
20
230472.763334
10
483016.696247
20
230407.092325
10
482896.775274
20
230397.812726
0
LWPOLYLINE
5
C1
100
AcDbEntity
8
Road-Trackway
6
ByLayer
62
256
370
-1
100
AcDbPolyline
90
3
70
0
43
0
10
483048.461029
20
230506.669561
10
483034.184722
20
230565.202417
10
483086.29324
20
230639.43921
0
LWPOLYLINE
5
C2
100
AcDbEntity
8
Road-Trackway
6
ByLayer
62
256
370
-1
100
AcDbPolyline
90
2
70
0
43
0
10
483034.54163
20
230565.559325
10
483020.265324
20
230566.986956
0
LWPOLYLINE
5
C3
100
AcDbEntity
8
Road-Trackway
6
ByLayer
62
256
370
-1
100
AcDbPolyline
90
2
70
0
43
0
10
483045.106097
20
230523.515603
10
483069.090291
20
230526.65639
0
LWPOLYLINE
5
C4
100
AcDbEntity
8
Road-Trackway
6
ByLayer
62
256
370
-1
100
AcDbPolyline
90
2
70
0
43
0
10
482830.39045
20
230507.52614
10
482792.129949
20
230494.96299
0
LWPOLYLINE
5
C5
100
AcDbEntity
8
Road-Trackway
6
ByLayer
62
256
370
-1
100
AcDbPolyline
90
2
70
0
43
0
10
482831.247028
20
230442.140657
10
482816.399669
20
230442.140657
0
LWPOLYLINE
5
C6
100
AcDbEntity
8
Road-Trackway
6
ByLayer
62
256
370
-1
100
AcDbPolyline
90
2
70
0
43
0
10
482995.424551
20
230610.030019
10
482987.715345
20
230615.16949
0
LWPOLYLINE
5
C7
100
AcDbEntity
8
Road-Trackway
6
ByLayer
62
256
370
-1
100
AcDbPolyline
90
2
70
0
43
0
10
483061.381086
20
230759.931236
10
483085.365281
20
230751.650978
0
LWPOLYLINE
5
C8
100
AcDbEntity
8
Lighting-ExtFestoon
6
ByLayer
62
256
370
-1
100
AcDbPolyline
90
9
70
0
43
0
10
483092.717579
20
230500.602131
10
483062.737335
20
230503.457393
10
483054.171552
20
230472.763334
10
483016.696247
20
230407.80614
10
482893.206198
20
230397.455818
10
482889.994029
20
230397.455818
10
482847.522017
20
230517.376791
10
482831.104265
20
230508.4541
10
482792.20133
20
230495.605424
0
LWPOLYLINE
5
C9
100
AcDbEntity
8
Lighting-ExtFestoon
6
ByLayer
62
256
370
-1
100
AcDbPolyline
90
3
70
0
43
0
10
482820.397035
20
230440.641645
10
482832.174988
20
230441.35546
10
482833.959526
20
230507.026469
0
LWPOLYLINE
5
CA
100
AcDbEntity
8
Lighting-ExtFestoon
6
ByLayer
62
256
370
-1
100
AcDbPolyline
90
3
70
0
43
0
10
482850.734186
20
230508.4541
10
482967.086083
20
230509.881731
10
483048.461029
20
230504.885023
0
LWPOLYLINE
5
CB
100
AcDbEntity
8
Lighting-ExtFestoon
6
ByLayer
62
256
370
-1
100
AcDbPolyline
90
7
70
0
43
0
10
482848.235833
20
230515.592253
10
482920.688087
20
230560.919526
10
482982.076205
20
230615.526397
10
482992.783434
20
230628.018165
10
483004.561387
20
230645.863548
10
483058.811351
20
230760.787814
10
483094.859025
20
230844.661114
0
LWPOLYLINE
5
CC
100
AcDbEntity
8
Lighting-ExtFestoon
6
ByLayer
62
256
370
-1
100
AcDbPolyline
90
2
70
0
43
0
10
483088.077779
20
230751.151307
10
483059.882074
20
230760.787814
0
LWPOLYLINE
5
CD
100
AcDbEntity
8
Lighting-ExtFestoon
6
ByLayer
62
256
370
-1
100
AcDbPolyline
90
2
70
0
43
0
10
483003.490664
20
230605.532983
10
482984.574558
20
230618.024751
0
LWPOLYLINE
5
CE
100
AcDbEntity
8
Lighting-ExtFestoon
6
ByLayer
62
256
370
-1
100
AcDbPolyline
90
3
70
0
43
0
10
483049.88866
20
230506.669562
10
483035.255446
20
230565.202418
10
483085.579425
20
230636.227042
0
LWPOLYLINE
5
CF
100
AcDbEntity
8
Lighting-ExtFestoon
6
ByLayer
62
256
370
-1
100
AcDbPolyline
90
2
70
0
43
0
10
483044.535045
20
230524.158037
10
483068.447858
20
230527.013298
0
LWPOLYLINE
5
D0
100
AcDbEntity
8
Lighting-ExtFestoon
6
ByLayer
62
256
370
-1
100
AcDbPolyline
90
2
70
0
43
0
10
483050.245567
20
230504.885023
10
483062.380428
20
230503.457393
0
LWPOLYLINE
5
D1
100
AcDbEntity
8
Road-Trackway
6
ByLayer
62
256
370
-1
100
AcDbPolyline
90
2
70
0
43
0
10
482960.581227
20
230516.204307
10
482938.433537
20
230573.768202
0
LWPOLYLINE
5
D2
100
AcDbEntity
8
Lighting-ExtFestoon
6
ByLayer
62
256
370
-1
100
AcDbPolyline
90
2
70
0
43
0
10
482958.593052
20
230515.502598
10
482936.377749
20
230573.082939
0
LWPOLYLINE
5
D3
100
AcDbEntity
8
Road-Trackway
6
ByLayer
62
256
370
-1
100
AcDbPolyline
90
2
70
0
43
0
10
482831.532554
20
230507.52614
10
482832
20
230442
0
INSERT
5
D4
100
AcDbEntity
8
Datenklos
6
ByLayer
62
256
370
-1
100
AcDbBlockReference
2
Datenklos5
10
483010
20
230410
30
0
41
1
42
1
43
0
50
0
70
1
71
1
44
0
45
0
0
INSERT
5
D5
100
AcDbEntity
8
Datenklos
6
ByLayer
62
256
370
-1
100
AcDbBlockReference
2
Datenklos5
10
483016
20
230478
30
0
41
1
42
1
43
0
50
0
70
1
71
1
44
1
45
1
0
INSERT
5
D6
100
AcDbEntity
8
Datenklos
6
ByLayer
62
256
370
-1
100
AcDbBlockReference
2
Datenklos5
10
483020
20
230540
30
0
41
1
42
1
43
0
50
0
70
1
71
1
44
1
45
1
0
INSERT
5
D7
100
AcDbEntity
8
Datenklos
6
ByLayer
62
256
370
-1
100
AcDbBlockReference
2
Datenklos5
10
482900
20
230540
30
0
41
1
42
1
43
0
50
0
70
1
71
1
44
1
45
1
0
INSERT
5
D8
100
AcDbEntity
8
Datenklos
6
ByLayer
62
256
370
-1
100
AcDbBlockReference
2
Datenklos5
10
483010
20
230650
30
0
41
1
42
1
43
0
50
0
70
1
71
1
44
1
45
1
0
INSERT
5
D9
100
AcDbEntity
8
Datenklos
6
ByLayer
62
256
370
-1
100
AcDbBlockReference
2
Datenklos5
10
483040
20
230720
30
0
41
1
42
1
43
0
50
0
70
1
71
1
44
1
45
1
0
INSERT
5
DA
100
AcDbEntity
8
Datenklos
6
ByLayer
62
256
370
-1
100
AcDbBlockReference
2
Datenklos5
10
483080
20
230800
30
0
41
1
42
1
43
0
50
0
70
1
71
1
44
1
45
1
0
INSERT
5
DB
100
AcDbEntity
8
Datenklos
6
ByLayer
62
256
370
-1
100
AcDbBlockReference
2
Datenklos5
10
483140
20
230850
30
0
41
1
42
1
43
0
50
0
70
1
71
1
44
1
45
1
0
INSERT
5
DC
100
AcDbEntity
8
Datenklos
6
ByLayer
62
256
370
-1
100
AcDbBlockReference
2
Datenklos5
10
483090
20
230750
30
0
41
1
42
1
43
0
50
0
70
1
71
1
44
1
45
1
0
INSERT
5
DD
100
AcDbEntity
8
Datenklos
6
ByLayer
62
256
370
-1
100
AcDbBlockReference
2
Datenklos5
10
482955
20
230589
30
0
41
1
42
1
43
0
50
0
70
1
71
1
44
1
45
1
0
INSERT
5
DE
100
AcDbEntity
8
Datenklos
6
ByLayer
62
256
370
-1
100
AcDbBlockReference
2
Datenklos5
10
482959
20
230530
30
0
41
1
42
1
43
0
50
0
70
1
71
1
44
1
45
1
0
INSERT
5
DF
100
AcDbEntity
8
Datenklos
6
ByLayer
62
256
370
-1
100
AcDbBlockReference
2
Datenklos5
10
483004
20
230605
30
0
41
1
42
1
43
0
50
0
70
1
71
1
44
1
45
1
0
INSERT
5
E0
100
AcDbEntity
8
Datenklos
6
ByLayer
62
256
370
-1
100
AcDbBlockReference
2
Datenklos5
10
483050
20
230590
30
0
41
1
42
1
43
0
50
0
70
1
71
1
44
1
45
1
0
INSERT
5
E1
100
AcDbEntity
8
Datenklos
6
ByLayer
62
256
370
-1
100
AcDbBlockReference
2
Datenklos5
10
483079
20
230632
30
0
41
1
42
1
43
0
50
0
70
1
71
1
44
1
45
1
0
INSERT
5
E2
100
AcDbEntity
8
Datenklos
6
ByLayer
62
256
370
-1
100
AcDbBlockReference
2
Datenklos5
10
482830
20
230443
30
0
41
1
42
1
43
0
50
0
70
1
71
1
44
1
45
1
0
INSERT
5
E3
100
AcDbEntity
8
Datenklos
6
ByLayer
62
256
370
-1
100
AcDbBlockReference
2
Datenklos5
10
483240
20
230440
30
0
41
1
42
1
43
0
50
0
70
1
71
1
44
1
45
1
0
ENDSEC
0
SECTION
2
OBJECTS
0
DICTIONARY
5
C
330
0
100
AcDbDictionary
281
1
3
ACAD_GROUP
350
D
0
DICTIONARY
5
D
330
C
100
AcDbDictionary
281
1
0
ENDSEC
0
EOF
