999
dxflib 3.3.4.0
  0
SECTION
  2
HEADER
  9
$ACADVER
  1
AC1015
  9
$HANDSEED
  5
FFFF
  9
$ANGBASE
 50
0.0
  9
$ATTMODE
 70
1
  9
$AUNITS
 70
0
  9
$AUPREC
 70
0
  9
$CELTSCALE
 40
1.0
  9
$CHAMFERA
 40
0.0
  9
$CHAMFERB
 40
0.0
  9
$CHAMFERC
 40
0.0
  9
$CHAMFERD
 40
0.0
  9
$CMLJUST
 70
0
  9
$CMLSCALE
 40
1.0
  9
$DIMADEC
 70
0
  9
$DIMALTD
 70
2
  9
$DIMALTF
 40
25.3999999999999986
  9
$DIMALTRND
 40
0.0
  9
$DIMALTTD
 70
2
  9
$DIMALTTZ
 70
0
  9
$DIMALTU
 70
2
  9
$DIMALTZ
 70
0
  9
$DIMAPOST
  1

  9
$DIMASZ
 40
0.18
  9
$DIMATFIT
 70
3
  9
$DIMAUNIT
 70
0
  9
$DIMAZIN
 70
0
  9
$DIMCEN
 40
0.09
  9
$DIMDEC
 70
4
  9
$DIMDLE
 40
0.0
  9
$DIMDLI
 40
0.38
  9
$DIMDSEP
 70
46
  9
$DIMEXE
 40
0.18
  9
$DIMEXO
 40
0.0625
  9
$DIMFRAC
 70
0
  9
$DIMGAP
 40
0.09
  9
$DIMJUST
 70
0
  9
$DIMLFAC
 40
1.0
  9
$DIMLUNIT
 70
2
  9
$DIMLWD
 70
-2
  9
$DIMLWE
 70
-2
  9
$DIMPOST
  1

  9
$DIMRND
 40
0.0
  9
$DIMSCALE
 40
1.0
  9
$DIMTAD
 70
0
  9
$DIMTDEC
 70
4
  9
$DIMTFAC
 40
1.0
  9
$DIMTM
 40
0.0
  9
$DIMTOLJ
 70
1
  9
$DIMTP
 40
0.0
  9
$DIMTSZ
 40
0.0
  9
$DIMTVP
 40
0.0
  9
$DIMTXT
 40
0.18
  9
$DIMTZIN
 70
0
  9
$DIMZIN
 70
0
  9
$DWGCODEPAGE
  3
ANSI_1252
  9
$ELEVATION
 40
0.0
  9
$EXTMAX
 10
484546.1078229999984615
 20
231095.4243959999876097
 30
0.0
  9
$EXTMIN
 10
0.0
 20
0.0
 30
0.0
  9
$FILLETRAD
 40
0.5
  9
$INSBASE
 10
0.0
 20
0.0
 30
0.0
  9
$INSUNITS
 70
6
  9
$LIMMAX
 10
12.0
 20
9.0
  9
$LIMMIN
 10
0.0
 20
0.0
  9
$LTSCALE
 40
1.0
  9
$LUNITS
 70
2
  9
$LUPREC
 70
4
  9
$MAXACTVP
 70
64
  9
$PDMODE
 70
0
  9
$PDSIZE
 40
0.0
  9
$PELEVATION
 40
0.0
  9
$PEXTMAX
 10
-100000000000000000000.0
 20
-100000000000000000000.0
 30
-100000000000000000000.0
  9
$PEXTMIN
 10
100000000000000000000.0
 20
100000000000000000000.0
 30
100000000000000000000.0
  9
$PINSBASE
 10
0.0127726180957
 20
0.0406231574526
 30
0.0
  9
$PLIMMAX
 10
0.297
 20
0.21
  9
$PLIMMIN
 10
0.0
 20
0.0
  9
$PLINEWID
 40
0.0
  9
$PROXYGRAPHICS
 70
1
  9
$PUCSORG
 10
0.0
 20
0.0
 30
0.0
  9
$PUCSXDIR
 10
1.0
 20
0.0
 30
0.0
  9
$PUCSYDIR
 10
0.0
 20
1.0
 30
0.0
  9
$SHADEDGE
 70
3
  9
$SHADEDIF
 70
70
  9
$SKETCHINC
 40
0.1
  9
$SPLINESEGS
 70
8
  9
$SPLINETYPE
 70
6
  9
$SURFTAB1
 70
6
  9
$SURFTAB2
 70
6
  9
$SURFTYPE
 70
6
  9
$SURFU
 70
6
  9
$SURFV
 70
6
  9
$TEXTSIZE
 40
1.0
  9
$THICKNESS
 40
0.0
  9
$TRACEWID
 40
0.05
  9
$TREEDEPTH
 70
3020
  9
$UCSORG
 10
0.0
 20
0.0
 30
0.0
  9
$UCSXDIR
 10
1.0
 20
0.0
 30
0.0
  9
$UCSYDIR
 10
0.0
 20
1.0
 30
0.0
  9
$UNITMODE
 70
0
  9
$USERI1
 70
0
  9
$USERI2
 70
0
  9
$USERI3
 70
0
  9
$USERI4
 70
0
  9
$USERI5
 70
0
  9
$USERR1
 40
0.0
  9
$USERR2
 40
0.0
  9
$USERR3
 40
0.0
  9
$USERR4
 40
0.0
  9
$USERR5
 40
0.0
  0
ENDSEC
  0
SECTION
  2
TABLES
  0
TABLE
  2
VPORT
  5
8
100
AcDbSymbolTable
 70
1
  0
VPORT
  5
30
100
AcDbSymbolTableRecord
100
AcDbViewportTableRecord
  2
*Active
 70
0
 10
0.0
 20
0.0
 11
1.0
 21
1.0
 12
286.3055555555554861
 22
148.5
 13
0.0
 23
0.0
 14
10.0
 24
10.0
 15
10.0
 25
10.0
 16
0.0
 26
0.0
 36
1.0
 17
0.0
 27
0.0
 37
0.0
 40
297.0
 41
1.92798353909465
 42
50.0
 43
0.0
 44
0.0
 50
0.0
 51
0.0
 71
0
 72
100
 73
1
 74
3
 75
1
 76
1
 77
0
 78
0
281
0
 65
1
110
0.0
120
0.0
130
0.0
111
1.0
121
0.0
131
0.0
112
0.0
122
1.0
132
0.0
 79
0
146
0.0
  0
ENDTAB
  0
TABLE
  2
LTYPE
  5
5
100
AcDbSymbolTable
 70
21
  0
LTYPE
  5
16
100
AcDbSymbolTableRecord
100
AcDbLinetypeTableRecord
  2
CONTINUOUS
 70
0
  3
Solid line
 72
65
 73
0
 40
0.0
  0
LTYPE
  5
31
100
AcDbSymbolTableRecord
100
AcDbLinetypeTableRecord
  2
CENTER2
 70
0
  3
Center (.5x) ___ _ ___ _ ___ _ ___ _ ___ _ ___
 72
65
 73
4
 40
28.5749999999999993
 49
19.0500000000000007
 74
0
 49
-3.1749999999999998
 74
0
 49
3.1749999999999998
 74
0
 49
-3.1749999999999998
 74
0
  0
LTYPE
  5
32
100
AcDbSymbolTableRecord
100
AcDbLinetypeTableRecord
  2
DIVIDEX2
 70
0
  3
Divide (2x) ________  .  .  ________  .  .  _
 72
65
 73
6
 40
63.5
 49
25.3999999999999986
 74
0
 49
-12.6999999999999993
 74
0
 49
0.0
 74
0
 49
-12.6999999999999993
 74
0
 49
0.0
 74
0
 49
-12.6999999999999993
 74
0
  0
LTYPE
  5
33
100
AcDbSymbolTableRecord
100
AcDbLinetypeTableRecord
  2
DOT2
 70
0
  3
Dot (.5x) .....................................
 72
65
 73
2
 40
3.1749999999999998
 49
0.0
 74
0
 49
-3.1749999999999998
 74
0
  0
LTYPE
  5
34
100
AcDbSymbolTableRecord
100
AcDbLinetypeTableRecord
  2
DASHDOT2
 70
0
  3
Dash dot (.5x) _._._._._._._._._._._._._._._.
 72
65
 73
4
 40
12.6999999999999993
 49
6.3499999999999996
 74
0
 49
-3.1749999999999998
 74
0
 49
0.0
 74
0
 49
-3.1749999999999998
 74
0
  0
LTYPE
  5
35
100
AcDbSymbolTableRecord
100
AcDbLinetypeTableRecord
  2
DIVIDE
 70
0
  3
Divide ____ . . ____ . . ____ . . ____ . . ____
 72
65
 73
6
 40
31.75
 49
12.6999999999999993
 74
0
 49
-6.3499999999999996
 74
0
 49
0.0
 74
0
 49
-6.3499999999999996
 74
0
 49
0.0
 74
0
 49
-6.3499999999999996
 74
0
  0
LTYPE
  5
36
100
AcDbSymbolTableRecord
100
AcDbLinetypeTableRecord
  2
DASHDOT
 70
0
  3
Dash dot __ . __ . __ . __ . __ . __ . __ . __
 72
65
 73
4
 40
25.3999999999999986
 49
12.6999999999999993
 74
0
 49
-6.3499999999999996
 74
0
 49
0.0
 74
0
 49
-6.3499999999999996
 74
0
  0
LTYPE
  5
37
100
AcDbSymbolTableRecord
100
AcDbLinetypeTableRecord
  2
BORDER
 70
0
  3
Border __ __ . __ __ . __ __ . __ __ . __ __ .
 72
65
 73
6
 40
44.4500000000000028
 49
12.6999999999999993
 74
0
 49
-6.3499999999999996
 74
0
 49
12.6999999999999993
 74
0
 49
-6.3499999999999996
 74
0
 49
0.0
 74
0
 49
-6.3499999999999996
 74
0
  0
LTYPE
  5
38
100
AcDbSymbolTableRecord
100
AcDbLinetypeTableRecord
  2
DASHDOTX2
 70
0
  3
Dash dot (2x) ____  .  ____  .  ____  .  ___
 72
65
 73
4
 40
50.7999999999999972
 49
25.3999999999999986
 74
0
 49
-12.6999999999999993
 74
0
 49
0.0
 74
0
 49
-12.6999999999999993
 74
0
  0
LTYPE
  5
39
100
AcDbSymbolTableRecord
100
AcDbLinetypeTableRecord
  2
CENTERX2
 70
0
  3
Center (2x) ________  __  ________  __  _____
 72
65
 73
4
 40
101.5999999999999943
 49
63.5
 74
0
 49
-12.6999999999999993
 74
0
 49
12.6999999999999993
 74
0
 49
-12.6999999999999993
 74
0
  0
LTYPE
  5
3A
100
AcDbSymbolTableRecord
100
AcDbLinetypeTableRecord
  2
BORDER2
 70
0
  3
Border (.5x) __.__.__.__.__.__.__.__.__.__.__.
 72
65
 73
6
 40
22.2250000000000014
 49
6.3499999999999996
 74
0
 49
-3.1749999999999998
 74
0
 49
6.3499999999999996
 74
0
 49
-3.1749999999999998
 74
0
 49
0.0
 74
0
 49
-3.1749999999999998
 74
0
  0
LTYPE
  5
3B
100
AcDbSymbolTableRecord
100
AcDbLinetypeTableRecord
  2
BORDERX2
 70
0
  3
Border (2x) ____  ____  .  ____  ____  .  ___
 72
65
 73
6
 40
88.9000000000000057
 49
25.3999999999999986
 74
0
 49
-12.6999999999999993
 74
0
 49
25.3999999999999986
 74
0
 49
-12.6999999999999993
 74
0
 49
0.0
 74
0
 49
-12.6999999999999993
 74
0
  0
LTYPE
  5
14
100
AcDbSymbolTableRecord
100
AcDbLinetypeTableRecord
  2
BYBLOCK
 70
0
  3

 72
65
 73
0
 40
0.0
  0
LTYPE
  5
15
100
AcDbSymbolTableRecord
100
AcDbLinetypeTableRecord
  2
BYLAYER
 70
0
  3

 72
65
 73
0
 40
0.0
  0
LTYPE
  5
3C
100
AcDbSymbolTableRecord
100
AcDbLinetypeTableRecord
  2
DASHED2
 70
0
  3
Dashed (.5x) _ _ _ _ _ _ _ _ _ _ _ _ _ _ _ _ _
 72
65
 73
2
 40
9.5250000000000004
 49
6.3499999999999996
 74
0
 49
-3.1749999999999998
 74
0
  0
LTYPE
  5
3D
100
AcDbSymbolTableRecord
100
AcDbLinetypeTableRecord
  2
CENTER
 70
0
  3
Center ____ _ ____ _ ____ _ ____ _ ____ _ ____
 72
65
 73
4
 40
50.7999999999999972
 49
31.75
 74
0
 49
-6.3499999999999996
 74
0
 49
6.3499999999999996
 74
0
 49
-6.3499999999999996
 74
0
  0
LTYPE
  5
3E
100
AcDbSymbolTableRecord
100
AcDbLinetypeTableRecord
  2
DIVIDE2
 70
0
  3
Divide (.5x) __..__..__..__..__..__..__..__.._
 72
65
 73
6
 40
15.875
 49
6.3499999999999996
 74
0
 49
-3.1749999999999998
 74
0
 49
0.0
 74
0
 49
-3.1749999999999998
 74
0
 49
0.0
 74
0
 49
-3.1749999999999998
 74
0
  0
LTYPE
  5
3F
100
AcDbSymbolTableRecord
100
AcDbLinetypeTableRecord
  2
DASHED
 70
0
  3
Dashed __ __ __ __ __ __ __ __ __ __ __ __ __ _
 72
65
 73
2
 40
19.0500000000000007
 49
12.6999999999999993
 74
0
 49
-6.3499999999999996
 74
0
  0
LTYPE
  5
40
100
AcDbSymbolTableRecord
100
AcDbLinetypeTableRecord
  2
DOTX2
 70
0
  3
Dot (2x) .  .  .  .  .  .  .  .  .  .  .  .  .
 72
65
 73
2
 40
12.6999999999999993
 49
0.0
 74
0
 49
-12.6999999999999993
 74
0
  0
LTYPE
  5
41
100
AcDbSymbolTableRecord
100
AcDbLinetypeTableRecord
  2
DASHEDX2
 70
0
  3
Dashed (2x) ____  ____  ____  ____  ____  ___
 72
65
 73
2
 40
38.1000000000000014
 49
25.3999999999999986
 74
0
 49
-12.6999999999999993
 74
0
  0
LTYPE
  5
42
100
AcDbSymbolTableRecord
100
AcDbLinetypeTableRecord
  2
DOT
 70
0
  3
Dot . . . . . . . . . . . . . . . . . . . . . .
 72
65
 73
2
 40
6.3499999999999996
 49
0.0
 74
0
 49
-6.3499999999999996
 74
0
  0
ENDTAB
  0
TABLE
  2
LAYER
  5
2
100
AcDbSymbolTable
 70
21
  0
LAYER
  5
43
100
AcDbSymbolTableRecord
100
AcDbLayerTableRecord
  2
Defpoints
 70
4
 62
7
420
16777215
  6
CONTINUOUS
290
0
370
-3
390
F
  0
LAYER
  5
44
100
AcDbSymbolTableRecord
100
AcDbLayerTableRecord
  2
Water - Surface
 70
4
 62
174
420
128
  6
CONTINUOUS
370
0
390
F
  0
LAYER
  5
45
100
AcDbSymbolTableRecord
100
AcDbLayerTableRecord
  2
NOC-DK-Radius
 70
5
 62
-134
420
32896
  6
CONTINUOUS
370
0
390
F
  0
LAYER
  5
46
100
AcDbSymbolTableRecord
100
AcDbLayerTableRecord
  2
Trees
 70
4
 62
3
420
65280
  6
CONTINUOUS
370
0
390
F
  0
LAYER
  5
47
100
AcDbSymbolTableRecord
100
AcDbLayerTableRecord
  2
Water infrastructure
 70
4
 62
4
420
65535
  6
CONTINUOUS
370
0
390
F
  0
LAYER
  5
48
100
AcDbSymbolTableRecord
100
AcDbLayerTableRecord
  2
Toilets
 70
4
 62
214
420
8388736
  6
CONTINUOUS
370
0
390
F
  0
LAYER
  5
49
100
AcDbSymbolTableRecord
100
AcDbLayerTableRecord
  2
Paths
 70
5
 62
-7
420
16777215
  6
CONTINUOUS
370
0
390
F
  0
LAYER
  5
10
100
AcDbSymbolTableRecord
100
AcDbLayerTableRecord
  2
0
 70
4
 62
7
420
16777215
  6
CONTINUOUS
370
-3
390
F
  0
LAYER
  5
4A
100
AcDbSymbolTableRecord
100
AcDbLayerTableRecord
  2
Roads
 70
4
 62
7
420
16777215
  6
CONTINUOUS
370
0
390
F
  0
LAYER
  5
4B
100
AcDbSymbolTableRecord
100
AcDbLayerTableRecord
  2
Power - Generator
 70
4
 62
6
420
16711935
  6
CONTINUOUS
370
0
390
F
  0
LAYER
  5
4C
100
AcDbSymbolTableRecord
100
AcDbLayerTableRecord
  2
Field-Letters
 70
0
 62
252
420
10526884
  6
CONTINUOUS
370
100
390
F
  0
LAYER
  5
4D
100
AcDbSymbolTableRecord
100
AcDbLayerTableRecord
  2
Fields
 70
4
 62
7
420
16777215
  6
CONTINUOUS
370
0
390
F
  0
LAYER
  5
4E
100
AcDbSymbolTableRecord
100
AcDbLayerTableRecord
  2
Perimeter
 70
4
 62
1
420
16711680
  6
CONTINUOUS
370
35
390
F
  0
LAYER
  5
4F
100
AcDbSymbolTableRecord
100
AcDbLayerTableRecord
  2
NOC-DK
 70
4
 62
134
420
32896
  6
DASHED2
370
0
390
F
  0
LAYER
  5
50
100
AcDbSymbolTableRecord
100
AcDbLayerTableRecord
  2
Road-Trackway
 70
4
 62
2
420
16776960
  6
CONTINUOUS
370
100
390
F
  0
LAYER
  5
51
100
AcDbSymbolTableRecord
100
AcDbLayerTableRecord
  2
Event Fields
 70
4
 62
7
420
16777215
  6
CONTINUOUS
370
0
390
F
  0
LAYER
  5
52
100
AcDbSymbolTableRecord
100
AcDbLayerTableRecord
  2
Tents
 70
4
 62
7
420
16777215
  6
CONTINUOUS
370
0
390
F
  0
LAYER
  5
53
100
AcDbSymbolTableRecord
100
AcDbLayerTableRecord
  2
Rivers
 70
4
 62
5
420
255
  6
CONTINUOUS
370
0
390
F
  0
LAYER
  5
54
100
AcDbSymbolTableRecord
100
AcDbLayerTableRecord
  2
Text
 70
4
 62
7
420
16777215
  6
CONTINUOUS
370
0
390
F
  0
LAYER
  5
55
100
AcDbSymbolTableRecord
100
AcDbLayerTableRecord
  2
Lighting-ExtFestoon
 70
4
 62
54
420
8421376
  6
DASHED2
370
0
390
F
  0
LAYER
  5
56
100
AcDbSymbolTableRecord
100
AcDbLayerTableRecord
  2
Footpaths
 70
4
 62
7
420
16777215
  6
CONTINUOUS
370
0
390
F
  0
ENDTAB
  0
TABLE
  2
STYLE
  5
3
100
AcDbSymbolTable
 70
24
  0
STYLE
  5
57
100
AcDbSymbolTableRecord
100
AcDbTextStyleTableRecord
  2
Standard
 70
0
 40
0.0
 41
1.0
 50
0.0
 71
0
 42
2.5
  3

  4

1001
ACAD
1000
txt
1071
0
  0
STYLE
  5
58
100
AcDbSymbolTableRecord
100
AcDbTextStyleTableRecord
  2
textstyle0
 70
0
 40
0.0
 41
1.0
 50
0.0
 71
0
 42
5.0
  3

  4

1001
ACAD
1000
standard
1071
0
  0
STYLE
  5
59
100
AcDbSymbolTableRecord
100
AcDbTextStyleTableRecord
  2
textstyle1
 70
0
 40
0.0
 41
1.0
 50
0.0
 71
0
 42
2.5
  3

  4

1001
ACAD
1000
standard
1071
0
  0
STYLE
  5
5A
100
AcDbSymbolTableRecord
100
AcDbTextStyleTableRecord
  2
textstyle2
 70
0
 40
0.0
 41
1.0
 50
0.0
 71
0
 42
5.0
  3

  4

1001
ACAD
1000
standard
1071
0
  0
STYLE
  5
5B
100
AcDbSymbolTableRecord
100
AcDbTextStyleTableRecord
  2
textstyle3
 70
0
 40
0.0
 41
1.0
 50
0.0
 71
0
 42
5.0
  3

  4

1001
ACAD
1000
standard
1071
0
  0
STYLE
  5
5C
100
AcDbSymbolTableRecord
100
AcDbTextStyleTableRecord
  2
textstyle4
 70
0
 40
0.0
 41
1.0
 50
0.0
 71
0
 42
5.0
  3

  4

1001
ACAD
1000
standard
1071
0
  0
STYLE
  5
5D
100
AcDbSymbolTableRecord
100
AcDbTextStyleTableRecord
  2
textstyle5
 70
0
 40
0.0
 41
1.0
 50
0.0
 71
0
 42
5.0
  3

  4

1001
ACAD
1000
standard
1071
0
  0
STYLE
  5
5E
100
AcDbSymbolTableRecord
100
AcDbTextStyleTableRecord
  2
textstyle6
 70
0
 40
0.0
 41
1.0
 50
0.0
 71
0
 42
5.0
  3

  4

1001
ACAD
1000
standard
1071
0
  0
STYLE
  5
5F
100
AcDbSymbolTableRecord
100
AcDbTextStyleTableRecord
  2
textstyle7
 70
0
 40
0.0
 41
1.0
 50
0.0
 71
0
 42
5.0
  3

  4

1001
ACAD
1000
standard
1071
0
  0
STYLE
  5
60
100
AcDbSymbolTableRecord
100
AcDbTextStyleTableRecord
  2
textstyle8
 70
0
 40
0.0
 41
1.0
 50
0.0
 71
0
 42
5.0
  3

  4

1001
ACAD
1000
standard
1071
0
  0
STYLE
  5
61
100
AcDbSymbolTableRecord
100
AcDbTextStyleTableRecord
  2
textstyle9
 70
0
 40
0.0
 41
1.0
 50
0.0
 71
0
 42
15.0
  3

  4

1001
ACAD
1000
Arial
1071
0
  0
STYLE
  5
62
100
AcDbSymbolTableRecord
100
AcDbTextStyleTableRecord
  2
textstyle10
 70
0
 40
0.0
 41
1.0
 50
0.0
 71
0
 42
15.0
  3

  4

1001
ACAD
1000
Arial
1071
0
  0
STYLE
  5
63
100
AcDbSymbolTableRecord
100
AcDbTextStyleTableRecord
  2
textstyle11
 70
0
 40
0.0
 41
1.0
 50
0.0
 71
0
 42
15.0
  3

  4

1001
ACAD
1000
Arial
1071
0
  0
STYLE
  5
64
100
AcDbSymbolTableRecord
100
AcDbTextStyleTableRecord
  2
textstyle12
 70
0
 40
0.0
 41
1.0
 50
0.0
 71
0
 42
15.0
  3

  4

1001
ACAD
1000
Arial
1071
0
  0
STYLE
  5
65
100
AcDbSymbolTableRecord
100
AcDbTextStyleTableRecord
  2
textstyle13
 70
0
 40
0.0
 41
1.0
 50
0.0
 71
0
 42
15.0
  3

  4

1001
ACAD
1000
Arial
1071
0
  0
STYLE
  5
66
100
AcDbSymbolTableRecord
100
AcDbTextStyleTableRecord
  2
textstyle14
 70
0
 40
0.0
 41
1.0
 50
0.0
 71
0
 42
15.0
  3

  4

1001
ACAD
1000
Arial
1071
0
  0
STYLE
  5
67
100
AcDbSymbolTableRecord
100
AcDbTextStyleTableRecord
  2
textstyle15
 70
0
 40
0.0
 41
1.0
 50
0.0
 71
0
 42
15.0
  3

  4

1001
ACAD
1000
Arial
1071
0
  0
STYLE
  5
68
100
AcDbSymbolTableRecord
100
AcDbTextStyleTableRecord
  2
textstyle16
 70
0
 40
0.0
 41
1.0
 50
0.0
 71
0
 42
15.0
  3

  4

1001
ACAD
1000
Arial
1071
0
  0
STYLE
  5
69
100
AcDbSymbolTableRecord
100
AcDbTextStyleTableRecord
  2
textstyle17
 70
0
 40
0.0
 41
1.0
 50
0.0
 71
0
 42
15.0
  3

  4

1001
ACAD
1000
Arial
1071
0
  0
STYLE
  5
6A
100
AcDbSymbolTableRecord
100
AcDbTextStyleTableRecord
  2
textstyle18
 70
0
 40
0.0
 41
1.0
 50
0.0
 71
0
 42
15.0
  3

  4

1001
ACAD
1000
Arial
1071
0
  0
STYLE
  5
6B
100
AcDbSymbolTableRecord
100
AcDbTextStyleTableRecord
  2
textstyle19
 70
0
 40
0.0
 41
1.0
 50
0.0
 71
0
 42
15.0
  3

  4

1001
ACAD
1000
Arial
1071
0
  0
STYLE
  5
6C
100
AcDbSymbolTableRecord
100
AcDbTextStyleTableRecord
  2
textstyle20
 70
0
 40
0.0
 41
1.0
 50
0.0
 71
0
 42
15.0
  3

  4

1001
ACAD
1000
Arial
1071
0
  0
STYLE
  5
6D
100
AcDbSymbolTableRecord
100
AcDbTextStyleTableRecord
  2
textstyle21
 70
0
 40
0.0
 41
1.0
 50
0.0
 71
0
 42
15.0
  3

  4

1001
ACAD
1000
Arial
1071
0
  0
STYLE
  5
6E
100
AcDbSymbolTableRecord
100
AcDbTextStyleTableRecord
  2
textstyle22
 70
0
 40
0.0
 41
1.0
 50
0.0
 71
0
 42
15.0
  3

  4

1001
ACAD
1000
Arial
1071
0
  0
ENDTAB
  0
TABLE
  2
VIEW
  5
6
100
AcDbSymbolTable
 70
0
  0
ENDTAB
  0
TABLE
  2
UCS
  5
7
100
AcDbSymbolTable
 70
0
  0
ENDTAB
  0
TABLE
  2
APPID
  5
9
100
AcDbSymbolTable
 70
1
  0
APPID
  5
12
100
AcDbSymbolTableRecord
100
AcDbRegAppTableRecord
  2
ACAD
 70
0
  0
APPID
  5
6F
100
AcDbSymbolTableRecord
100
AcDbRegAppTableRecord
  2
QCAD
 70
0
  0
ENDTAB
  0
TABLE
  2
DIMSTYLE
  5
A
100
AcDbSymbolTable
 70
1
100
AcDbDimStyleTable
 71
0
  0
DIMSTYLE
105
27
100
AcDbSymbolTableRecord
100
AcDbDimStyleTableRecord
  2
Standard
 41
0.18
 42
0.0625
 43
3.75
 44
0.18
 70
0
 73
0
 74
0
 77
1
 78
8
140
0.18
141
2.5
143
0.03937007874016
147
0.09
171
3
172
1
271
2
272
2
274
3
278
44
283
0
284
8
340
57
  0
ENDTAB
  0
TABLE
  2
BLOCK_RECORD
  5
1
100
AcDbSymbolTable
 70
1
  0
BLOCK_RECORD
  5
1F
100
AcDbSymbolTableRecord
100
AcDbBlockTableRecord
  2
*Model_Space
340
22
  0
BLOCK_RECORD
  5
1B
100
AcDbSymbolTableRecord
100
AcDbBlockTableRecord
  2
*Paper_Space
340
1E
  0
BLOCK_RECORD
  5
23
100
AcDbSymbolTableRecord
100
AcDbBlockTableRecord
  2
*Paper_Space0
340
26
  0
BLOCK_RECORD
  5
70
100
AcDbSymbolTableRecord
100
AcDbBlockTableRecord
  2
Toilets
340
0
  0
BLOCK_RECORD
  5
71
100
AcDbSymbolTableRecord
100
AcDbBlockTableRecord
  2
Generator6x6
340
0
  0
BLOCK_RECORD
  5
72
100
AcDbSymbolTableRecord
100
AcDbBlockTableRecord
  2
Datenklos5
340
0
  0
BLOCK_RECORD
  5
73
100
AcDbSymbolTableRecord
100
AcDbBlockTableRecord
  2
Tent 20x30
340
0
  0
BLOCK_RECORD
  5
74
100
AcDbSymbolTableRecord
100
AcDbBlockTableRecord
  2
Tent 5x5
340
0
  0
BLOCK_RECORD
  5
75
100
AcDbSymbolTableRecord
100
AcDbBlockTableRecord
  2
Tent 10x15
340
0
  0
ENDTAB
  0
ENDSEC
  0
SECTION
  2
BLOCKS
  0
BLOCK
  5
20
100
AcDbEntity
  8
0
100
AcDbBlockBegin
  2
*Model_Space
 70
0
 10
0.0
 20
0.0
 30
0.0
  3
*Model_Space
  1

  0
ENDBLK
  5
21
100
AcDbEntity
  8
0
100
AcDbBlockEnd
  0
BLOCK
  5
1C
100
AcDbEntity
 67
1
  8
0
100
AcDbBlockBegin
  2
*Paper_Space
 70
0
 10
0.0
 20
0.0
 30
0.0
  3
*Paper_Space
  1

  0
ENDBLK
  5
1D
100
AcDbEntity
 67
1
  8
0
100
AcDbBlockEnd
  0
BLOCK
  5
24
100
AcDbEntity
  8
0
100
AcDbBlockBegin
  2
*Paper_Space0
 70
0
 10
0.0
 20
0.0
 30
0.0
  3
*Paper_Space0
  1

  0
ENDBLK
  5
25
100
AcDbEntity
  8
0
100
AcDbBlockEnd
  0
BLOCK
  5
76
100
AcDbEntity
  8
0
100
AcDbBlockBegin
  2
Toilets
 70
0
 10
0.0
 20
0.0
 30
0.0
  3
Toilets
  1

  0
LINE
  5
77
100
AcDbEntity
100
AcDbLine
  8
Toilets
 62
256
370
-1
  6
BYLAYER
 10
0.0
 20
0.0
 30
0.0
 11
5.0
 21
0.0
 31
0.0
  0
LINE
  5
78
100
AcDbEntity
100
AcDbLine
  8
Toilets
 62
256
370
-1
  6
BYLAYER
 10
5.0
 20
0.0
 30
0.0
 11
5.0
 21
10.0
 31
0.0
  0
LINE
  5
79
100
AcDbEntity
100
AcDbLine
  8
Toilets
 62
256
370
-1
  6
BYLAYER
 10
5.0
 20
10.0
 30
0.0
 11
0.0
 21
10.0
 31
0.0
  0
LINE
  5
7A
100
AcDbEntity
100
AcDbLine
  8
Toilets
 62
256
370
-1
  6
BYLAYER
 10
0.0
 20
10.0
 30
0.0
 11
0.0
 21
0.0
 31
0.0
  0
ENDBLK
  5
7B
100
AcDbEntity
  8
0
100
AcDbBlockEnd
  0
BLOCK
  5
7C
100
AcDbEntity
  8
0
100
AcDbBlockBegin
  2
Generator6x6
 70
0
 10
0.0
 20
0.0
 30
0.0
  3
Generator6x6
  1

  0
HATCH
  5
7D
  8
Power - Generator
 62
256
370
-1
  6
BYLAYER
100
AcDbEntity
100
AcDbHatch
 10
0.0
 20
0.0
 30
0.0
210
0.0
220
0.0
230
1.0
  2
ANSI31
 70
0
 71
0
 91
1
 92
1
 93
4
 72
1
 10
-3.0
 20
3.0
 11
3.0
 21
3.0
 72
1
 10
3.0
 20
3.0
 11
3.0
 21
-3.0
 72
1
 10
3.0
 20
-3.0
 11
-3.0
 21
-3.0
 72
1
 10
-3.0
 20
-3.0
 11
-3.0
 21
3.0
 97
0
 75
0
 76
1
 52
0.0
 41
1.0
 77
0
 78
1
 53
45.0
 43
0.0
 44
0.0
 45
-0.0883883476483184
 46
0.0883883476483185
 79
0
 98
0
1001
ACAD
1010
0.0
1020
0.0
1030
0
  0
LINE
  5
7E
100
AcDbEntity
100
AcDbLine
  8
Power - Generator
 62
256
370
-1
  6
BYLAYER
 10
-3.0
 20
3.0
 30
0.0
 11
3.0
 21
3.0
 31
0.0
  0
LINE
  5
7F
100
AcDbEntity
100
AcDbLine
  8
Power - Generator
 62
256
370
-1
  6
BYLAYER
 10
3.0
 20
3.0
 30
0.0
 11
3.0
 21
-3.0
 31
0.0
  0
LINE
  5
80
100
AcDbEntity
100
AcDbLine
  8
Power - Generator
 62
256
370
-1
  6
BYLAYER
 10
3.0
 20
-3.0
 30
0.0
 11
-3.0
 21
-3.0
 31
0.0
  0
LINE
  5
81
100
AcDbEntity
100
AcDbLine
  8
Power - Generator
 62
256
370
-1
  6
BYLAYER
 10
-3.0
 20
-3.0
 30
0.0
 11
-3.0
 21
3.0
 31
0.0
  0
CIRCLE
  5
82
100
AcDbEntity
100
AcDbCircle
  8
Power - Generator
 62
256
370
-1
  6
DASHEDX2
 10
0.0
 20
0.0
 30
0.0
 40
10.0
  0
ENDBLK
  5
83
100
AcDbEntity
  8
0
100
AcDbBlockEnd
  0
BLOCK
  5
84
100
AcDbEntity
  8
0
100
AcDbBlockBegin
  2
Datenklos5
 70
0
 10
0.0
 20
0.0
 30
0.0
  3
Datenklos5
  1

  0
HATCH
  5
85
  8
NOC-DK
 62
256
370
-1
  6
BYLAYER
100
AcDbEntity
100
AcDbHatch
 10
0.0
 20
0.0
 30
0.0
210
0.0
220
0.0
230
1.0
  2
CONCRETE
 70
0
 71
0
 91
1
 92
1
 93
1
 72
2
 10
0.0
 20
0.0
 40
40.0
 50
0.0
 51
360.0
 73
1
 97
0
 75
0
 76
1
 52
0.0
 41
1.0
 77
0
 78
1
 53
45.0
 43
0.0
 44
0.0
 45
-0.0883883476483184
 46
0.0883883476483185
 79
0
 98
0
1001
ACAD
1010
0.0
1020
0.0
1030
0
  0
HATCH
  5
86
  8
NOC-DK
 62
256
370
-1
  6
BYLAYER
100
AcDbEntity
100
AcDbHatch
 10
0.0
 20
0.0
 30
0.0
210
0.0
220
0.0
230
1.0
  2
SOLID
 70
1
 71
0
 91
1
 92
1
 93
4
 72
1
 10
-1.0
 20
1.0
 11
1.0
 21
1.0
 72
1
 10
1.0
 20
1.0
 11
1.0
 21
-1.0
 72
1
 10
1.0
 20
-1.0
 11
-1.0
 21
-1.0
 72
1
 10
-1.0
 20
-1.0
 11
-1.0
 21
1.0
 97
0
 75
0
 76
1
 98
0
1001
ACAD
1010
0.0
1020
0.0
1030
0
  0
LINE
  5
87
100
AcDbEntity
100
AcDbLine
  8
NOC-DK
 62
256
370
-1
  6
BYLAYER
 10
-1.0
 20
1.0
 30
0.0
 11
1.0
 21
1.0
 31
0.0
  0
LINE
  5
88
100
AcDbEntity
100
AcDbLine
  8
NOC-DK
 62
256
370
-1
  6
BYLAYER
 10
1.0
 20
1.0
 30
0.0
 11
1.0
 21
-1.0
 31
0.0
  0
LINE
  5
89
100
AcDbEntity
100
AcDbLine
  8
NOC-DK
 62
256
370
-1
  6
BYLAYER
 10
1.0
 20
-1.0
 30
0.0
 11
-1.0
 21
-1.0
 31
0.0
  0
LINE
  5
8A
100
AcDbEntity
100
AcDbLine
  8
NOC-DK
 62
256
370
-1
  6
BYLAYER
 10
-1.0
 20
-1.0
 30
0.0
 11
-1.0
 21
1.0
 31
0.0
  0
CIRCLE
  5
8B
100
AcDbEntity
100
AcDbCircle
  8
NOC-DK-Radius
 62
256
370
-1
  6
BYLAYER
 10
0.0
 20
0.0
 30
0.0
 40
40.0
  0
ENDBLK
  5
8C
100
AcDbEntity
  8
0
100
AcDbBlockEnd
  0
BLOCK
  5
8D
100
AcDbEntity
  8
0
100
AcDbBlockBegin
  2
Tent 20x30
 70
0
 10
0.0
 20
0.0
 30
0.0
  3
Tent 20x30
  1

  0
LINE
  5
8E
100
AcDbEntity
100
AcDbLine
  8
Tents
 62
256
370
-1
  6
BYLAYER
 10
0.0
 20
0.0
 30
0.0
 11
20.0
 21
0.0
 31
0.0
  0
LINE
  5
8F
100
AcDbEntity
100
AcDbLine
  8
Tents
 62
256
370
-1
  6
BYLAYER
 10
20.0
 20
0.0
 30
0.0
 11
20.0
 21
30.0
 31
0.0
  0
LINE
  5
90
100
AcDbEntity
100
AcDbLine
  8
Tents
 62
256
370
-1
  6
BYLAYER
 10
20.0
 20
30.0
 30
0.0
 11
0.0
 21
30.0
 31
0.0
  0
LINE
  5
91
100
AcDbEntity
100
AcDbLine
  8
Tents
 62
256
370
-1
  6
BYLAYER
 10
0.0
 20
30.0
 30
0.0
 11
0.0
 21
0.0
 31
0.0
  0
ENDBLK
  5
92
100
AcDbEntity
  8
0
100
AcDbBlockEnd
  0
BLOCK
  5
93
100
AcDbEntity
  8
0
100
AcDbBlockBegin
  2
Tent 5x5
 70
0
 10
0.0
 20
0.0
 30
0.0
  3
Tent 5x5
  1

  0
LINE
  5
94
100
AcDbEntity
100
AcDbLine
  8
Tents
 62
256
370
-1
  6
BYLAYER
 10
5.0
 20
5.0
 30
0.0
 11
0.0
 21
5.0
 31
0.0
  0
LINE
  5
95
100
AcDbEntity
100
AcDbLine
  8
Tents
 62
256
370
-1
  6
BYLAYER
 10
0.0
 20
5.0
 30
0.0
 11
0.0
 21
0.0
 31
0.0
  0
LINE
  5
96
100
AcDbEntity
100
AcDbLine
  8
Tents
 62
256
370
-1
  6
BYLAYER
 10
0.0
 20
0.0
 30
0.0
 11
5.0
 21
0.0
 31
0.0
  0
LINE
  5
97
100
AcDbEntity
100
AcDbLine
  8
Tents
 62
256
370
-1
  6
BYLAYER
 10
5.0
 20
0.0
 30
0.0
 11
5.0
 21
5.0
 31
0.0
  0
ENDBLK
  5
98
100
AcDbEntity
  8
0
100
AcDbBlockEnd
  0
BLOCK
  5
99
100
AcDbEntity
  8
0
100
AcDbBlockBegin
  2
Tent 10x15
 70
0
 10
0.0
 20
0.0
 30
0.0
  3
Tent 10x15
  1

  0
LINE
  5
9A
100
AcDbEntity
100
AcDbLine
  8
Tents
 62
256
370
-1
  6
BYLAYER
 10
0.0
 20
10.0
 30
0.0
 11
0.0
 21
0.0
 31
0.0
  0
LINE
  5
9B
100
AcDbEntity
100
AcDbLine
  8
Tents
 62
256
370
-1
  6
BYLAYER
 10
0.0
 20
0.0
 30
0.0
 11
15.0
 21
0.0
 31
0.0
  0
LINE
  5
9C
100
AcDbEntity
100
AcDbLine
  8
Tents
 62
256
370
-1
  6
BYLAYER
 10
15.0
 20
0.0
 30
0.0
 11
15.0
 21
10.0
 31
0.0
  0
LINE
  5
9D
100
AcDbEntity
100
AcDbLine
  8
Tents
 62
256
370
-1
  6
BYLAYER
 10
15.0
 20
10.0
 30
0.0
 11
0.0
 21
10.0
 31
0.0
  0
ENDBLK
  5
9E
100
AcDbEntity
  8
0
100
AcDbBlockEnd
  0
ENDSEC
  0
SECTION
  2
ENTITIES
  0
LWPOLYLINE
  5
9F
  8
Water - Surface
 62
256
370
-1
  6
BYLAYER
100
AcDbEntity
100
AcDbPolyline
 90
22
 70
0
 10
482890.9048440000042319
 20
230491.8535489999921992
 30
0.0
 10
483001.8533799999859184
 20
230490.9358500000089407
 30
0.0
 10
483009.4017190000158735
 20
230490.3091950000089128
 30
0.0
 10
483014.8211310000042431
 20
230489.2712959999917075
 30
0.0
 10
483017.4898629999952391
 20
230487.4358939999947324
 30
0.0
 10
483013.7916950000217184
 20
230475.5952080000133719
 30
0.0
 10
483007.6875260000233538
 20
230457.3236439999891445
 30
0.0
 10
483005.2577690000180155
 20
230444.7520589999912772
 30
0.0
 10
483003.9055270000244491
 20
230427.8123520000081044
 30
0.0
 10
483002.7068040000158362
 20
230416.7648800000024494
 30
0.0
 10
482998.0762390000163577
 20
230415.6855630000063684
 30
0.0
 10
482987.2705089999944903
 20
230415.756972000002861
 30
0.0
 10
482956.8587650000117719
 20
230416.255211000010604
 30
0.0
 10
482921.6721690000267699
 20
230416.7998199999856297
 30
0.0
 10
482910.466813999984879
 20
230418.2432210000115447
 30
0.0
 10
482908.0617399999755435
 20
230419.3311929999908898
 30
0.0
 10
482906.3770539999823086
 20
230422.4361159999971278
 30
0.0
 10
482895.8662769999937154
 20
230450.2067880000104196
 30
0.0
 10
482885.9130480000167154
 20
230482.2471659999864642
 30
0.0
 10
482886.9500460000126623
 20
230487.9033749999944121
 30
0.0
 10
482888.5350880000041798
 20
230490.8117999999958556
 30
0.0
 10
482890.9048440000042319
 20
230491.8535489999921992
 30
0.0
  0
LWPOLYLINE
  5
A0
  8
Water - Surface
 62
256
370
-1
  6
BYLAYER
100
AcDbEntity
100
AcDbPolyline
 90
18
 70
0
 10
483324.7193940000142902
 20
230280.2593749999941792
 30
0.0
 10
483329.81862600002205
 20
230275.832858000008855
 30
0.0
 10
483326.0562580000259914
 20
230230.1544289999874309
 30
0.0
 10
483324.4429430000018328
 20
230206.3169679999991786
 30
0.0
 10
483315.9017999999923632
 20
230206.1747580000082962
 30
0.0
 10
483309.5798330000252463
 20
230208.5758909999858588
 30
0.0
 10
483308.7844889999832958
 20
230211.0690330000070389
 30
0.0
 10
483302.4166500000283122
 20
230216.2264260000083596
 30
0.0
 10
483300.3610919999773614
 20
230218.9492259999969974
 30
0.0
 10
483300.6382769999909215
 20
230232.4882619999989402
 30
0.0
 10
483300.1117840000079013
 20
230249.0215200000093319
 30
0.0
 10
483300.5266089999931864
 20
230254.2917840000009164
 30
0.0
 10
483302.7415959999780171
 20
230257.0856520000088494
 30
0.0
 10
483306.133363000000827
 20
230264.6611860000120942
 30
0.0
 10
483305.5516940000234172
 20
230269.4135750000132248
 30
0.0
 10
483309.4625469999737106
 20
230275.9951949999958742
 30
0.0
 10
483312.6531439999816939
 20
230280.5597410000045784
 30
0.0
 10
483324.7193940000142902
 20
230280.2593749999941792
 30
0.0
  0
LWPOLYLINE
  5
A1
  8
Fields
 62
256
370
-1
  6
BYLAYER
100
AcDbEntity
100
AcDbPolyline
 90
35
 70
0
 10
483062.8739439999917522
 20
230500.7202410000027157
 30
0.0
 10
483331.5254609999828972
 20
230475.1121700000076089
 30
0.0
 10
483415.6339639999787323
 20
230463.9823179999948479
 30
0.0
 10
483426.3596980000147596
 20
230453.634836000012001
 30
0.0
 10
483418.4204620000091381
 20
230417.4121509999968112
 30
0.0
 10
483370.6297410000115633
 20
230329.897607999999309
 30
0.0
 10
483346.8480320000089705
 20
230309.4508149999892339
 30
0.0
 10
483306.4114539999864064
 20
230293.2381830000085756
 30
0.0
 10
483288.205904999980703
 20
230269.8767489999881946
 30
0.0
 10
483285.9670879999757744
 20
230223.2211210000095889
 30
0.0
 10
483283.4112890000105835
 20
230195.608379999990575
 30
0.0
 10
483289.6405239999876358
 20
230183.6813710000133142
 30
0.0
 10
483296.9914170000120066
 20
230164.7550829999963753
 30
0.0
 10
483300.9505089999875054
 20
230138.2530219999898691
 30
0.0
 10
483297.7755250000045635
 20
230117.6475029999855906
 30
0.0
 10
483296.4767729999730363
 20
230105.0937280000071041
 30
0.0
 10
483028.017377000011038
 20
230080.0797500000044238
 30
0.0
 10
483013.8744469999801368
 20
230084.3567190000030678
 30
0.0
 10
482978.2599289999925531
 20
230080.2570570000098087
 30
0.0
 10
482961.0609139999723993
 20
230086.9899380000133533
 30
0.0
 10
482953.3416820000275038
 20
230097.8902860000089277
 30
0.0
 10
482950.9495689999894239
 20
230181.5647220000100788
 30
0.0
 10
482935.2913159999880008
 20
230246.9721509999944828
 30
0.0
 10
482912.2343850000179373
 20
230334.311760000011418
 30
0.0
 10
482895.1943880000035278
 20
230392.1755479999992531
 30
0.0
 10
482911.6656829999992624
 20
230398.9647690000128932
 30
0.0
 10
482993.7416530000045896
 20
230404.3354260000050999
 30
0.0
 10
483004.3467860000091605
 20
230406.709792000008747
 30
0.0
 10
483016.0423380000283942
 20
230408.0888269999995828
 30
0.0
 10
483025.6654010000056587
 20
230426.2936479999916628
 30
0.0
 10
483028.0074020000174642
 20
230434.4336070000135805
 30
0.0
 10
483034.2497970000258647
 20
230449.8424660000018775
 30
0.0
 10
483042.9313079999992624
 20
230461.4644540000008419
 30
0.0
 10
483054.4014980000210926
 20
230473.7628470000054222
 30
0.0
 10
483062.8739439999917522
 20
230500.7202410000027157
 30
0.0
  0
LWPOLYLINE
  5
A2
  8
Fields
 62
256
370
-1
  6
BYLAYER
100
AcDbEntity
100
AcDbPolyline
 90
50
 70
0
 10
483319.6871859999955632
 20
231095.4243959999876097
 30
0.0
 10
483409.2335040000034496
 20
231028.7544620000116993
 30
0.0
 10
483467.8800760000012815
 20
230977.1067749999929219
 30
0.0
 10
483584.8336489999783225
 20
230894.3556720000051428
 30
0.0
 10
483587.0439669999759644
 20
230882.3635570000042208
 30
0.0
 10
483579.684462999983225
 20
230871.7151730000041425
 30
0.0
 10
483572.7686920000123791
 20
230864.5826780000061262
 30
0.0
 10
483565.367283999978099
 20
230856.4396460000134539
 30
0.0
 10
483565.367283999978099
 20
230856.4396460000134539
 30
0.0
 10
483559.908326999982819
 20
230852.338763999985531
 30
0.0
 10
483548.4545609999913722
 20
230846.1329170000099111
 30
0.0
 10
483542.9872120000072755
 20
230842.5331209999858402
 30
0.0
 10
483543.7238440000219271
 20
230828.5113969999947585
 30
0.0
 10
483538.9596260000253096
 20
230812.8941310000082012
 30
0.0
 10
483531.6417430000146851
 20
230799.7402820000133943
 30
0.0
 10
483521.8705649999901652
 20
230783.0369139999966137
 30
0.0
 10
483505.2502090000198223
 20
230755.1923029999888968
 30
0.0
 10
483503.4498199999798089
 20
230742.6316639999859035
 30
0.0
 10
483498.6017640000209212
 20
230732.025034999998752
 30
0.0
 10
483496.1735479999915697
 20
230726.9722569999867119
 30
0.0
 10
483486.745610999991186
 20
230719.7977679999894463
 30
0.0
 10
483476.4132300000055693
 20
230706.5934680000063963
 30
0.0
 10
483479.0580949999857694
 20
230668.544144999992568
 30
0.0
 10
483475.23896099999547
 20
230626.3768039999995381
 30
0.0
 10
483472.1486509999958798
 20
230600.7621630000066943
 30
0.0
 10
483463.5404499999713153
 20
230574.554108999989694
 30
0.0
 10
483447.9405360000091605
 20
230545.723110999999335
 30
0.0
 10
483432.9681620000046678
 20
230509.3837660000135656
 30
0.0
 10
483429.4336420000181533
 20
230480.252412000001641
 30
0.0
 10
483424.9872989999712445
 20
230475.6670260000100825
 30
0.0
 10
483419.5779319999855943
 20
230468.5593299999891315
 30
0.0
 10
483395.396208000020124
 20
230472.1662559999967925
 30
0.0
 10
483186.4946450000279583
 20
230493.2501800000027288
 30
0.0
 10
483047.8319710000068881
 20
230507.0692170000111219
 30
0.0
 10
483034.4406329999910668
 20
230556.2497689999872819
 30
0.0
 10
483032.0454920000047423
 20
230565.070914999989327
 30
0.0
 10
483006.911727000027895
 20
230568.4618510000000242
 30
0.0
 10
483041.7946249999804422
 20
230612.6483019999868702
 30
0.0
 10
483068.1548820000025444
 20
230647.1121810000040568
 30
0.0
 10
483090.5315829999744892
 20
230673.6052769999951124
 30
0.0
 10
483100.4890119999763556
 20
230694.3210069999913685
 30
0.0
 10
483110.8738129999837838
 20
230719.5547990000050049
 30
0.0
 10
483120.4383619999862276
 20
230748.7846410000056494
 30
0.0
 10
483138.9037729999981821
 20
230786.6829490000091027
 30
0.0
 10
483157.1107230000197887
 20
230840.1143830000073649
 30
0.0
 10
483171.7399360000272281
 20
230866.9217739999876358
 30
0.0
 10
483171.9257590000052005
 20
230885.9708220000029542
 30
0.0
 10
483164.0989689999842085
 20
230903.3829820000100881
 30
0.0
 10
483172.3890230000251904
 20
230918.5569700000050943
 30
0.0
 10
483319.6871859999955632
 20
231095.4243959999876097
 30
0.0
  0
LWPOLYLINE
  5
A3
  8
Fields
 62
256
370
-1
  6
BYLAYER
100
AcDbEntity
100
AcDbPolyline
 90
76
 70
0
 10
484095.7124189999885857
 20
231068.0631149999971967
 30
0.0
 10
484113.2298520000185817
 20
231042.2954329999920446
 30
0.0
 10
484150.510606000025291
 20
230976.7639229999913368
 30
0.0
 10
484184.2758690000046045
 20
230911.1726389999967068
 30
0.0
 10
484220.4525680000078864
 20
230851.6358820000023115
 30
0.0
 10
484245.5152039999957196
 20
230825.4932900000130758
 30
0.0
 10
484267.1544059999869205
 20
230793.7795709999918472
 30
0.0
 10
484308.9687360000098124
 20
230727.8209600000118371
 30
0.0
 10
484331.1449090000241995
 20
230694.1109839999990072
 30
0.0
 10
484352.8105540000251494
 20
230660.8934949999966193
 30
0.0
 10
484373.4763430000166409
 20
230597.5845459999982268
 30
0.0
 10
484382.0468540000147186
 20
230566.150697000004584
 30
0.0
 10
484384.1916099999798462
 20
230558.1669300000066869
 30
0.0
 10
484328.1567400000058115
 20
230513.6136089999927208
 30
0.0
 10
484284.5203699999838136
 20
230478.7932279999949969
 30
0.0
 10
484263.1452820000122301
 20
230464.8993499999924097
 30
0.0
 10
484248.6011329999892041
 20
230463.1506809999991674
 30
0.0
 10
484239.5748899999889545
 20
230461.9962029999878723
 30
0.0
 10
484221.775428999972064
 20
230444.6538630000140984
 30
0.0
 10
484189.0134850000031292
 20
230420.5433980000088923
 30
0.0
 10
484120.3731370000168681
 20
230378.2855789999885019
 30
0.0
 10
484077.7137160000274889
 20
230344.9864029999880586
 30
0.0
 10
484047.5887370000127703
 20
230313.401718000008259
 30
0.0
 10
484035.5982189999776892
 20
230309.1901819999911822
 30
0.0
 10
484021.6485230000107549
 20
230301.9381540000031237
 30
0.0
 10
483998.5712499999790452
 20
230299.5456389999890234
 30
0.0
 10
483978.4874030000064522
 20
230298.4566420000046492
 30
0.0
 10
483959.7341069999965839
 20
230301.7874069999961648
 30
0.0
 10
483942.1162149999872781
 20
230309.6262299999943934
 30
0.0
 10
483913.7795390000101179
 20
230321.1814139999914914
 30
0.0
 10
483905.5813419999903999
 20
230330.5680240000074264
 30
0.0
 10
483878.3504919999977574
 20
230336.1266989999858197
 30
0.0
 10
483874.7580409999936819
 20
230340.5778780000109691
 30
0.0
 10
483875.6284590000286698
 20
230348.6127160000032745
 30
0.0
 10
483883.9677539999829605
 20
230360.7828549999976531
 30
0.0
 10
483893.1185800000093877
 20
230384.4956170000077691
 30
0.0
 10
483898.5525880000204779
 20
230390.1006000000052154
 30
0.0
 10
483903.5261959999916144
 20
230393.1915589999989606
 30
0.0
 10
483920.2063140000100248
 20
230387.4561399999947753
 30
0.0
 10
483927.8684290000237525
 20
230380.0657190000056289
 30
0.0
 10
483938.963333000021521
 20
230377.7455079999926966
 30
0.0
 10
483939.8924840000108816
 20
230382.2724549999984447
 30
0.0
 10
483940.2519800000009127
 20
230390.7999340000096709
 30
0.0
 10
483935.0934649999835528
 20
230398.7335749999911059
 30
0.0
 10
483924.9866010000114329
 20
230402.0728740000049584
 30
0.0
 10
483902.1684859999804758
 20
230414.2217039999959525
 30
0.0
 10
483887.4644720000214875
 20
230421.9953089999908116
 30
0.0
 10
483875.6488970000064
 20
230437.336209000000963
 30
0.0
 10
483871.9893220000085421
 20
230445.7962169999955222
 30
0.0
 10
483857.804640999995172
 20
230452.5760489999956917
 30
0.0
 10
483808.7029270000057295
 20
230473.8085549999959767
 30
0.0
 10
483799.1490520000224933
 20
230474.1497969999909401
 30
0.0
 10
483790.7426199999754317
 20
230465.9889770000008866
 30
0.0
 10
483788.2893850000109524
 20
230462.4391239999968093
 30
0.0
 10
483773.7954380000010133
 20
230457.6851620000088587
 30
0.0
 10
483770.7810659999959171
 20
230457.6346959999937098
 30
0.0
 10
483766.7619030000059865
 20
230457.5674109999963548
 30
0.0
 10
483733.9384870000067167
 20
230467.0430969999870285
 30
0.0
 10
483713.6247340000118129
 20
230479.7357579999952577
 30
0.0
 10
483707.5373350000008941
 20
230483.1426769999961834
 30
0.0
 10
483713.673774000024423
 20
230536.8789099999994505
 30
0.0
 10
483722.6322069999878295
 20
230572.1158730000024661
 30
0.0
 10
483738.0962919999728911
 20
230608.965200000006007
 30
0.0
 10
483744.4594960000249557
 20
230619.0964589999930467
 30
0.0
 10
483751.9867949999752454
 20
230619.7236869999906048
 30
0.0
 10
483761.2971169999800622
 20
230633.9141710000112653
 30
0.0
 10
483763.0885189999826252
 20
230646.9762850000115577
 30
0.0
 10
483763.7912709999945946
 20
230665.0324740000069141
 30
0.0
 10
483770.0788440000033006
 20
230679.6734789999900386
 30
0.0
 10
483788.5480540000135079
 20
230717.0737460000091232
 30
0.0
 10
483802.5448409999953583
 20
230781.4649450000142679
 30
0.0
 10
483803.1550970000098459
 20
230805.0325299999967683
 30
0.0
 10
483805.5493939999723807
 20
230812.0897009999898728
 30
0.0
 10
483811.8954060000251047
 20
230823.2228009999962524
 30
0.0
 10
483816.3662679999833927
 20
230826.3050020000082441
 30
0.0
 10
484095.7124189999885857
 20
231068.0631149999971967
 30
0.0
  0
LWPOLYLINE
  5
A4
  8
Fields
 62
256
370
-1
  6
BYLAYER
100
AcDbEntity
100
AcDbPolyline
 90
52
 70
0
 10
483439.1248229999910109
 20
230456.6045689999882597
 30
0.0
 10
483539.3062110000173561
 20
230430.9577580000041053
 30
0.0
 10
483650.9225369999767281
 20
230397.7344140000059269
 30
0.0
 10
483694.5604540000203997
 20
230387.6870179999968968
 30
0.0
 10
483737.1098900000215508
 20
230382.6343739999865647
 30
0.0
 10
483786.4298050000215881
 20
230363.4094610000029206
 30
0.0
 10
483784.3367960000177845
 20
230353.3491400000057183
 30
0.0
 10
483762.0784250000142492
 20
230272.0216810000129044
 30
0.0
 10
483759.6879820000031032
 20
230264.7132149999961257
 30
0.0
 10
483761.0153189999982715
 20
230260.4746100000047591
 30
0.0
 10
483764.8421530000050552
 20
230257.029750999994576
 30
0.0
 10
483771.4280850000213832
 20
230253.8817179999896325
 30
0.0
 10
483825.6356960000121035
 20
230227.9712280000094324
 30
0.0
 10
483883.3650299999862909
 20
230201.8695590000133961
 30
0.0
 10
483909.9396159999887459
 20
230190.5349979999882635
 30
0.0
 10
483913.2809920000145212
 20
230186.0794950000126846
 30
0.0
 10
483913.0886039999895729
 20
230182.5672970000014175
 30
0.0
 10
483910.1664979999768548
 20
230177.0041959999944083
 30
0.0
 10
483879.6664350000210106
 20
230152.6819010000035632
 30
0.0
 10
483869.7270980000030249
 20
230145.998606999986805
 30
0.0
 10
483863.2039469999726862
 20
230145.3880000000062864
 30
0.0
 10
483850.6810609999811277
 20
230142.9223699999856763
 30
0.0
 10
483837.400324999995064
 20
230140.6947159999981523
 30
0.0
 10
483828.4447790000122041
 20
230135.2811890000011772
 30
0.0
 10
483819.7907910000067204
 20
230126.8650020000059158
 30
0.0
 10
483817.5928139999741688
 20
230123.068533000012394
 30
0.0
 10
483814.9511589999892749
 20
230115.7556169999879785
 30
0.0
 10
483814.2688579999958165
 20
230111.4832379999861587
 30
0.0
 10
483810.5887579999980517
 20
230106.1580719999910798
 30
0.0
 10
483761.326225999975577
 20
230076.7597400000086054
 30
0.0
 10
483721.2869359999895096
 20
230051.7770380000001751
 30
0.0
 10
483701.2484030000050552
 20
230032.8939330000139307
 30
0.0
 10
483689.3616959999781102
 20
230022.4185639999923296
 30
0.0
 10
483683.1398679999983869
 20
230018.8054420000116806
 30
0.0
 10
483668.0960099999792874
 20
230016.7993680000072345
 30
0.0
 10
483653.4624319999711588
 20
230020.3144650000031106
 30
0.0
 10
483634.5707089999923483
 20
230023.006494000001112
 30
0.0
 10
483539.8823640000191517
 20
230050.2494280000100844
 30
0.0
 10
483447.527074999990873
 20
230073.2718950000125915
 30
0.0
 10
483350.0607259999960661
 20
230101.4743169999856036
 30
0.0
 10
483333.1750519999768585
 20
230104.4514759999874514
 30
0.0
 10
483330.5877960000070743
 20
230108.9199760000046808
 30
0.0
 10
483327.9680410000146367
 20
230130.4316340000077616
 30
0.0
 10
483335.6297149999882095
 20
230198.482810999994399
 30
0.0
 10
483339.5380809999769554
 20
230235.3916800000006333
 30
0.0
 10
483336.830710000009276
 20
230262.1646849999960978
 30
0.0
 10
483361.6983420000178739
 20
230307.9437470000120811
 30
0.0
 10
483378.1241090000257827
 20
230332.5287989999924321
 30
0.0
 10
483396.0444010000210255
 20
230357.8905920000106562
 30
0.0
 10
483412.6709120000014082
 20
230385.4864309999975376
 30
0.0
 10
483431.579464000009466
 20
230426.9047729999874718
 30
0.0
 10
483439.1248229999910109
 20
230456.6045689999882597
 30
0.0
  0
LWPOLYLINE
  5
A5
  8
Fields
 62
256
370
-1
  6
BYLAYER
100
AcDbEntity
100
AcDbPolyline
 90
46
 70
0
 10
483591.1632489999756217
 20
230876.4178480000118725
 30
0.0
 10
483688.005308999971021
 20
230824.6574900000123307
 30
0.0
 10
483694.2389710000134073
 20
230812.48193499998888
 30
0.0
 10
483729.2749429999967106
 20
230790.7638830000068992
 30
0.0
 10
483790.408980000007432
 20
230770.9866350000083912
 30
0.0
 10
483786.5039059999980964
 20
230749.1180049999966286
 30
0.0
 10
483774.783238000003621
 20
230713.8358840000000782
 30
0.0
 10
483752.0143820000230335
 20
230678.1179880000127014
 30
0.0
 10
483752.1905239999759942
 20
230667.5950580000062473
 30
0.0
 10
483752.0483770000282675
 20
230661.0766479999874718
 30
0.0
 10
483748.7372430000104941
 20
230648.7409899999911431
 30
0.0
 10
483745.5850230000214651
 20
230641.921556999994209
 30
0.0
 10
483738.9371169999940321
 20
230633.7905209999880753
 30
0.0
 10
483728.4336749999783933
 20
230615.8208330000052229
 30
0.0
 10
483719.140335000003688
 20
230585.590968000004068
 30
0.0
 10
483705.4595340000232682
 20
230547.2676360000041313
 30
0.0
 10
483700.0469990000128746
 20
230510.3354819999949541
 30
0.0
 10
483695.9492929999832995
 20
230454.8787019999872427
 30
0.0
 10
483692.4293130000005476
 20
230394.9196449999872129
 30
0.0
 10
483679.0695790000027046
 20
230397.4531420000130311
 30
0.0
 10
483633.1249149999930523
 20
230410.2190140000020619
 30
0.0
 10
483550.3045760000240989
 20
230434.3995479999866802
 30
0.0
 10
483485.709244999976363
 20
230450.6146709999884479
 30
0.0
 10
483473.5263520000153221
 20
230457.9302150000003166
 30
0.0
 10
483463.3196379999862984
 20
230467.2837449999933597
 30
0.0
 10
483449.0687460000044666
 20
230478.0735810000041965
 30
0.0
 10
483431.3805479999864474
 20
230484.0442479999910574
 30
0.0
 10
483435.3082960000028834
 20
230504.6609360000002198
 30
0.0
 10
483455.4178250000113621
 20
230549.3565219999873079
 30
0.0
 10
483469.7575460000080056
 20
230578.4171220000134781
 30
0.0
 10
483482.1715560000156984
 20
230617.4702150000084657
 30
0.0
 10
483485.8983119999757037
 20
230650.112671999988379
 30
0.0
 10
483486.0286210000049323
 20
230672.4196820000070147
 30
0.0
 10
483488.9303300000028685
 20
230694.2716089999885298
 30
0.0
 10
483491.5177779999794438
 20
230704.8405830000119749
 30
0.0
 10
483503.3405049999710172
 20
230719.0722449999884702
 30
0.0
 10
483510.5331320000113919
 20
230739.7425400000065565
 30
0.0
 10
483517.4745140000013635
 20
230760.4085680000134744
 30
0.0
 10
483526.9862069999799132
 20
230777.6088879999879282
 30
0.0
 10
483542.3630150000099093
 20
230804.6808650000020862
 30
0.0
 10
483549.6139209999819286
 20
230821.8433340000046883
 30
0.0
 10
483549.3796299999812618
 20
230835.8734650000114925
 30
0.0
 10
483558.2086620000191033
 20
230848.8018809999921359
 30
0.0
 10
483572.8816859999787994
 20
230857.8181939999922179
 30
0.0
 10
483586.1941310000256635
 20
230873.0769530000106897
 30
0.0
 10
483591.1632489999756217
 20
230876.4178480000118725
 30
0.0
  0
LWPOLYLINE
  5
A6
  8
Fields
 62
256
370
-1
  6
BYLAYER
100
AcDbEntity
100
AcDbPolyline
 90
40
 70
0
 10
482784.6305370000191033
 20
230948.6822960000135936
 30
0.0
 10
482807.5991940000094473
 20
230942.2961929999873973
 30
0.0
 10
482840.7788980000186712
 20
230941.3418670000100974
 30
0.0
 10
482888.5017489999881946
 20
230942.132287999993423
 30
0.0
 10
482928.9405830000177957
 20
230942.8024220000079367
 30
0.0
 10
482974.6457359999767505
 20
230944.0614240000140853
 30
0.0
 10
482988.9792100000195205
 20
230943.296758000011323
 30
0.0
 10
483010.0278510000207461
 20
230946.653160999994725
 30
0.0
 10
483037.5612119999714196
 20
230952.8738840000005439
 30
0.0
 10
483048.8348600000026636
 20
230954.8152140000020154
 30
0.0
 10
483061.3602020000107586
 20
230957.0279499999887776
 30
0.0
 10
483074.7191079999902286
 20
230924.1703820000111591
 30
0.0
 10
483079.7535079999943264
 20
230908.466019999992568
 30
0.0
 10
483081.2839640000020154
 20
230891.9516139999905135
 30
0.0
 10
483082.6214969999855384
 20
230871.9254840000066906
 30
0.0
 10
483082.3230019999900833
 20
230859.6408790000132285
 30
0.0
 10
483080.9532289999770001
 20
230851.3481489999976475
 30
0.0
 10
483079.0519729999941774
 20
230844.8008240000053775
 30
0.0
 10
483077.1049520000233315
 20
230841.0094009999884292
 30
0.0
 10
483029.9891300000017509
 20
230848.9984889999905135
 30
0.0
 10
483004.1552399999927729
 20
230846.3143810000037774
 30
0.0
 10
482968.9363410000223666
 20
230848.9880929999926593
 30
0.0
 10
482939.5693259999970905
 20
230847.2481550000084098
 30
0.0
 10
482901.3405009999987669
 20
230849.6218400000070687
 30
0.0
 10
482879.4507020000019111
 20
230851.5146309999981895
 30
0.0
 10
482855.8317239999887533
 20
230851.6246439999958966
 30
0.0
 10
482846.2786850000265986
 20
230851.9676610000024084
 30
0.0
 10
482813.5734950000187382
 20
230839.3971529999980703
 30
0.0
 10
482790.8489580000168644
 20
230831.0016780000005383
 30
0.0
 10
482761.6724389999872074
 20
230817.7380399999965448
 30
0.0
 10
482749.937465000024531
 20
230813.2836229999957141
 30
0.0
 10
482738.9021480000228621
 20
230812.0986930000071879
 30
0.0
 10
482751.8308730000280775
 20
230820.3319290000072215
 30
0.0
 10
482754.8284449999919161
 20
230821.383934000012232
 30
0.0
 10
482762.2519159999792464
 20
230828.2730980000051204
 30
0.0
 10
482767.6684430000022985
 20
230850.1653949999890756
 30
0.0
 10
482764.4968249999801628
 20
230859.6359159999992698
 30
0.0
 10
482750.582641999993939
 20
230865.4202710000099614
 30
0.0
 10
482767.0699790000217035
 20
230901.529290000005858
 30
0.0
 10
482784.6305370000191033
 20
230948.6822960000135936
 30
0.0
  0
LWPOLYLINE
  5
A7
  8
Fields
 62
256
370
-1
  6
BYLAYER
100
AcDbEntity
100
AcDbPolyline
 90
41
 70
0
 10
484049.5008200000156648
 20
230309.8936169999942649
 30
0.0
 10
484067.7081919999909587
 20
230273.1053649999957997
 30
0.0
 10
484095.9558780000079423
 20
230192.1223820000013802
 30
0.0
 10
484121.0382300000055693
 20
230120.1082149999856483
 30
0.0
 10
484118.9626220000209287
 20
230109.0449549999902956
 30
0.0
 10
484107.8194299999740906
 20
230084.2943849999865051
 30
0.0
 10
484100.9748600000166334
 20
230072.9002589999872725
 30
0.0
 10
484098.6311250000144355
 20
230062.8349900000030175
 30
0.0
 10
484101.031048999982886
 20
230054.6039520000049379
 30
0.0
 10
484102.9495979999774136
 20
230045.1115719999943394
 30
0.0
 10
484106.8610619999817573
 20
230036.6552619999856688
 30
0.0
 10
484109.7986089999903925
 20
230011.3890560000145342
 30
0.0
 10
484104.7335420000017621
 20
229998.7714200000045821
 30
0.0
 10
484032.8494530000025406
 20
230014.6080669999937527
 30
0.0
 10
484027.075598000024911
 20
230014.2604690000007395
 30
0.0
 10
483829.2012460000114515
 20
229825.7087560000072699
 30
0.0
 10
483820.6006870000273921
 20
229829.0739250000042375
 30
0.0
 10
483815.354248000017833
 20
229827.2314509999996517
 30
0.0
 10
483808.4205339999753051
 20
229821.0995310000143945
 30
0.0
 10
483797.0024229999980889
 20
229812.636597000004258
 30
0.0
 10
483780.4007190000265837
 20
229798.5723890000081155
 30
0.0
 10
483754.3775490000261925
 20
229791.8703359999926761
 30
0.0
 10
483751.3627749999868684
 20
229791.8198860000120476
 30
0.0
 10
483746.823841999983415
 20
229792.7465730000112671
 30
0.0
 10
483736.9461679999949411
 20
229797.3438369999930728
 30
0.0
 10
483627.1582540000090376
 20
229900.7841009999974631
 30
0.0
 10
483629.1136239999905229
 20
229904.0752809999976307
 30
0.0
 10
483639.665047999995295
 20
229919.2908379999862518
 30
0.0
 10
483674.8903559999889694
 20
229976.7776840000005905
 30
0.0
 10
483684.959993000025861
 20
229990.7318249999952968
 30
0.0
 10
483703.3782779999892227
 20
230016.3554339999973308
 30
0.0
 10
483711.5176399999763817
 20
230025.5149239999882411
 30
0.0
 10
483724.6603890000260435
 20
230036.0113560000027064
 30
0.0
 10
483750.221423999988474
 20
230055.2376109999895561
 30
0.0
 10
483809.8926460000220686
 20
230093.3321960000030231
 30
0.0
 10
483899.2465599999995902
 20
230159.4955009999976028
 30
0.0
 10
483941.57767500000773
 20
230197.5509219999948982
 30
0.0
 10
483997.9999359999783337
 20
230249.377409999986412
 30
0.0
 10
484037.9579970000195317
 20
230294.5214740000083111
 30
0.0
 10
484042.211976999999024
 20
230305.1111570000066422
 30
0.0
 10
484049.5008200000156648
 20
230309.8936169999942649
 30
0.0
  0
LWPOLYLINE
  5
A8
  8
Fields
 62
256
370
-1
  6
BYLAYER
100
AcDbEntity
100
AcDbPolyline
 90
47
 70
0
 10
482916.4769710000255145
 20
230265.9279460000107065
 30
0.0
 10
482926.8968769999919459
 20
230228.5052750000031665
 30
0.0
 10
482934.9937459999928251
 20
230194.8034150000021327
 30
0.0
 10
482937.9149300000281073
 20
230155.000196999986656
 30
0.0
 10
482939.1731639999779873
 20
230109.404329000011785
 30
0.0
 10
482936.7773329999763519
 20
230072.0187570000125561
 30
0.0
 10
482940.4355629999772646
 20
230063.5574710000073537
 30
0.0
 10
482946.2716999999829568
 20
230060.145170000003418
 30
0.0
 10
482954.5161799999768846
 20
230063.0389169999980368
 30
0.0
 10
482967.7600659999880008
 20
230067.5194260000134818
 30
0.0
 10
483007.6952399999718182
 20
230068.6829480000014883
 30
0.0
 10
483008.6982660000212491
 20
230053.6608830000041053
 30
0.0
 10
483008.1718230000115
 20
229994.4994909999950323
 30
0.0
 10
482996.0637519999872893
 20
229966.977935000002617
 30
0.0
 10
482977.3262339999782853
 20
229930.0722470000036992
 30
0.0
 10
482952.2268550000153482
 20
229882.7841250000055879
 30
0.0
 10
482946.1746169999823906
 20
229868.8978390000120271
 30
0.0
 10
482939.7340780000085942
 20
229863.2767009999952279
 30
0.0
 10
482930.743880000023637
 20
229859.869211000012001
 30
0.0
 10
482923.0181100000045262
 20
229855.9813750000030268
 30
0.0
 10
482919.5237089999718592
 20
229839.3802180000056978
 30
0.0
 10
482917.5097299999906681
 20
229839.5975069999985863
 30
0.0
 10
482911.9661019999766722
 20
229840.5082899999979418
 30
0.0
 10
482905.8951130000059493
 20
229842.9142770000034943
 30
0.0
 10
482902.0312220000196248
 20
229848.6153500000073109
 30
0.0
 10
482897.1748810000135563
 20
229853.548015000007581
 30
0.0
 10
482893.5746860000072047
 20
229858.5014840000076219
 30
0.0
 10
482887.9895830000168644
 20
229861.9181500000122469
 30
0.0
 10
482720.592140999971889
 20
229879.2008959999948274
 30
0.0
 10
482717.7706699999980628
 20
229882.6634109999868087
 30
0.0
 10
482713.6806489999871701
 20
229886.8569180000049528
 30
0.0
 10
482709.2938570000114851
 20
229893.8027000000001863
 30
0.0
 10
482658.8633760000229813
 20
229995.4854249999916647
 30
0.0
 10
482634.2278679999872111
 20
230041.6988129999954253
 30
0.0
 10
482622.1930919999722391
 20
230055.2855759999947622
 30
0.0
 10
482625.1746039999998175
 20
230057.3399560000107158
 30
0.0
 10
482632.6490600000252016
 20
230061.2230299999937415
 30
0.0
 10
482662.6543809999711812
 20
230070.2404530000058003
 30
0.0
 10
482757.4246890000067651
 20
230113.6640999999945052
 30
0.0
 10
482768.3910959999775514
 20
230119.1089389999979176
 30
0.0
 10
482773.0108200000249781
 20
230128.459078000014415
 30
0.0
 10
482773.0838210000074469
 20
230139.2378439999883994
 30
0.0
 10
482778.2556789999944158
 20
230145.5894010000047274
 30
0.0
 10
482818.3366960000130348
 20
230198.6361129999859259
 30
0.0
 10
482836.8995650000288151
 20
230215.7360570000018924
 30
0.0
 10
482859.8116809999919496
 20
230228.1459409999952186
 30
0.0
 10
482916.4769710000255145
 20
230265.9279460000107065
 30
0.0
  0
LWPOLYLINE
  5
A9
  8
Fields
 62
256
370
-1
  6
BYLAYER
100
AcDbEntity
100
AcDbPolyline
 90
54
 70
0
 10
483024.9211190000060014
 20
230075.4854549999872688
 30
0.0
 10
483287.3933059999835677
 20
230097.8931940000038594
 30
0.0
 10
483306.0082829999737442
 20
230096.6991709999856539
 30
0.0
 10
483322.1444890000275336
 20
230093.4587919999903534
 30
0.0
 10
483342.2584439999773167
 20
230092.7911479999893345
 30
0.0
 10
483354.3334969999850728
 20
230091.9896810000063851
 30
0.0
 10
483669.3841419999953359
 20
230005.5103700000036042
 30
0.0
 10
483667.0646430000197142
 20
229993.9417130000074394
 30
0.0
 10
483649.4877119999728166
 20
229963.0685229999944568
 30
0.0
 10
483624.5161990000051446
 20
229923.5494480000052135
 30
0.0
 10
483610.7574199999799021
 20
229904.7711959999869578
 30
0.0
 10
483590.4582800000207499
 20
229886.3849829999962822
 30
0.0
 10
483539.634751999983564
 20
229859.9695040000078734
 30
0.0
 10
483479.2639970000018366
 20
229833.3951710000110324
 30
0.0
 10
483434.8878009999752976
 20
229812.1012399999890476
 30
0.0
 10
483414.0350699999835342
 20
229796.7141300000075717
 30
0.0
 10
483401.7073790000285953
 20
229782.4717579999996815
 30
0.0
 10
483388.5500449999817647
 20
229757.6878060000017285
 30
0.0
 10
483364.7990139999892563
 20
229735.2339299999875948
 30
0.0
 10
483346.9689089999883436
 20
229719.3959080000058748
 30
0.0
 10
483302.5601899999892339
 20
229609.3664419999986421
 30
0.0
 10
483297.1997270000283606
 20
229599.2504929999995511
 30
0.0
 10
483289.8126330000231974
 20
229590.1034809999982826
 30
0.0
 10
483279.2771860000211746
 20
229588.9255000000121072
 30
0.0
 10
483230.142271000018809
 20
229581.5908129999879748
 30
0.0
 10
483219.1209789999993518
 20
229579.4022009999898728
 30
0.0
 10
483198.5191699999850243
 20
229579.0597100000013597
 30
0.0
 10
483165.8244529999792576
 20
229580.5217129999946337
 30
0.0
 10
483141.1278600000077859
 20
229584.6234680000052322
 30
0.0
 10
483122.3945069999899715
 20
229592.8350670000072569
 30
0.0
 10
483102.0455959999817424
 20
229607.5372649999917485
 30
0.0
 10
483093.3203809999977238
 20
229618.4217789999966044
 30
0.0
 10
483091.6382149999844842
 20
229628.9218680000049062
 30
0.0
 10
483084.9645649999729358
 20
229637.3337440000032075
 30
0.0
 10
483072.1863550000125542
 20
229650.1562740000081249
 30
0.0
 10
483066.9952369999955408
 20
229660.0967339999915566
 30
0.0
 10
483060.6993830000283197
 20
229676.0347919999912847
 30
0.0
 10
483047.4521250000107102
 20
229686.8441870000096969
 30
0.0
 10
483040.3925690000178292
 20
229688.2310379999980796
 30
0.0
 10
483026.2069570000167005
 20
229695.0142789999954402
 30
0.0
 10
483017.1292220000177622
 20
229696.8690089999872725
 30
0.0
 10
483010.9831949999788776
 20
229703.7856350000074599
 30
0.0
 10
483001.4566609999747016
 20
229732.7044469999964349
 30
0.0
 10
482994.9283999999752268
 20
229762.6754629999923054
 30
0.0
 10
482983.6165799999726005
 20
229778.0287850000022445
 30
0.0
 10
482974.7922080000280403
 20
229794.9272690000070725
 30
0.0
 10
482962.5792929999879561
 20
229834.3286509999888949
 30
0.0
 10
482958.0030479999841191
 20
229867.8406160000013188
 30
0.0
 10
482965.2989240000024438
 20
229882.4994989999977406
 30
0.0
 10
482988.19118600001093
 20
229926.4926240000058897
 30
0.0
 10
483017.9343530000187457
 20
229981.6276939999952447
 30
0.0
 10
483020.9978099999716505
 20
230039.3274540000129491
 30
0.0
 10
483019.3325419999891892
 20
230048.8243730000103824
 30
0.0
 10
483024.9211190000060014
 20
230075.4854549999872688
 30
0.0
  0
LWPOLYLINE
  5
AA
  8
Fields
 62
256
370
-1
  6
BYLAYER
100
AcDbEntity
100
AcDbPolyline
 90
50
 70
0
 10
482837.2022560000186786
 20
230510.5127959999954328
 30
0.0
 10
482844.9330620000255294
 20
230498.8615249999857042
 30
0.0
 10
482871.4075559999910183
 20
230432.6337910000002012
 30
0.0
 10
482897.4570420000236481
 20
230346.5984790000075009
 30
0.0
 10
482914.3373370000044815
 20
230283.2175810000044294
 30
0.0
 10
482913.2390669999876991
 20
230273.6752919999998994
 30
0.0
 10
482907.5692510000080802
 20
230267.064860000013141
 30
0.0
 10
482880.914217000012286
 20
230253.0890359999903012
 30
0.0
 10
482853.0776690000202507
 20
230234.5823139999993145
 30
0.0
 10
482832.8708009999827482
 20
230225.7261660000076517
 30
0.0
 10
482818.1217169999727048
 20
230205.9323739999963436
 30
0.0
 10
482791.0606949999928474
 20
230170.8965270000044256
 30
0.0
 10
482772.4037760000210255
 20
230144.2707229999941774
 30
0.0
 10
482751.0823739999905229
 20
230130.7102320000121836
 30
0.0
 10
482717.4153090000036173
 20
230117.7210210000048392
 30
0.0
 10
482685.5930739999748766
 20
230121.0298910000128672
 30
0.0
 10
482649.1516999999876134
 20
230106.1413459999894258
 30
0.0
 10
482632.1281839999719523
 20
230087.0620460000063758
 30
0.0
 10
482628.6081799999810755
 20
230071.9653289999987464
 30
0.0
 10
482619.6678049999754876
 20
230065.5516289999941364
 30
0.0
 10
482605.1013650000095367
 20
230065.0605290000094101
 30
0.0
 10
482581.9945600000210106
 20
230049.1392310000082944
 30
0.0
 10
482541.3973750000004657
 20
230027.1646459999901708
 30
0.0
 10
482499.7412609999882989
 20
230008.431259000004502
 30
0.0
 10
482433.8727369999978691
 20
229995.0641760000144131
 30
0.0
 10
482422.2629559999913909
 20
229998.1313699999882374
 30
0.0
 10
482413.3175760000012815
 20
230007.2579810000024736
 30
0.0
 10
482383.4455830000224523
 20
230066.4196389999997336
 30
0.0
 10
482348.1256220000213943
 20
230136.017985000013141
 30
0.0
 10
482346.88162800000282
 20
230150.5346060000010766
 30
0.0
 10
482358.5683510000235401
 20
230188.5732929999940097
 30
0.0
 10
482372.8209769999957643
 20
230208.1069079999870155
 30
0.0
 10
482382.8936940000276081
 20
230222.0576989999972284
 30
0.0
 10
482409.5419649999821559
 20
230236.53204600000754
 30
0.0
 10
482417.477457000000868
 20
230242.9286039999860805
 30
0.0
 10
482431.8328830000245944
 20
230256.1980390000098851
 30
0.0
 10
482452.7897849999717437
 20
230265.3154799999902025
 30
0.0
 10
482486.4920479999855161
 20
230278.6531970000069123
 30
0.0
 10
482542.520665000018198
 20
230324.6908199999888893
 30
0.0
 10
482599.8279880000045523
 20
230384.5343599999905564
 30
0.0
 10
482624.9114590000244789
 20
230432.818197999993572
 30
0.0
 10
482644.4002430000109598
 20
230454.6937990000005811
 30
0.0
 10
482671.3750679999939166
 20
230479.7005449999996927
 30
0.0
 10
482754.3462300000246614
 20
230518.2268510000139941
 30
0.0
 10
482768.1185820000246167
 20
230526.2848569999914616
 30
0.0
 10
482795.360874000005424
 20
230537.451310000004014
 30
0.0
 10
482811.995215000002645
 20
230539.2643929999903776
 30
0.0
 10
482816.1334829999832436
 20
230535.166311000008136
 30
0.0
 10
482819.1192150000133552
 20
230529.0100960000127088
 30
0.0
 10
482837.2022560000186786
 20
230510.5127959999954328
 30
0.0
  0
LWPOLYLINE
  5
AB
  8
Roads
 62
256
370
-1
  6
BYLAYER
100
AcDbEntity
100
AcDbPolyline
 90
18
 70
0
 10
484546.1078229999984615
 20
230819.7876089999917895
 30
0.0
 10
484512.8784079999895766
 20
230764.091573999990942
 30
0.0
 10
484474.1953809999977238
 20
230696.5241310000128578
 30
0.0
 10
484450.647348000027705
 20
230655.1506449999869801
 30
0.0
 10
484437.4742979999864474
 20
230631.746052000002237
 30
0.0
 10
484414.0364459999836981
 20
230591.2512670000141952
 30
0.0
 10
484402.317375999991782
 20
230571.0037979999906383
 30
0.0
 10
484399.9237880000146106
 20
230563.9459830000123475
 30
0.0
 10
484397.5039119999855757
 20
230550.9980649999924935
 30
0.0
 10
484398.858271999983117
 20
230537.7378390000085346
 30
0.0
 10
484402.9673269999912009
 20
230525.0252949999994598
 30
0.0
 10
484411.4324650000198744
 20
230499.8549110000021756
 30
0.0
 10
484420.0740109999896958
 20
230471.6798570000100881
 30
0.0
 10
484430.4266560000251047
 20
230438.8968870000098832
 30
0.0
 10
484439.9192560000228696
 20
230404.9713669999910053
 30
0.0
 10
484446.3624670000281185
 20
230380.5182009999989532
 30
0.0
 10
484455.3896630000090227
 20
230351.8477619999903254
 30
0.0
 10
484474.2884419999900274
 20
230304.0448650000034831
 30
0.0
  0
LWPOLYLINE
  5
AC
  8
Footpaths
 62
256
370
-1
  6
BYLAYER
100
AcDbEntity
100
AcDbPolyline
 90
19
 70
0
 10
483586.1842130000004545
 20
230883.0696839999873191
 30
0.0
 10
483577.3218329999945126
 20
230872.1455910000076983
 30
0.0
 10
483570.929338000016287
 20
230863.7688090000010561
 30
0.0
 10
483562.2343789999722503
 20
230857.8596329999854788
 30
0.0
 10
483555.2934590000077151
 20
230852.2303660000034142
 30
0.0
 10
483550.3452130000223406
 20
230847.6368059999949764
 30
0.0
 10
483542.9270109999924898
 20
230840.4959319999907166
 30
0.0
 10
483478.2302079999935813
 20
230772.7540800000133459
 30
0.0
 10
483424.6929450000170618
 20
230713.71914800000377
 30
0.0
 10
483348.9732400000211783
 20
230628.7516680000117049
 30
0.0
 10
483240.7311830000253394
 20
230504.8976329999859445
 30
0.0
 10
483225.9261919999844395
 20
230488.6114419999939855
 30
0.0
 10
483218.1004400000092573
 20
230475.6994370000029448
 30
0.0
 10
483166.3847550000064075
 20
230397.3959819999872707
 30
0.0
 10
483109.5585970000247471
 20
230308.9817280000133906
 30
0.0
 10
483034.0002129999920726
 20
230198.4503189999959432
 30
0.0
 10
482958.1706220000050962
 20
230088.9158440000028349
 30
0.0
 10
482938.6318760000285693
 20
230070.0443369999993593
 30
0.0
 10
482707.4213979999767616
 20
229889.2600059999967925
 30
0.0
  0
LWPOLYLINE
  5
AD
  8
Paths
 62
256
370
-1
  6
BYLAYER
100
AcDbEntity
100
AcDbPolyline
 90
25
 70
0
 10
482855.8399680000147782
 20
230511.6358989999862388
 30
0.0
 10
482884.9847569999983534
 20
230511.7426500000001397
 30
0.0
 10
482920.6917479999829084
 20
230510.0786450000014156
 30
0.0
 10
482953.3283570000203326
 20
230511.7473950000130571
 30
0.0
 10
482969.9238159999949858
 20
230511.0200550000008661
 30
0.0
 10
482993.357640000001993
 20
230507.0227810000069439
 30
0.0
 10
483021.547580000013113
 20
230504.107014999986859
 30
0.0
 10
483032.9748729999992065
 20
230504.4219389999925625
 30
0.0
 10
483047.0459499999997206
 20
230504.4048320000001695
 30
0.0
 10
483081.9009359999909066
 20
230501.0987800000002608
 30
0.0
 10
483111.3552749999798834
 20
230497.7032600000093225
 30
0.0
 10
483175.6439699999755248
 20
230492.2552750000031665
 30
0.0
 10
483227.1030799999716692
 20
230487.7225040000048466
 30
0.0
 10
483259.184754999994766
 20
230484.9980999999970663
 30
0.0
 10
483305.2474889999721199
 20
230480.1257069999992382
 30
0.0
 10
483355.4696760000078939
 20
230474.4458300000114832
 30
0.0
 10
483396.1339789999765344
 20
230469.3590160000021569
 30
0.0
 10
483419.5579479999723844
 20
230465.9900839999900199
 30
0.0
 10
483446.5676579999853857
 20
230458.5457239999959711
 30
0.0
 10
483474.0861170000280254
 20
230450.7340430000040215
 30
0.0
 10
483525.5667900000116788
 20
230437.4326850000070408
 30
0.0
 10
483578.8375339999911375
 20
230422.2819970000127796
 30
0.0
 10
483646.6510520000010729
 20
230401.4851090000011027
 30
0.0
 10
483678.0616840000147931
 20
230393.8648129999928642
 30
0.0
 10
483712.3276970000006258
 20
230388.2975089999963529
 30
0.0
  0
LWPOLYLINE
  5
AE
  8
Paths
 62
256
370
-1
  6
BYLAYER
100
AcDbEntity
100
AcDbPolyline
 90
8
 70
0
 10
482856.0932369999936782
 20
230511.5147820000129286
 30
0.0
 10
482860.1506389999995008
 20
230501.6823809999914374
 30
0.0
 10
482864.9761660000076517
 20
230490.985501999995904
 30
0.0
 10
482872.0551449999911711
 20
230473.1831409999867901
 30
0.0
 10
482883.8247899999842048
 20
230437.6640049999987241
 30
0.0
 10
482889.6396090000052936
 20
230420.341787999990629
 30
0.0
 10
482895.3454710000078194
 20
230402.01520100000198
 30
0.0
 10
482892.853142999985721
 20
230393.2019340000115335
 30
0.0
  0
LWPOLYLINE
  5
AF
  8
Paths
 62
256
370
-1
  6
BYLAYER
100
AcDbEntity
100
AcDbPolyline
 90
42
 70
0
 10
482855.833745000010822
 20
230512.0117299999983516
 30
0.0
 10
482855.5325730000040494
 20
230499.8515509999997448
 30
0.0
 10
482859.4072460000170395
 20
230485.8808140000037383
 30
0.0
 10
482863.1189989999984391
 20
230474.1629590000084136
 30
0.0
 10
482869.4257280000019819
 20
230457.4755580000055488
 30
0.0
 10
482879.955017999978736
 20
230428.5773650000046473
 30
0.0
 10
482885.6919619999825954
 20
230408.3716079999867361
 30
0.0
 10
482892.9745920000132173
 20
230393.4545740000030492
 30
0.0
 10
482898.487405999971088
 20
230371.6158829999912996
 30
0.0
 10
482906.9555159999872558
 20
230345.8159760000125971
 30
0.0
 10
482914.663870999997016
 20
230320.379306999995606
 30
0.0
 10
482923.342867000028491
 20
230289.4446680000110064
 30
0.0
 10
482931.07942299998831
 20
230254.7347040000022389
 30
0.0
 10
482937.6887369999894872
 20
230227.3996099999931175
 30
0.0
 10
482945.7649150000070222
 20
230194.9506059999985155
 30
0.0
 10
482948.358072999981232
 20
230174.9424909999943338
 30
0.0
 10
482949.5145819999743253
 20
230150.6495979999890551
 30
0.0
 10
482949.9122329999809153
 20
230134.2392140000010841
 30
0.0
 10
482950.5102530000149272
 20
230113.3205390000075568
 30
0.0
 10
482951.1715829999884591
 20
230096.1624740000115708
 30
0.0
 10
482952.7536379999946803
 20
230091.6771189999999478
 30
0.0
 10
482955.5855449999799021
 20
230087.5884439999936149
 30
0.0
 10
482959.0205740000237711
 20
230085.0136270000075456
 30
0.0
 10
482962.3424610000220127
 20
230081.6850039999990258
 30
0.0
 10
482966.6546780000207946
 20
230079.2500519999885
 30
0.0
 10
482973.9877279999782331
 20
230076.4892220000037923
 30
0.0
 10
482982.9059119999874383
 20
230076.6370929999975488
 30
0.0
 10
483006.2170899999910034
 20
230080.1567400000058115
 30
0.0
 10
483016.0166029999963939
 20
230080.1939669999992475
 30
0.0
 10
483020.3267699999851175
 20
230077.8843479999923147
 30
0.0
 10
483022.1788159999996424
 20
230072.2755739999993239
 30
0.0
 10
483020.7712809999939054
 20
230066.2367530000046827
 30
0.0
 10
483018.1878060000017285
 20
230047.771470000006957
 30
0.0
 10
483017.6193859999766573
 20
230021.4441719999886118
 30
0.0
 10
483017.2148879999876954
 20
230000.3830690000031609
 30
0.0
 10
483015.0652179999742657
 20
229986.0604499999899417
 30
0.0
 10
483013.4126609999802895
 20
229979.6414900000090711
 30
0.0
 10
482987.3546910000150092
 20
229929.5805669999972451
 30
0.0
 10
482963.231229999975767
 20
229884.0631409999914467
 30
0.0
 10
482958.5483109999913722
 20
229870.9515039999969304
 30
0.0
 10
482958.0220079999999143
 20
229864.8017429999890737
 30
0.0
 10
482958.2473079999908805
 20
229858.7897609999927226
 30
0.0
  0
LWPOLYLINE
  5
B0
  8
Paths
 62
256
370
-1
  6
BYLAYER
100
AcDbEntity
100
AcDbPolyline
 90
19
 70
0
 10
483095.3832219999749213
 20
230907.1906420000013895
 30
0.0
 10
483099.1811289999750443
 20
230875.1764320000074804
 30
0.0
 10
483094.1046319999732077
 20
230848.0267450000101235
 30
0.0
 10
483083.7408329999889247
 20
230821.5409370000124909
 30
0.0
 10
483069.7256879999767989
 20
230787.9773470000072848
 30
0.0
 10
483048.3765690000145696
 20
230742.1372160000028089
 30
0.0
 10
483032.6845939999911934
 20
230711.1768210000009276
 30
0.0
 10
483005.776607999985572
 20
230659.6051159999915399
 30
0.0
 10
482998.7685589999891818
 20
230642.8229249999858439
 30
0.0
 10
482979.2333179999841377
 20
230616.3094759999949019
 30
0.0
 10
482946.1014289999729954
 20
230583.9316399999952409
 30
0.0
 10
482904.2064319999772124
 20
230549.6542910000134725
 30
0.0
 10
482875.8526609999826178
 20
230532.1423739999881946
 30
0.0
 10
482862.4085380000178702
 20
230524.6516990000091027
 30
0.0
 10
482859.9754309999989346
 20
230519.849595000006957
 30
0.0
 10
482855.7102220000233501
 20
230511.8843730000080541
 30
0.0
 10
482840.3281289999722503
 20
230507.6197329999995418
 30
0.0
 10
482830.560568000015337
 20
230505.7036789999983739
 30
0.0
 10
482825.159879999991972
 20
230505.6142809999873862
 30
0.0
  0
LWPOLYLINE
  5
B1
  8
Paths
 62
256
370
-1
  6
BYLAYER
100
AcDbEntity
100
AcDbPolyline
 90
43
 70
0
 10
483711.884950999985449
 20
230388.4780749999918044
 30
0.0
 10
483739.3455439999816008
 20
230384.175569999992149
 30
0.0
 10
483791.1690870000165887
 20
230365.4938710000133142
 30
0.0
 10
483816.1808130000135861
 20
230357.3912750000017695
 30
0.0
 10
483844.0104370000190102
 20
230346.0777790000138339
 30
0.0
 10
483868.5829379999777302
 20
230334.2085490000026766
 30
0.0
 10
483895.8810010000015609
 20
230324.6408060000103433
 30
0.0
 10
483934.3624759999802336
 20
230307.4910899999958929
 30
0.0
 10
483955.2340500000282191
 20
230299.0689959999872372
 30
0.0
 10
483969.2369360000011511
 20
230295.6697360000107437
 30
0.0
 10
483978.9272880000062287
 20
230294.7044929999974556
 30
0.0
 10
483990.6146750000189058
 20
230294.5246939999924507
 30
0.0
 10
484004.171388000017032
 20
230295.2535269999934826
 30
0.0
 10
484012.065446000022348
 20
230296.5139130000025034
 30
0.0
 10
484023.7044490000116639
 20
230299.215686999988975
 30
0.0
 10
484036.6766790000256151
 20
230304.8221809999959078
 30
0.0
 10
484046.6217930000275373
 20
230311.1297640000120737
 30
0.0
 10
484058.7624860000214539
 20
230321.3590759999933653
 30
0.0
 10
484068.3826680000056513
 20
230332.0473200000124052
 30
0.0
 10
484068.3826680000056513
 20
230332.0473200000124052
 30
0.0
 10
484068.3868779999902472
 20
230331.7967570000037085
 30
0.0
 10
484077.7537110000266694
 20
230342.6060590000124648
 30
0.0
 10
484091.5186630000243895
 20
230353.3639499999990221
 30
0.0
 10
484097.5868129999726079
 20
230358.603899999987334
 30
0.0
 10
484106.7739249999867752
 20
230365.1494360000069719
 30
0.0
 10
484126.0567729999893345
 20
230376.5013920000055805
 30
0.0
 10
484143.0871480000205338
 20
230387.314260999992257
 30
0.0
 10
484150.4175299999769777
 20
230392.1995220000098925
 30
0.0
 10
484164.956865000014659
 20
230401.7173919999913778
 30
0.0
 10
484180.1241470000240952
 20
230411.2458519999927375
 30
0.0
 10
484197.6292840000241995
 20
230423.6959210000059102
 30
0.0
 10
484208.9239350000279956
 20
230431.9061250000086147
 30
0.0
 10
484224.4277749999891967
 20
230443.8213070000056177
 30
0.0
 10
484236.1160069999750704
 20
230451.0356550000142306
 30
0.0
 10
484250.3414960000081919
 20
230456.7889739999955054
 30
0.0
 10
484268.6219840000267141
 20
230460.4802809999964666
 30
0.0
 10
484286.4222469999804161
 20
230470.3039390000049025
 30
0.0
 10
484305.1491299999761395
 20
230484.7798539999930654
 30
0.0
 10
484324.8553550000069663
 20
230500.7760619999899063
 30
0.0
 10
484344.2121139999944717
 20
230515.1373470000107773
 30
0.0
 10
484361.554982999979984
 20
230529.7153410000028089
 30
0.0
 10
484383.6408529999898747
 20
230546.1277110000082757
 30
0.0
 10
484396.913964000006672
 20
230548.7325009999913163
 30
0.0
  0
LWPOLYLINE
  5
B2
  8
Paths
 62
256
370
-1
  6
BYLAYER
100
AcDbEntity
100
AcDbPolyline
 90
26
 70
0
 10
484038.7014179999823682
 20
230305.8273950000002515
 30
0.0
 10
484030.4213040000176989
 20
230290.1489460000011604
 30
0.0
 10
484008.4761840000282973
 20
230265.2181120000022929
 30
0.0
 10
483982.6013650000095367
 20
230242.3517320000100881
 30
0.0
 10
483930.5015189999830909
 20
230194.984056999994209
 30
0.0
 10
483915.4318569999886677
 20
230179.5675679999985732
 30
0.0
 10
483881.7458670000196435
 20
230150.4296439999889117
 30
0.0
 10
483838.0528790000244044
 20
230118.6176979999872856
 30
0.0
 10
483786.9442619999754243
 20
230086.9324379999889061
 30
0.0
 10
483748.255423000024166
 20
230063.8520209999987856
 30
0.0
 10
483717.4335100000025705
 20
230043.6605320000089705
 30
0.0
 10
483696.5470929999719374
 20
230022.8833710000035353
 30
0.0
 10
483678.298317999986466
 20
230002.1503209999937098
 30
0.0
 10
483657.9768909999984317
 20
229970.1033300000126474
 30
0.0
 10
483637.556808999972418
 20
229936.4253380000009201
 30
0.0
 10
483619.4875069999834523
 20
229908.6768640000082087
 30
0.0
 10
483594.4925509999739006
 20
229885.5750739999930374
 30
0.0
 10
483558.3952409999910742
 20
229865.1704829999944195
 30
0.0
 10
483520.3381560000125319
 20
229849.2452010000124574
 30
0.0
 10
483500.2710690000094473
 20
229839.5107260000077076
 30
0.0
 10
483468.9968070000177249
 20
229823.6989379999868106
 30
0.0
 10
483450.9080229999963194
 20
229815.8775510000123177
 30
0.0
 10
483432.0989130000234582
 20
229806.0389429999922868
 30
0.0
 10
483419.4427959999884479
 20
229796.4282719999901019
 30
0.0
 10
483407.2135899999993853
 20
229783.8168149999983143
 30
0.0
 10
483387.8189470000215806
 20
229748.7771530000027269
 30
0.0
  0
LWPOLYLINE
  5
B3
  8
Rivers
 62
256
370
-1
  6
BYLAYER
100
AcDbEntity
100
AcDbPolyline
 90
19
 70
0
 10
482840.3786020000115968
 20
230515.9537570000102278
 30
0.0
 10
482845.4771569999866188
 20
230511.526971000013873
 30
0.0
 10
482852.0453499999712221
 20
230494.2174480000103358
 30
0.0
 10
482865.6167540000169538
 20
230456.0966980000084732
 30
0.0
 10
482898.4287200000253506
 20
230363.7827389999874867
 30
0.0
 10
482917.6258709999965504
 20
230297.056907999998657
 30
0.0
 10
482929.6732210000045598
 20
230244.8734859999967739
 30
0.0
 10
482942.1564820000203326
 20
230198.8356550000025891
 30
0.0
 10
482946.3280430000158958
 20
230145.0023229999933392
 30
0.0
 10
482948.6211009999969974
 20
230089.612319000007119
 30
0.0
 10
482963.2611410000245087
 20
230071.7933499999926426
 30
0.0
 10
483010.5462570000090636
 20
230070.7708789999887813
 30
0.0
 10
483013.3470959999831393
 20
230050.3653439999907278
 30
0.0
 10
483012.4614699999801815
 20
230023.010865999996895
 30
0.0
 10
483011.7903539999970235
 20
229988.462483000010252
 30
0.0
 10
482986.803291000018362
 20
229937.5456840000115335
 30
0.0
 10
482953.249692999990657
 20
229878.1395870000123978
 30
0.0
 10
482946.6528040000121109
 20
229857.1558699999877717
 30
0.0
 10
482941.8225680000032298
 20
229845.2954989999998361
 30
0.0
  0
LWPOLYLINE
  5
B4
  8
Rivers
 62
256
370
-1
  6
BYLAYER
100
AcDbEntity
100
AcDbPolyline
 90
23
 70
0
 10
483085.3321870000218041
 20
230918.6140930000110529
 30
0.0
 10
483088.2760930000222288
 20
230907.7617650000029244
 30
0.0
 10
483089.5686480000149459
 20
230898.0097050000040326
 30
0.0
 10
483091.8422639999771491
 20
230882.1341189999948256
 30
0.0
 10
483091.7471200000145473
 20
230872.7348699999856763
 30
0.0
 10
483089.8513629999943078
 20
230858.2935930000094231
 30
0.0
 10
483087.6794520000112243
 20
230845.3513270000112243
 30
0.0
 10
483084.9781289999955334
 20
230834.0291800000122748
 30
0.0
 10
483076.8943769999896176
 20
230813.971679000009317
 30
0.0
 10
483069.4010719999787398
 20
230796.1793929999985266
 30
0.0
 10
483062.9145179999759421
 20
230778.2784669999964535
 30
0.0
 10
483050.4195080000208691
 20
230751.5063829999999143
 30
0.0
 10
483033.3814060000004247
 20
230718.3934939999890048
 30
0.0
 10
483014.6304980000131764
 20
230682.4952819999889471
 30
0.0
 10
483004.7982879999908619
 20
230661.7817689999938011
 30
0.0
 10
482994.7023380000027828
 20
230641.8156660000095144
 30
0.0
 10
482973.2935389999765903
 20
230614.6446170000126585
 30
0.0
 10
482954.014376999984961
 20
230595.4033089999866206
 30
0.0
 10
482936.1840739999897778
 20
230579.6946910000115167
 30
0.0
 10
482908.9059279999928549
 20
230557.9399700000067241
 30
0.0
 10
482867.1475460000219755
 20
230530.5571279999858234
 30
0.0
 10
482844.4652319999877363
 20
230519.5301219999964815
 30
0.0
 10
482840.5021249999990687
 20
230516.0811129999929108
 30
0.0
  0
LWPOLYLINE
  5
B5
  8
Rivers
 62
256
370
-1
  6
BYLAYER
100
AcDbEntity
100
AcDbPolyline
 90
18
 70
0
 10
482839.8782869999995455
 20
230515.8201629999966826
 30
0.0
 10
482829.9457430000184104
 20
230516.2822889999952167
 30
0.0
 10
482825.5551679999916814
 20
230523.4776429999910761
 30
0.0
 10
482819.5546570000005886
 20
230529.2679249999928288
 30
0.0
 10
482816.6982219999772497
 20
230534.8596229999966454
 30
0.0
 10
482808.8834049999713898
 20
230544.0032540000102017
 30
0.0
 10
482799.4023390000220388
 20
230539.9617370000050869
 30
0.0
 10
482781.3786149999941699
 20
230535.904210000007879
 30
0.0
 10
482774.6544240000075661
 20
230532.2842769999988377
 30
0.0
 10
482772.7849789999891073
 20
230531.3761780000058934
 30
0.0
 10
482756.5340640000067651
 20
230526.4708880000107456
 30
0.0
 10
482732.6783830000204034
 20
230510.412547000014456
 30
0.0
 10
482687.2715070000267588
 20
230490.8653120000089984
 30
0.0
 10
482654.7022049999795854
 20
230469.9014120000065304
 30
0.0
 10
482641.7254289999837056
 20
230456.9052429999865126
 30
0.0
 10
482633.245320999994874
 20
230445.4870820000069216
 30
0.0
 10
482627.3158720000064932
 20
230439.3741640000080224
 30
0.0
 10
482619.8342890000203624
 20
230428.3484159999934491
 30
0.0
  0
LWPOLYLINE
  5
B6
  8
Event Fields
 62
256
370
-1
  6
BYLAYER
100
AcDbEntity
100
AcDbPolyline
 90
59
 70
0
 10
483098.3895490000140853
 20
230845.1860239999950863
 30
0.0
 10
483111.0462510000215843
 20
230856.7918319999880623
 30
0.0
 10
483131.5066440000082366
 20
230865.2422699999879114
 30
0.0
 10
483136.8837729999795556
 20
230870.6226500000047963
 30
0.0
 10
483146.3351970000076108
 20
230872.4400399999867659
 30
0.0
 10
483151.5125990000087768
 20
230872.5151239999977406
 30
0.0
 10
483156.787071000027936
 20
230871.5439769999939017
 30
0.0
 10
483158.1047600000165403
 20
230866.3279470000125002
 30
0.0
 10
483154.837734000000637
 20
230858.8962269999901764
 30
0.0
 10
483149.6499070000136271
 20
230838.5398930000083055
 30
0.0
 10
483144.5029740000027232
 20
230819.6806980000110343
 30
0.0
 10
483135.7367139999987558
 20
230794.5223690000129864
 30
0.0
 10
483126.4708990000071935
 20
230775.8177710000018124
 30
0.0
 10
483117.3775349999777973
 20
230762.500289999996312
 30
0.0
 10
483104.5980650000274181
 20
230740.7341799999994691
 30
0.0
 10
483100.4738260000012815
 20
230728.3805470000079367
 30
0.0
 10
483086.4516999999759719
 20
230703.9243070000084117
 30
0.0
 10
483071.0659260000102222
 20
230685.2565279999980703
 30
0.0
 10
483053.0624599999864586
 20
230663.6137539999908768
 30
0.0
 10
483044.983291000011377
 20
230650.4088789999950677
 30
0.0
 10
483036.8493610000004992
 20
230632.0863919999974314
 30
0.0
 10
483021.2153679999755695
 20
230614.9900130000023637
 30
0.0
 10
482996.5642600000137463
 20
230577.9787699999869801
 30
0.0
 10
482978.6670830000075512
 20
230551.6896199999901
 30
0.0
 10
482970.138221999979578
 20
230534.6130790000024717
 30
0.0
 10
482968.2559929999988526
 20
230529.5150689999863971
 30
0.0
 10
482963.6151749999844469
 20
230523.6234910000057425
 30
0.0
 10
482963.6702700000023469
 20
230518.6363110000093002
 30
0.0
 10
482959.7345429999986663
 20
230515.8554460000013933
 30
0.0
 10
482947.4341129999957047
 20
230513.9027350000105798
 30
0.0
 10
482939.2562269999762066
 20
230512.9242410000006203
 30
0.0
 10
482929.5129799999995157
 20
230513.6100999999907799
 30
0.0
 10
482926.0527930000098422
 20
230515.3262009999889415
 30
0.0
 10
482923.2258630000287667
 20
230521.4534550000098534
 30
0.0
 10
482920.3630969999940135
 20
230523.2307349999900907
 30
0.0
 10
482910.9108480000286363
 20
230522.6664110000128858
 30
0.0
 10
482900.8215830000117421
 20
230521.2415580000088084
 30
0.0
 10
482890.0732940000016242
 20
230516.6706980000017211
 30
0.0
 10
482882.1635959999985062
 20
230513.6623020000115503
 30
0.0
 10
482875.1787570000160486
 20
230512.5845740000077058
 30
0.0
 10
482866.6780739999958314
 20
230512.2688109999871813
 30
0.0
 10
482862.9083129999926314
 20
230515.2238260000012815
 30
0.0
 10
482862.0679029999882914
 20
230518.9662170000083279
 30
0.0
 10
482863.8376709999865852
 20
230523.0949430000036955
 30
0.0
 10
482867.2175750000169501
 20
230526.2055659999896307
 30
0.0
 10
482879.2950149999815039
 20
230530.3892110000015236
 30
0.0
 10
482890.9056620000046678
 20
230538.5919400000129826
 30
0.0
 10
482926.0384259999846108
 20
230563.2476829999941401
 30
0.0
 10
482947.9563729999936186
 20
230582.565230000007432
 30
0.0
 10
482973.5423689999734052
 20
230607.7578429999994114
 30
0.0
 10
482979.5154430000111461
 20
230612.5320310000097379
 30
0.0
 10
482985.9808310000225902
 20
230614.2693980000040028
 30
0.0
 10
483005.1356469999882393
 20
230642.4338229999993928
 30
0.0
 10
483011.749117000028491
 20
230657.9641059999994468
 30
0.0
 10
483025.4407849999843165
 20
230686.8905420000082813
 30
0.0
 10
483042.8184960000216961
 20
230726.5866099999984726
 30
0.0
 10
483057.3897480000159703
 20
230754.2423319999943487
 30
0.0
 10
483085.8099700000020675
 20
230822.053513999999268
 30
0.0
 10
483098.3895490000140853
 20
230845.1860239999950863
 30
0.0
  0
LWPOLYLINE
  5
B7
  8
Event Fields
 62
256
370
-1
  6
BYLAYER
100
AcDbEntity
100
AcDbPolyline
 90
24
 70
0
 10
483021.3183309999876656
 20
230495.3478389999945648
 30
0.0
 10
483026.8387140000122599
 20
230500.3275410000060219
 30
0.0
 10
483030.0482089999713935
 20
230497.3077139999950305
 30
0.0
 10
483034.6255290000117384
 20
230494.0088399999949615
 30
0.0
 10
483040.6772900000214577
 20
230495.5457680000108667
 30
0.0
 10
483043.2158889999845996
 20
230496.135061000008136
 30
0.0
 10
483045.5646100000012666
 20
230500.3454050000000279
 30
0.0
 10
483046.1789020000142045
 20
230503.0046060000022408
 30
0.0
 10
483063.1229659999953583
 20
230501.0097409999871161
 30
0.0
 10
483054.4833600000129081
 20
230473.8367600000055972
 30
0.0
 10
483042.5452689999947324
 20
230460.9079020000062883
 30
0.0
 10
483034.2152529999730177
 20
230449.5814200000022538
 30
0.0
 10
483029.0698909999919124
 20
230437.0835120000119787
 30
0.0
 10
483025.7075620000250638
 20
230426.5102809999953024
 30
0.0
 10
483015.8551810000208206
 20
230407.7827349999861326
 30
0.0
 10
483004.9019550000084564
 20
230406.888716999994358
 30
0.0
 10
482994.0619140000198968
 20
230404.2164639999973588
 30
0.0
 10
482993.8745440000202507
 20
230412.8521569999866188
 30
0.0
 10
483003.1764279999770224
 20
230414.7863620000134688
 30
0.0
 10
483005.5075659999856725
 20
230437.5593529999896418
 30
0.0
 10
483006.1196399999898858
 20
230445.4153740000037942
 30
0.0
 10
483008.6611849999753758
 20
230456.7247900000074878
 30
0.0
 10
483011.4063869999954477
 20
230465.1979440000141039
 30
0.0
 10
483021.3183309999876656
 20
230495.3478389999945648
 30
0.0
  0
LWPOLYLINE
  5
B8
  8
Event Fields
 62
256
370
-1
  6
BYLAYER
100
AcDbEntity
100
AcDbPolyline
 90
14
 70
0
 10
483006.918844000028912
 20
230568.5461310000100639
 30
0.0
 10
483031.9762529999716207
 20
230564.8661499999871012
 30
0.0
 10
483047.8872679999913089
 20
230506.8300269999890588
 30
0.0
 10
482988.4399040000280365
 20
230509.7950929999933578
 30
0.0
 10
482971.7703459999756888
 20
230513.6150649999908637
 30
0.0
 10
482966.1625759999733418
 20
230513.7692819999938365
 30
0.0
 10
482970.8911230000085197
 20
230522.0919580000045244
 30
0.0
 10
482975.5286530000157654
 20
230526.2031209999986459
 30
0.0
 10
482979.8108820000197738
 20
230533.9122750000096858
 30
0.0
 10
482981.8872020000126213
 20
230540.9102699999930337
 30
0.0
 10
482987.0622699999948964
 20
230545.8710840000130702
 30
0.0
 10
482997.9858980000135489
 20
230555.2840900000010151
 30
0.0
 10
483004.2451659999787807
 20
230565.6486739999963902
 30
0.0
 10
483006.918844000028912
 20
230568.5461310000100639
 30
0.0
  0
LWPOLYLINE
  5
B9
  8
Event Fields
 62
256
370
-1
  6
BYLAYER
100
AcDbEntity
100
AcDbPolyline
 90
27
 70
0
 10
483891.8764320000191219
 20
230323.6964499999885447
 30
0.0
 10
483915.6619310000096448
 20
230313.8192700000072364
 30
0.0
 10
483928.3188390000141226
 20
230308.2669429999950808
 30
0.0
 10
483944.2666680000256747
 20
230301.2660359999863431
 30
0.0
 10
483956.144800000009127
 20
230297.2045109999889974
 30
0.0
 10
483973.8006910000112839
 20
230293.239964999986114
 30
0.0
 10
483991.406144000007771
 20
230292.2822579999919981
 30
0.0
 10
484010.2255710000172257
 20
230293.8513509999902453
 30
0.0
 10
484024.2426219999906607
 20
230297.0943219999899156
 30
0.0
 10
484031.9837210000259802
 20
230299.9813009999925271
 30
0.0
 10
484033.0222059999941848
 20
230297.9936570000136271
 30
0.0
 10
484021.9367150000180118
 20
230284.7744499999971595
 30
0.0
 10
484010.8637860000017099
 20
230270.8035369999997783
 30
0.0
 10
483996.7763000000268221
 20
230256.7820099999953527
 30
0.0
 10
483978.1922090000007302
 20
230241.1811950000119396
 30
0.0
 10
483956.3843190000043251
 20
230223.0199279999942519
 30
0.0
 10
483944.5027949999785051
 20
230212.2937530000053812
 30
0.0
 10
483926.4502160000265576
 20
230194.9474409999966156
 30
0.0
 10
483920.9824030000017956
 20
230191.3467759999912232
 30
0.0
 10
483893.1307389999856241
 20
230203.9130669999867678
 30
0.0
 10
483869.3363709999830462
 20
230214.2917209999868646
 30
0.0
 10
483856.3944969999720342
 20
230221.8446439999970607
 30
0.0
 10
483879.9688099999912083
 20
230254.572054999996908
 30
0.0
 10
483876.8787160000065342
 20
230259.031728000001749
 30
0.0
 10
483869.7315120000275783
 20
230265.6791289999964647
 30
0.0
 10
483878.6313840000075288
 20
230289.3880969999881927
 30
0.0
 10
483891.8764320000191219
 20
230323.6964499999885447
 30
0.0
  0
LWPOLYLINE
  5
BA
  8
Event Fields
 62
256
370
-1
  6
BYLAYER
100
AcDbEntity
100
AcDbPolyline
 90
17
 70
0
 10
483935.0262220000149682
 20
230378.4000309999973979
 30
0.0
 10
483945.5598829999798909
 20
230379.5792570000048727
 30
0.0
 10
483965.4457989999791607
 20
230392.4444479999947362
 30
0.0
 10
483990.0528150000027381
 20
230423.4342590000014752
 30
0.0
 10
484107.5359240000252612
 20
230370.2688740000012331
 30
0.0
 10
484081.7224440000136383
 20
230351.2882579999859445
 30
0.0
 10
484061.0675460000056773
 20
230324.3740800000086892
 30
0.0
 10
484035.7392339999787509
 20
230306.404236000002129
 30
0.0
 10
483995.6809500000090338
 20
230297.7113459999964107
 30
0.0
 10
483963.4845569999888539
 20
230299.6773659999889787
 30
0.0
 10
483931.6056879999814555
 20
230312.6768480000027921
 30
0.0
 10
483901.2510209999745712
 20
230324.6995119999919552
 30
0.0
 10
483877.4110029999865219
 20
230337.8340540000062902
 30
0.0
 10
483877.2514049999881536
 20
230347.3554280000098515
 30
0.0
 10
483893.6779010000173002
 20
230386.7293430000136141
 30
0.0
 10
483904.1695380000164732
 20
230390.4140820000029635
 30
0.0
 10
483935.0262220000149682
 20
230378.4000309999973979
 30
0.0
  0
LWPOLYLINE
  5
BB
  8
Event Fields
 62
256
370
-1
  6
BYLAYER
100
AcDbEntity
100
AcDbPolyline
 90
8
 70
0
 10
483007.156682999979239
 20
230568.8418430000019725
 30
0.0
 10
483019.1212359999772161
 20
230582.1978590000071563
 30
0.0
 10
483049.9657759999972768
 20
230623.6857749999908265
 30
0.0
 10
483068.2821170000243001
 20
230647.9237000000139233
 30
0.0
 10
483082.0844560000114143
 20
230664.0669500000076368
 30
0.0
 10
483101.4383360000210814
 20
230663.6365079999959562
 30
0.0
 10
483032.2250980000244454
 20
230564.7466150000109337
 30
0.0
 10
483007.156682999979239
 20
230568.8418430000019725
 30
0.0
  0
LWPOLYLINE
  5
BC
  8
Trees
 62
256
370
-1
  6
BYLAYER
100
AcDbEntity
100
AcDbPolyline
 90
47
 70
0
 10
482963.5639129999908619
 20
230523.3203999999968801
 30
0.0
 10
482968.2955349999829195
 20
230529.6643979999935254
 30
0.0
 10
482969.920464999973774
 20
230533.9519060000020545
 30
0.0
 10
482978.7929809999768622
 20
230551.9557759999879636
 30
0.0
 10
482991.7955480000237003
 20
230570.9052690000098664
 30
0.0
 10
483021.1544710000162013
 20
230614.8746220000030007
 30
0.0
 10
483036.8871330000110902
 20
230632.0523380000086036
 30
0.0
 10
483045.0368369999923743
 20
230650.2614549999998417
 30
0.0
 10
483053.1351569999824278
 20
230663.5863369999860879
 30
0.0
 10
483086.4477150000166148
 20
230703.9243959999876097
 30
0.0
 10
483100.4316990000079386
 20
230728.0274780000036117
 30
0.0
 10
483104.750739999988582
 20
230740.8920389999984764
 30
0.0
 10
483117.2004580000066198
 20
230762.2011730000085663
 30
0.0
 10
483126.4598840000107884
 20
230775.7626359999994747
 30
0.0
 10
483135.5732050000224262
 20
230794.3338309999962803
 30
0.0
 10
483144.3960659999866039
 20
230819.040039000014076
 30
0.0
 10
483152.4920009999768808
 20
230849.6859589999949094
 30
0.0
 10
483155.0347160000237636
 20
230859.1575460000021849
 30
0.0
 10
483158.2443879999918863
 20
230866.3841879999963567
 30
0.0
 10
483156.7765099999960512
 20
230871.5598459999891929
 30
0.0
 10
483161.7112199999974109
 20
230873.208148000005167
 30
0.0
 10
483148.8907829999807291
 20
230884.9614320000109728
 30
0.0
 10
483157.7238660000148229
 20
230897.7010880000016186
 30
0.0
 10
483157.7238660000148229
 20
230897.7010880000016186
 30
0.0
 10
483174.2953540000016801
 20
230875.6727780000073835
 30
0.0
 10
483171.7912769999820739
 20
230867.6117910000029951
 30
0.0
 10
483163.2228860000032
 20
230854.0619660000083968
 30
0.0
 10
483156.5723049999796785
 20
230834.7173910000128672
 30
0.0
 10
483153.1672239999752492
 20
230816.6170780000102241
 30
0.0
 10
483141.7729219999746419
 20
230791.6801540000014938
 30
0.0
 10
483129.5791689999750815
 20
230769.4865639999916311
 30
0.0
 10
483118.7279470000066794
 20
230745.8741990000125952
 30
0.0
 10
483114.156957000028342
 20
230729.8844350000144914
 30
0.0
 10
483111.9760499999974854
 20
230721.2647419999993872
 30
0.0
 10
483098.7754449999774806
 20
230691.5984499999904074
 30
0.0
 10
483090.6446950000245124
 20
230674.3589999999967404
 30
0.0
 10
483069.328867000003811
 20
230649.1941579999984242
 30
0.0
 10
483048.0585679999785498
 20
230621.273256999993464
 30
0.0
 10
483018.1969369999715127
 20
230581.117391999985557
 30
0.0
 10
483004.9385599999804981
 20
230566.2361939999973401
 30
0.0
 10
482998.021097999997437
 20
230555.3447830000077374
 30
0.0
 10
482981.8572510000085458
 20
230541.4178670000110287
 30
0.0
 10
482979.8467620000010356
 20
230533.8658890000078827
 30
0.0
 10
482975.3902419999940321
 20
230526.0853720000013709
 30
0.0
 10
482970.8693119999952614
 20
230522.1884220000065397
 30
0.0
 10
482969.7072990000015125
 20
230520.2894889999879524
 30
0.0
 10
482963.5639129999908619
 20
230523.3203999999968801
 30
0.0
  0
LWPOLYLINE
  5
BD
  8
Trees
 62
256
370
-1
  6
BYLAYER
100
AcDbEntity
100
AcDbPolyline
 90
34
 70
0
 10
483083.2036259999731556
 20
230838.7612369999988005
 30
0.0
 10
483061.1184099999954924
 20
230776.7449919999926351
 30
0.0
 10
483039.0176900000078604
 20
230730.7670210000069346
 30
0.0
 10
483006.8881050000200048
 20
230668.3324250000005122
 30
0.0
 10
482996.4943600000115111
 20
230643.599703000014415
 30
0.0
 10
482980.2608299999847077
 20
230622.529290000005858
 30
0.0
 10
482957.2948789999936707
 20
230598.3398060000035912
 30
0.0
 10
482923.367632000008598
 20
230568.4550260000105482
 30
0.0
 10
482888.3480480000143871
 20
230543.8152579999878071
 30
0.0
 10
482854.5177120000007562
 20
230523.2052689999982249
 30
0.0
 10
482842.5226259999908507
 20
230519.247337000007974
 30
0.0
 10
482831.5157079999917187
 20
230516.3082780000113416
 30
0.0
 10
482827.1624569999985397
 20
230521.2486529999878258
 30
0.0
 10
482813.7852149999816902
 20
230540.0744479999993928
 30
0.0
 10
482809.0291330000036396
 20
230538.993252999993274
 30
0.0
 10
482795.2342410000273958
 20
230537.5118699999875389
 30
0.0
 10
482768.0323939999798313
 20
230526.2851390000141691
 30
0.0
 10
482727.2135760000091977
 20
230502.8035279999894556
 30
0.0
 10
482675.2589589999988675
 20
230484.1506219999864697
 30
0.0
 10
482649.2517210000078194
 20
230461.4154759999946691
 30
0.0
 10
482637.9064789999974892
 20
230463.7343410000030417
 30
0.0
 10
482559.5262199999997392
 20
230569.4558470000047237
 30
0.0
 10
482596.0085669999825768
 20
230657.7737260000139941
 30
0.0
 10
482597.2446360000176355
 20
230704.6588019999908283
 30
0.0
 10
482622.9830760000040755
 20
230728.3906260000076145
 30
0.0
 10
482701.2612180000287481
 20
230735.1973040000011679
 30
0.0
 10
482718.4848529999726452
 20
230787.6087929999921471
 30
0.0
 10
482741.3572960000019521
 20
230802.2716329999966547
 30
0.0
 10
482755.9566130000166595
 20
230809.8304580000112765
 30
0.0
 10
482798.9362049999763258
 20
230830.0391039999958593
 30
0.0
 10
482852.9044829999911599
 20
230848.2243219999945723
 30
0.0
 10
482945.9481810000143014
 20
230843.2502329999988433
 30
0.0
 10
483018.2666229999740608
 20
230845.7027159999997821
 30
0.0
 10
483083.2036259999731556
 20
230838.7612369999988005
 30
0.0
  0
INSERT
  5
BE
100
AcDbEntity
100
AcDbBlockReference
  8
Tents
 62
256
370
-1
  6
BYLAYER
  2
Tent 20x30
 10
482794.2816740000271238
 20
230485.2013560000050347
 30
0.0
 50
108.9020000000000152
  0
INSERT
  5
BF
100
AcDbEntity
100
AcDbBlockReference
  8
Tents
 62
256
370
-1
  6
BYLAYER
  2
Tent 20x30
 10
483069.5725139999995008
 20
230522.8642910000053234
 30
0.0
  0
MTEXT
  5
C0
100
AcDbEntity
100
AcDbMText
  8
Tents
 62
256
370
-1
  6
BYLAYER
 10
482769.3555150000029244
 20
230512.3334350000077393
 30
0.0
 40
5.0
 41
26.5277767177999984
 71
1
 72
3
  1
Stage A
  7
textstyle0
 50
0.0
 73
1
 44
0.96
  0
INSERT
  5
C1
100
AcDbEntity
100
AcDbBlockReference
  8
Tents
 62
256
370
-1
  6
BYLAYER
  2
Tent 10x15
 10
483068.8014519999851473
 20
230481.2269429999869317
 30
0.0
  0
MTEXT
  5
C2
100
AcDbEntity
100
AcDbMText
  8
Tents
 62
256
370
-1
  6
BYLAYER
 10
483070.4573930000187829
 20
230487.6104979999945499
 30
0.0
 40
2.5
 41
12.2222222221999992
 71
1
 72
3
  1
HQ/NOC
  7
textstyle1
 50
0.0
 73
1
 44
0.96
  0
INSERT
  5
C3
100
AcDbEntity
100
AcDbBlockReference
  8
Tents
 62
256
370
-1
  6
BYLAYER
  2
Tent 5x5
 10
482915.7610669999849051
 20
230516.4490550000045914
 30
0.0
  0
INSERT
  5
C4
100
AcDbEntity
100
AcDbBlockReference
  8
Tents
 62
256
370
-1
  6
BYLAYER
  2
Tent 10x15
 10
482803.4944389999727719
 20
230431.3238100000016857
 30
0.0
  0
MTEXT
  5
C5
100
AcDbEntity
100
AcDbMText
  8
Tents
 62
256
370
-1
  6
BYLAYER
 10
483068.7397680000285618
 20
230561.3557060000021011
 30
0.0
 40
5.0
 41
25.9722211622000003
 71
1
 72
3
  1
Stage B
  7
textstyle2
 50
0.0
 73
1
 44
0.96
  0
LINE
  5
C6
100
AcDbEntity
100
AcDbLine
  8
Perimeter
 62
256
370
-1
  6
BYLAYER
 10
482698.691692000022158
 20
230490.0941560000064783
 30
0.0
 11
482784.2795739999855869
 21
230376.3625110000139102
 31
0.0
  0
LINE
  5
C7
100
AcDbEntity
100
AcDbLine
  8
Perimeter
 62
256
370
-1
  6
BYLAYER
 10
482784.2795739999855869
 20
230376.3625110000139102
 30
0.0
 11
482900.3244050000212155
 21
230391.0126889999955893
 31
0.0
  0
LINE
  5
C8
100
AcDbEntity
100
AcDbLine
  8
Perimeter
 62
256
370
-1
  6
BYLAYER
 10
482900.3244050000212155
 20
230391.0126889999955893
 30
0.0
 11
482923.0707350000157021
 21
230308.1235239999950863
 31
0.0
  0
LINE
  5
C9
100
AcDbEntity
100
AcDbLine
  8
Perimeter
 62
256
370
-1
  6
BYLAYER
 10
482923.0707350000157021
 20
230308.1235239999950863
 30
0.0
 11
483059.5487089999951422
 21
230305.4248070000030566
 31
0.0
  0
LINE
  5
CA
100
AcDbEntity
100
AcDbLine
  8
Perimeter
 62
256
370
-1
  6
BYLAYER
 10
483059.5487089999951422
 20
230305.4248070000030566
 30
0.0
 11
483093.8609680000226945
 21
230489.7086249999993015
 31
0.0
  0
LINE
  5
CB
100
AcDbEntity
100
AcDbLine
  8
Perimeter
 62
256
370
-1
  6
BYLAYER
 10
483093.8609680000226945
 20
230489.7086249999993015
 30
0.0
 11
483121.2336689999792725
 21
230514.7681400000001304
 31
0.0
  0
LINE
  5
CC
100
AcDbEntity
100
AcDbLine
  8
Perimeter
 62
256
370
-1
  6
BYLAYER
 10
483121.2336689999792725
 20
230514.7681400000001304
 30
0.0
 11
483123.1613239999860525
 21
230680.932001000008313
 31
0.0
  0
LINE
  5
CD
100
AcDbEntity
100
AcDbLine
  8
Perimeter
 62
256
370
-1
  6
BYLAYER
 10
483179.4488499999861233
 20
230874.4685640000097919
 30
0.0
 11
483091.8422639999771491
 21
230882.1341189999948256
 31
0.0
  0
LINE
  5
CE
100
AcDbEntity
100
AcDbLine
  8
Perimeter
 62
256
370
-1
  6
BYLAYER
 10
483091.8422639999771491
 20
230882.1341189999948256
 30
0.0
 11
483054.5368059999891557
 21
230772.3028489999996964
 31
0.0
  0
LINE
  5
CF
100
AcDbEntity
100
AcDbLine
  8
Perimeter
 62
256
370
-1
  6
BYLAYER
 10
483054.5368059999891557
 20
230772.3028489999996964
 30
0.0
 11
482987.8399429999990389
 21
230639.680183999997098
 31
0.0
  0
LINE
  5
D0
100
AcDbEntity
100
AcDbLine
  8
Perimeter
 62
256
370
-1
  6
BYLAYER
 10
482987.8399429999990389
 20
230639.680183999997098
 30
0.0
 11
482923.0707350000157021
 21
230574.5254450000065845
 31
0.0
  0
LINE
  5
D1
100
AcDbEntity
100
AcDbLine
  8
Perimeter
 62
256
370
-1
  6
BYLAYER
 10
482923.0707350000157021
 20
230574.5254450000065845
 30
0.0
 11
482848.6632509999908507
 21
230527.1051319999969564
 31
0.0
  0
LINE
  5
D2
100
AcDbEntity
100
AcDbLine
  8
Perimeter
 62
256
370
-1
  6
BYLAYER
 10
482848.6632509999908507
 20
230527.1051319999969564
 30
0.0
 11
482822.8326740000047721
 21
230536.357875999994576
 31
0.0
  0
LINE
  5
D3
100
AcDbEntity
100
AcDbLine
  8
Perimeter
 62
256
370
-1
  6
BYLAYER
 10
482822.8326740000047721
 20
230536.357875999994576
 30
0.0
 11
482810.1101509999716654
 21
230550.6225229999981821
 31
0.0
  0
LINE
  5
D4
100
AcDbEntity
100
AcDbLine
  8
Perimeter
 62
256
370
-1
  6
BYLAYER
 10
482810.1101509999716654
 20
230550.6225229999981821
 30
0.0
 11
482694.4508509999723174
 21
230499.3469000000040978
 31
0.0
  0
LINE
  5
D5
100
AcDbEntity
100
AcDbLine
  8
Perimeter
 62
256
370
-1
  6
BYLAYER
 10
482694.4508509999723174
 20
230499.3469000000040978
 30
0.0
 11
482698.691692000022158
 21
230490.0941560000064783
 31
0.0
  0
MTEXT
  5
D6
100
AcDbEntity
100
AcDbMText
  8
Text
 62
256
370
-1
  6
BYLAYER
 10
483042.9708760000066832
 20
230710.2323570000007749
 30
0.0
 40
5.0
 41
24.4444444443999984
 71
1
 72
3
  1
Camping
  7
textstyle3
 50
0.0
 73
1
 44
0.96
  0
MTEXT
  5
D7
100
AcDbEntity
100
AcDbMText
  8
Text
 62
256
370
-1
  6
BYLAYER
 10
483000.1769349999958649
 20
230537.5144689999870025
 30
0.0
 40
5.0
 41
24.4444444443999984
 71
1
 72
3
  1
Camping
  7
textstyle4
 50
0.0
 73
1
 44
0.96
  0
MTEXT
  5
D8
100
AcDbEntity
100
AcDbMText
  8
Text
 62
256
370
-1
  6
BYLAYER
 10
483022.5377330000046641
 20
230480.455881000001682
 30
0.0
 40
5.0
 41
24.4444444443999984
 71
1
 72
3
  1
Camping
  7
textstyle5
 50
0.0
 73
1
 44
0.96
  0
MTEXT
  5
D9
100
AcDbEntity
100
AcDbMText
  8
Text
 62
256
370
-1
  6
BYLAYER
 10
483046.4406549999839626
 20
230607.2955800000054296
 30
0.0
 40
5.0
 41
42.6388914603000018
 71
1
 72
3
  1
Camper Vans
  7
textstyle6
 50
259.0982496499999002
 73
1
 44
0.96
  0
MTEXT
  5
DA
100
AcDbEntity
100
AcDbMText
  8
Text
 62
256
370
-1
  6
BYLAYER
 10
482825.5313910000259057
 20
230460.7938000000140164
 30
0.0
 40
5.0
 41
26.1111111111000014
 71
1
 72
3
  1
Catering
  7
textstyle7
 50
0.0
 73
1
 44
0.96
  0
MTEXT
  5
DB
100
AcDbEntity
100
AcDbMText
  8
Text
 62
256
370
-1
  6
BYLAYER
 10
482951.06992400001036
 20
230367.4230110000062268
 30
0.0
 40
5.0
 41
76.9444444444000055
 71
1
 72
3
  1
UAV/Model flying area
  7
textstyle8
 50
0.0
 73
1
 44
0.96
  0
LWPOLYLINE
  5
DC
  8
Lighting-ExtFestoon
 62
256
370
-1
  6
BYLAYER
100
AcDbEntity
100
AcDbPolyline
 90
9
 70
0
 10
483092.7175789999892004
 20
230500.6021309999923687
 30
0.0
 10
483062.7373350000125356
 20
230503.4573929999896791
 30
0.0
 10
483054.1715519999852404
 20
230472.7633339999883901
 30
0.0
 10
483016.6962470000144094
 20
230407.806140000000596
 30
0.0
 10
482893.2061979999998584
 20
230397.4558179999876302
 30
0.0
 10
482889.9940289999940433
 20
230397.4558179999876302
 30
0.0
 10
482847.5220170000102371
 20
230517.3767909999878611
 30
0.0
 10
482831.1042649999726564
 20
230508.4541000000026543
 30
0.0
 10
482792.2013300000107847
 20
230495.6054240000084974
 30
0.0
  0
LWPOLYLINE
  5
DD
  8
Lighting-ExtFestoon
 62
256
370
-1
  6
BYLAYER
100
AcDbEntity
100
AcDbPolyline
 90
3
 70
0
 10
482820.2937646445934661
 20
230437.423023545241449
 30
0.0
 10
482853.3477316261269152
 20
230436.2350275144854095
 30
0.0
 10
482827.4725624896236695
 20
230506.6076466055237688
 30
0.0
  0
LWPOLYLINE
  5
DE
  8
Lighting-ExtFestoon
 62
256
370
-1
  6
BYLAYER
100
AcDbEntity
100
AcDbPolyline
 90
3
 70
0
 10
482850.7341860000160523
 20
230508.4541000000026543
 30
0.0
 10
482967.0860830000019632
 20
230509.8817310000013094
 30
0.0
 10
483048.4610289999982342
 20
230504.8850230000098236
 30
0.0
  0
LWPOLYLINE
  5
DF
  8
Lighting-ExtFestoon
 62
256
370
-1
  6
BYLAYER
100
AcDbEntity
100
AcDbPolyline
 90
7
 70
0
 10
482848.2358329999842681
 20
230515.592253000009805
 30
0.0
 10
482920.6880869999877177
 20
230560.9195260000124108
 30
0.0
 10
482982.0762049999902956
 20
230615.5263970000087284
 30
0.0
 10
482996.308332999702543
 20
230632.2410139992134646
 30
0.0
 10
483004.5613870000233874
 20
230645.863547999993898
 30
0.0
 10
483064.3385901537258178
 20
230766.686800206953194
 30
0.0
 10
483090.3410859506693669
 20
230830.3857550901011564
 30
0.0
  0
LWPOLYLINE
  5
E0
  8
Lighting-ExtFestoon
 62
256
370
-1
  6
BYLAYER
100
AcDbEntity
100
AcDbPolyline
 90
2
 70
0
 10
483044.5350450000260025
 20
230524.158036999986507
 30
0.0
 10
483068.4478579999995418
 20
230527.0132980000053067
 30
0.0
  0
LWPOLYLINE
  5
E1
  8
Lighting-ExtFestoon
 62
256
370
-1
  6
BYLAYER
100
AcDbEntity
100
AcDbPolyline
 90
2
 70
0
 10
483050.2455670000053942
 20
230504.8850230000098236
 30
0.0
 10
483062.3804280000040308
 20
230503.4573929999896791
 30
0.0
  0
LWPOLYLINE
  5
E2
  8
Lighting-ExtFestoon
 62
256
370
-1
  6
BYLAYER
100
AcDbEntity
100
AcDbPolyline
 90
2
 70
0
 10
482958.5930519999819808
 20
230515.5025979999918491
 30
0.0
 10
482936.3777489999774843
 20
230573.0829390000144485
 30
0.0
  0
INSERT
  5
E3
100
AcDbEntity
100
AcDbBlockReference
  8
NOC-DK
 62
256
370
-1
  6
BYLAYER
  2
Datenklos5
 10
483023.549296329380013
 20
230427.5071669530007057
 30
0.0
  0
INSERT
  5
E4
100
AcDbEntity
100
AcDbBlockReference
  8
NOC-DK
 62
256
370
-1
  6
BYLAYER
  2
Datenklos5
 10
483049.3427110990160145
 20
230472.7587718120485079
 30
0.0
  0
INSERT
  5
E5
100
AcDbEntity
100
AcDbBlockReference
  8
NOC-DK
 62
256
370
-1
  6
BYLAYER
  2
Datenklos5
 10
482930.0
 20
230540.0
 30
0.0
  0
INSERT
  5
E6
100
AcDbEntity
100
AcDbBlockReference
  8
NOC-DK
 62
256
370
-1
  6
BYLAYER
  2
Datenklos5
 10
483013.1205611938494258
 20
230631.1411486033466645
 30
0.0
  0
INSERT
  5
E7
100
AcDbEntity
100
AcDbBlockReference
  8
NOC-DK
 62
256
370
-1
  6
BYLAYER
  2
Datenklos5
 10
483030.0
 20
230690.0
 30
0.0
  0
INSERT
  5
E8
100
AcDbEntity
100
AcDbBlockReference
  8
NOC-DK
 62
256
370
-1
  6
BYLAYER
  2
Datenklos5
 10
483134.7299754900159314
 20
230802.8252346430090256
 30
0.0
  0
INSERT
  5
E9
100
AcDbEntity
100
AcDbBlockReference
  8
NOC-DK
 62
256
370
-1
  6
BYLAYER
  2
Datenklos5
 10
483104.2479916613665409
 20
230746.5749758251477033
 30
0.0
  0
INSERT
  5
EA
100
AcDbEntity
100
AcDbBlockReference
  8
NOC-DK
 62
256
370
-1
  6
BYLAYER
  2
Datenklos5
 10
482955.0
 20
230589.0
 30
0.0
  0
INSERT
  5
EB
100
AcDbEntity
100
AcDbBlockReference
  8
NOC-DK
 62
256
370
-1
  6
BYLAYER
  2
Datenklos5
 10
482970.0
 20
230540.0
 30
0.0
  0
INSERT
  5
EC
100
AcDbEntity
100
AcDbBlockReference
  8
NOC-DK
 62
256
370
-1
  6
BYLAYER
  2
Datenklos5
 10
483070.0
 20
230690.0
 30
0.0
  0
INSERT
  5
ED
100
AcDbEntity
100
AcDbBlockReference
  8
NOC-DK
 62
256
370
-1
  6
BYLAYER
  2
Datenklos5
 10
483095.4790268480428495
 20
230659.1646438179304823
 30
0.0
  0
INSERT
  5
EE
100
AcDbEntity
100
AcDbBlockReference
  8
NOC-DK
 62
256
370
-1
  6
BYLAYER
  2
Datenklos5
 10
482830.0
 20
230443.0
 30
0.0
  0
INSERT
  5
EF
100
AcDbEntity
100
AcDbBlockReference
  8
NOC-DK
 62
256
370
-1
  6
BYLAYER
  2
Datenklos5
 10
483240.0
 20
230440.0
 30
0.0
  0
LWPOLYLINE
  5
F0
  8
Road-Trackway
 62
256
370
-1
  6
BYLAYER
100
AcDbEntity
100
AcDbPolyline
 90
4
 70
0
 10
483062.3804269999964163
 20
230500.6021309999923687
 30
0.0
 10
483054.5284589999937452
 20
230472.7633339999883901
 30
0.0
 10
483016.6962470000144094
 20
230407.0923250000050757
 30
0.0
 10
482896.7752740000141785
 20
230397.8127260000037495
 30
0.0
  0
LWPOLYLINE
  5
F1
  8
Road-Trackway
 62
256
370
-1
  6
BYLAYER
100
AcDbEntity
100
AcDbPolyline
 90
2
 70
0
 10
483045.1060970000107773
 20
230523.5156030000071041
 30
0.0
 10
483069.0902909999713302
 20
230526.6563899999891873
 30
0.0
  0
LWPOLYLINE
  5
F2
  8
Road-Trackway
 62
256
370
-1
  6
BYLAYER
100
AcDbEntity
100
AcDbPolyline
 90
2
 70
0
 10
482830.3904500000062399
 20
230507.5261400000017602
 30
0.0
 10
482792.1299490000237711
 20
230494.9629899999999907
 30
0.0
  0
LWPOLYLINE
  5
F3
  8
Road-Trackway
 62
256
370
-1
  6
BYLAYER
100
AcDbEntity
100
AcDbPolyline
 90
2
 70
0
 10
482960.5812269999878481
 20
230516.2043070000072476
 30
0.0
 10
482938.4335369999753311
 20
230573.7682020000065677
 30
0.0
  0
LWPOLYLINE
  5
F4
  8
Road-Trackway
 62
256
370
-1
  6
BYLAYER
100
AcDbEntity
100
AcDbPolyline
 90
2
 70
0
 10
482827.4855605987249874
 20
230506.5722956872195937
 30
0.0
 10
482850.7994195141945966
 20
230442.3117717814166099
 30
0.0
  0
INSERT
  5
F5
100
AcDbEntity
100
AcDbBlockReference
  8
Power - Generator
 62
256
370
-1
  6
BYLAYER
  2
Generator6x6
 10
483081.8340065306983888
 20
230495.0672554990742356
 30
0.0
  0
INSERT
  5
F6
100
AcDbEntity
100
AcDbBlockReference
  8
Power - Generator
 62
256
370
-1
  6
BYLAYER
  2
Generator6x6
 10
482839.0976188683416694
 20
230495.8859660028247163
 30
0.0
  0
INSERT
  5
F7
100
AcDbEntity
100
AcDbBlockReference
  8
NOC-DK
 62
256
370
-1
  6
BYLAYER
  2
Datenklos5
 10
483062.9181925567099825
 20
230758.0701404483406805
 30
0.0
  0
INSERT
  5
F8
100
AcDbEntity
100
AcDbBlockReference
  8
NOC-DK
 62
256
370
-1
  6
BYLAYER
  2
Datenklos5
 10
483060.0
 20
230610.0
 30
0.0
  0
INSERT
  5
F9
100
AcDbEntity
100
AcDbBlockReference
  8
NOC-DK
 62
256
370
-1
  6
BYLAYER
  2
Datenklos5
 10
483030.0
 20
230560.0
 30
0.0
  0
LINE
  5
FA
100
AcDbEntity
100
AcDbLine
  8
Water infrastructure
 62
256
370
-1
  6
BYLAYER
 10
482965.1453079999773763
 20
230515.1932340000057593
 30
0.0
 11
482965.5083640000084415
 21
230507.56905699998606
 31
0.0
  0
LINE
  5
FB
100
AcDbEntity
100
AcDbLine
  8
Water infrastructure
 62
256
370
-1
  6
BYLAYER
 10
482965.5083640000084415
 20
230507.56905699998606
 30
0.0
 11
482895.075485999986995
 21
230506.8429450000112411
 31
0.0
  0
LINE
  5
FC
100
AcDbEntity
100
AcDbLine
  8
Water infrastructure
 62
256
370
-1
  6
BYLAYER
 10
482895.075485999986995
 20
230506.8429450000112411
 30
0.0
 11
482847.8590593850822188
 21
230481.9086215206480119
 31
0.0
  0
LINE
  5
FD
100
AcDbEntity
100
AcDbLine
  8
Water infrastructure
 62
256
370
-1
  6
BYLAYER
 10
482845.0
 20
230485.0
 30
0.0
 11
482847.8590593850822188
 21
230481.9086215206480119
 31
0.0
  0
LINE
  5
FE
100
AcDbEntity
100
AcDbLine
  8
Water infrastructure
 62
256
370
-1
  6
BYLAYER
 10
482847.8590593851404265
 20
230481.9086215206771158
 30
0.0
 11
482862.3648360221995972
 21
230445.0561079019389581
 31
0.0
  0
LINE
  5
FF
100
AcDbEntity
100
AcDbLine
  8
Paths
 62
256
370
-1
  6
BYLAYER
 10
483082.4124200000078417
 20
230700.6422770000062883
 30
0.0
 11
483101.0008909999742173
 21
230692.5098210000141989
 31
0.0
  0
LINE
  5
100
100
AcDbEntity
100
AcDbLine
  8
Paths
 62
256
370
-1
  6
BYLAYER
 10
483145.4389550000196323
 20
230825.8240119999973103
 30
0.0
 11
483155.0236359999980778
 21
230822.629118999990169
 31
0.0
  0
LINE
  5
101
100
AcDbEntity
100
AcDbLine
  8
Perimeter
 62
256
370
-1
  6
BYLAYER
 10
483179.4488499999861233
 20
230874.4685640000097919
 30
0.0
 11
483118.4275829999824055
 21
230740.1427780000085477
 31
0.0
  0
LINE
  5
102
100
AcDbEntity
100
AcDbLine
  8
Perimeter
 62
256
370
-1
  6
BYLAYER
 10
483118.4275829999824055
 20
230740.1427780000085477
 30
0.0
 11
483123.1613239999860525
 21
230680.932001000008313
 31
0.0
  0
LINE
  5
103
100
AcDbEntity
100
AcDbLine
  8
Water infrastructure
 62
256
370
-1
  6
BYLAYER
 10
482966.8153670000028796
 20
230518.5333509999909438
 30
0.0
 11
483093.7397699999855831
 21
230684.9582550000050105
 31
0.0
  0
LINE
  5
104
100
AcDbEntity
100
AcDbLine
  8
Water infrastructure
 62
256
370
-1
  6
BYLAYER
 10
483093.7397699999855831
 20
230684.9582550000050105
 30
0.0
 11
483101.5817820000229403
 21
230682.9251410000142641
 31
0.0
  0
LWPOLYLINE
  5
105
  8
Lighting-ExtFestoon
 62
256
370
-1
  6
BYLAYER
100
AcDbEntity
100
AcDbPolyline
 90
2
 70
0
 10
483110.2951270000194199
 20
230688.4435940000112168
 30
0.0
 10
483040.0074710000189953
 20
230719.5211929999932181
 30
0.0
  0
LWPOLYLINE
  5
106
  8
Road-Trackway
 62
256
370
-1
  6
BYLAYER
100
AcDbEntity
100
AcDbPolyline
 90
3
 70
0
 10
483048.4610289999982342
 20
230506.6695609999878798
 30
0.0
 10
483034.1847219999763183
 20
230565.2024169999931473
 30
0.0
 10
483117.5562490000156686
 20
230685.8295900000084657
 30
0.0
  0
LWPOLYLINE
  5
107
  8
Lighting-ExtFestoon
 62
256
370
-1
  6
BYLAYER
100
AcDbEntity
100
AcDbPolyline
 90
3
 70
0
 10
483049.8886599999968894
 20
230506.6695619999954943
 30
0.0
 10
483035.2554460000246763
 20
230565.2024180000007618
 30
0.0
 10
483118.7180279999738559
 20
230684.0869210000091698
 30
0.0
  0
INSERT
  5
108
100
AcDbEntity
100
AcDbBlockReference
  8
Power - Generator
 62
256
370
-1
  6
BYLAYER
  2
Generator6x6
 10
483114.9422449999838136
 20
230710.2269580000138376
 30
0.0
  0
INSERT
  5
109
100
AcDbEntity
100
AcDbBlockReference
  8
Toilets
 62
256
370
-1
  6
BYLAYER
  2
Toilets
 10
482840.0
 20
230480.0
 30
0.0
  0
INSERT
  5
10A
100
AcDbEntity
100
AcDbBlockReference
  8
Toilets
 62
256
370
-1
  6
BYLAYER
  2
Toilets
 10
483115.5412880000076257
 20
230685.37577000001329
 30
0.0
  0
INSERT
  5
10B
100
AcDbEntity
100
AcDbBlockReference
  8
Toilets
 62
256
370
-1
  6
BYLAYER
  2
Toilets
 10
483078.3280410000006668
 20
230459.3733639999991283
 30
0.0
  0
LINE
  5
10C
100
AcDbEntity
100
AcDbLine
  8
Water infrastructure
 62
256
370
-1
  6
BYLAYER
 10
482965.3268379999790341
 20
230507.0244740000052843
 30
0.0
 11
482966.688298000022769
 21
230496.5866110000060871
 31
0.0
  0
LINE
  5
10D
100
AcDbEntity
100
AcDbLine
  8
Water infrastructure
 62
256
370
-1
  6
BYLAYER
 10
482966.688298000022769
 20
230496.5866110000060871
 30
0.0
 11
483018.8776090000174008
 21
230492.5022309999912977
 31
0.0
  0
LINE
  5
10E
100
AcDbEntity
100
AcDbLine
  8
Water infrastructure
 62
256
370
-1
  6
BYLAYER
 10
483018.8776090000174008
 20
230492.5022309999912977
 30
0.0
 11
483076.0589400000171736
 21
230466.1806649999925867
 31
0.0
  0
INSERT
  5
10F
100
AcDbEntity
100
AcDbBlockReference
  8
NOC-DK
 62
256
370
-1
  6
BYLAYER
  2
Datenklos5
 10
482982.596593931899406
 20
230528.8707618372573052
 30
0.0
  0
INSERT
  5
110
100
AcDbEntity
100
AcDbBlockReference
  8
NOC-DK
 62
256
370
-1
  6
BYLAYER
  2
Datenklos5
 10
483090.0
 20
230820.0
 30
0.0
  0
TEXT
  5
111
100
AcDbEntity
100
AcDbText
  8
Field-Letters
 62
256
370
-1
  6
BYLAYER
 10
-9.993062739726156
 20
65.6148270456178579
 30
0.0
 40
15.0
  1
S
 50
0.0
 41
1.0
  7
textstyle9
 71
0
 72
0
 11
483015.0646204182994552
 21
230455.2991942706285045
 31
0.0
100
AcDbText
 73
3
  0
TEXT
  5
112
100
AcDbEntity
100
AcDbText
  8
Field-Letters
 62
256
370
-1
  6
BYLAYER
 10
-48.0794597211061046
 20
-38.7571960780769587
 30
0.0
 40
15.0
  1
U
 50
0.0
 41
1.0
  7
textstyle10
 71
0
 72
0
 11
482976.9782234369777143
 21
230350.9271711468754802
 31
0.0
100
AcDbText
 73
3
  0
TEXT
  5
113
100
AcDbEntity
100
AcDbText
  8
Field-Letters
 62
256
370
-1
  6
BYLAYER
 10
33.3105795740266331
 20
69.5009836020763032
 30
0.0
 40
15.0
  1
T
 50
0.0
 41
1.0
  7
textstyle11
 71
0
 72
0
 11
483058.3682627321104519
 21
230459.1853508270287421
 31
0.0
100
AcDbText
 73
3
  0
TEXT
  5
114
100
AcDbEntity
100
AcDbText
  8
Field-Letters
 62
256
370
-1
  6
BYLAYER
 10
-215.1018762667081319
 20
93.1952267019660212
 30
0.0
 40
15.0
  1
V
 50
0.0
 41
1.0
  7
textstyle12
 71
0
 72
0
 11
482809.955806891375687
 21
230482.8795939269184601
 31
0.0
100
AcDbText
 73
3
  0
TEXT
  5
115
100
AcDbEntity
100
AcDbText
  8
Field-Letters
 62
256
370
-1
  6
BYLAYER
 10
-118.7850923132500611
 20
156.0446778950863518
 30
0.0
 40
15.0
  1
A
 50
0.0
 41
1.0
  7
textstyle13
 71
0
 72
0
 11
482906.2725908448337577
 21
230545.7290451200387906
 31
0.0
100
AcDbText
 73
3
  0
TEXT
  5
116
100
AcDbEntity
100
AcDbText
  8
Field-Letters
 62
256
370
-1
  6
BYLAYER
 10
-17.2832286363118328
 20
166.4148373419302516
 30
0.0
 40
15.0
  1
G
 50
0.0
 41
1.0
  7
textstyle14
 71
0
 72
0
 11
483007.774454521771986
 21
230556.0992045668826904
 31
0.0
100
AcDbText
 73
3
  0
TEXT
  5
117
100
AcDbEntity
100
AcDbText
  8
Field-Letters
 62
256
370
-1
  6
BYLAYER
 10
29.0682416186318733
 20
241.9913024016423151
 30
0.0
 40
15.0
  1
H
 50
0.0
 41
1.0
  7
textstyle15
 71
0
 72
0
 11
483054.1259247767156921
 21
230631.6756696265947539
 31
0.0
100
AcDbText
 73
3
  0
TEXT
  5
118
100
AcDbEntity
100
AcDbText
  8
Field-Letters
 62
256
370
-1
  6
BYLAYER
 10
-51.0280105796409771
 20
207.8156327751057688
 30
0.0
 40
15.0
  1
B
 50
0.0
 41
1.0
  7
textstyle16
 71
0
 72
0
 11
482974.0296725784428418
 21
230597.5000000000582077
 31
0.0
100
AcDbText
 73
3
  0
TEXT
  5
119
100
AcDbEntity
100
AcDbText
  8
Field-Letters
 62
256
370
-1
  6
BYLAYER
 10
6.5877345078042708
 20
285.3948193531832658
 30
0.0
 40
15.0
  1
C
 50
0.0
 41
1.0
  7
textstyle17
 71
0
 72
0
 11
483031.6454176658880897
 21
230675.0791865781357046
 31
0.0
100
AcDbText
 73
3
  0
TEXT
  5
11A
100
AcDbEntity
100
AcDbText
  8
Field-Letters
 62
256
370
-1
  6
BYLAYER
 10
51.049592430354096
 20
362.1139007898746058
 30
0.0
 40
15.0
  1
D
 50
0.0
 41
1.0
  7
textstyle18
 71
0
 72
0
 11
483076.1072755884379148
 21
230751.7982680148270447
 31
0.0
100
AcDbText
 73
3
  0
TEXT
  5
11B
100
AcDbEntity
100
AcDbText
  8
Field-Letters
 62
256
370
-1
  6
BYLAYER
 10
94.9423168419161811
 20
450.3156327750475612
 30
0.0
 40
15.0
  1
E
 50
0.0
 41
1.0
  7
textstyle19
 71
0
 72
0
 11
483120.0
 21
230840.0
 31
0.0
100
AcDbText
 73
3
  0
TEXT
  5
11C
100
AcDbEntity
100
AcDbText
  8
Field-Letters
 62
256
370
-1
  6
BYLAYER
 10
47.6088297204696573
 20
194.2257194951234851
 30
0.0
 40
15.0
  1
J
 50
0.0
 41
1.0
  7
textstyle20
 71
0
 72
0
 11
483072.6665128786116838
 21
230583.9100867198721971
 31
0.0
100
AcDbText
 73
3
  0
TEXT
  5
11D
100
AcDbEntity
100
AcDbText
  8
Field-Letters
 62
256
370
-1
  6
BYLAYER
 10
85.7603280351031572
 20
318.1704898203024641
 30
0.0
 40
15.0
  1
K
 50
0.0
 41
1.0
  7
textstyle21
 71
0
 72
0
 11
483110.818011193361599
 21
230707.8548570449929684
 31
0.0
100
AcDbText
 73
3
  0
TEXT
  5
11E
100
AcDbEntity
100
AcDbText
  8
Field-Letters
 62
256
370
-1
  6
BYLAYER
 10
-145.1149625796242617
 20
100.062798775092233
 30
0.0
 40
15.0
  1
R
 50
0.0
 41
1.0
  7
textstyle22
 71
0
 72
0
 11
482879.9427205784595571
 21
230489.7471660000446718
 31
0.0
100
AcDbText
 73
3
  0
LINE
  5
11F
100
AcDbEntity
100
AcDbLine
  8
Lighting-ExtFestoon
 62
256
370
-1
  6
BYLAYER
 10
483000.4348599998629652
 20
230639.0522809996036813
 30
0.0
 11
483017.0486518933903426
 21
230629.4127886955393478
 31
0.0
  0
LINE
  5
120
100
AcDbEntity
100
AcDbLine
  8
Lighting-ExtFestoon
 62
256
370
-1
  6
BYLAYER
 10
483078.4797166722128168
 20
230800.7826274792314507
 30
0.0
 11
483120.8962245312868617
 21
230794.5948172666539904
 31
0.0
  0
ENDSEC
  0
SECTION
  2
OBJECTS
  0
DICTIONARY
  5
C
100
AcDbDictionary
280
0
281
1
  3
ACAD_GROUP
350
D
  3
ACAD_LAYOUT
350
1A
  3
ACAD_MLINESTYLE
350
17
  3
ACAD_PLOTSETTINGS
350
19
  3
ACAD_PLOTSTYLENAME
350
E
  3
AcDbVariableDictionary
350
121
  3
QCAD_OBJECTS
350
122
  0
DICTIONARY
  5
D
100
AcDbDictionary
280
0
281
1
  0
ACDBDICTIONARYWDFLT
  5
E
100
AcDbDictionary
281
1
  3
Normal
350
F
100
AcDbDictionaryWithDefault
340
F
  0
ACDBPLACEHOLDER
  5
F
  0
DICTIONARY
  5
17
100
AcDbDictionary
280
0
281
1
  3
Standard
350
18
  0
MLINESTYLE
  5
18
100
AcDbMlineStyle
  2
STANDARD
 70
0
  3

 62
256
 51
90.0
 52
90.0
 71
2
 49
0.5
 62
256
  6
BYLAYER
 49
-0.5
 62
256
  6
BYLAYER
  0
DICTIONARY
  5
19
100
AcDbDictionary
280
0
281
1
  0
DICTIONARY
  5
1A
100
AcDbDictionary
281
1
  3
Layout1
350
1E
  3
Layout2
350
26
  3
Model
350
22
  0
LAYOUT
  5
1E
100
AcDbPlotSettings
  1

  2
none_device
  4

  6

 40
0.0
 41
0.0
 42
0.0
 43
0.0
 44
0.0
 45
0.0
 46
0.0
 47
0.0
 48
0.0
 49
0.0
140
0.0
141
0.0
142
1.0
143
1.0
 70
688
 72
0
 73
0
 74
5
  7

 75
16
147
1.0
148
0.0
149
0.0
100
AcDbLayout
  1
Layout1
 70
1
 71
1
 10
0.0
 20
0.0
 11
420.0
 21
297.0
 12
0.0
 22
0.0
 32
0.0
 14
100000000000000000000.0
 24
100000000000000000000.0
 34
100000000000000000000.0
 15
-100000000000000000000.0
 25
-100000000000000000000.0
 35
-100000000000000000000.0
146
0.0
 13
0.0
 23
0.0
 33
0.0
 16
1.0
 26
0.0
 36
0.0
 17
0.0
 27
1.0
 37
0.0
 76
0
330
1B
  0
LAYOUT
  5
22
100
AcDbPlotSettings
  1

  2
none_device
  4

  6

 40
0.0
 41
0.0
 42
0.0
 43
0.0
 44
0.0
 45
0.0
 46
0.0
 47
0.0
 48
0.0
 49
0.0
140
0.0
141
0.0
142
1.0
143
1.0
 70
1712
 72
0
 73
0
 74
0
  7

 75
0
147
1.0
148
0.0
149
0.0
100
AcDbLayout
  1
Model
 70
1
 71
0
 10
0.0
 20
0.0
 11
12.0
 21
9.0
 12
0.0
 22
0.0
 32
0.0
 14
0.0
 24
0.0
 34
0.0
 15
0.0
 25
0.0
 35
0.0
146
0.0
 13
0.0
 23
0.0
 33
0.0
 16
1.0
 26
0.0
 36
0.0
 17
0.0
 27
1.0
 37
0.0
 76
0
330
1F
  0
LAYOUT
  5
26
100
AcDbPlotSettings
  1

  2
none_device
  4

  6

 40
0.0
 41
0.0
 42
0.0
 43
0.0
 44
0.0
 45
0.0
 46
0.0
 47
0.0
 48
0.0
 49
0.0
140
0.0
141
0.0
142
1.0
143
1.0
 70
688
 72
0
 73
0
 74
5
  7

 75
16
147
1.0
148
0.0
149
0.0
100
AcDbLayout
  1
Layout2
 70
1
 71
2
 10
0.0
 20
0.0
 11
12.0
 21
9.0
 12
0.0
 22
0.0
 32
0.0
 14
0.0
 24
0.0
 34
0.0
 15
0.0
 25
0.0
 35
0.0
146
0.0
 13
0.0
 23
0.0
 33
0.0
 16
1.0
 26
0.0
 36
0.0
 17
0.0
 27
1.0
 37
0.0
 76
0
330
23
  0
DICTIONARY
  5
121
100
AcDbDictionary
281
1
  3
DIMASSOC
350
124
  3
HIDETEXT
350
123
  0
DICTIONARYVAR
  5
123
100
DictionaryVariables
280
0
  1
2
  0
DICTIONARYVAR
  5
124
100
DictionaryVariables
280
0
  1
1
  0
DICTIONARY
  5
122
100
AcDbDictionary
281
1
  3
Grid/DisplayGrid00
350
125
  3
Grid/DisplayGrid01
350
126
  3
Grid/DisplayGrid02
350
127
  3
Grid/DisplayGrid03
350
128
  3
Grid/GridSpacingX00
350
129
  3
Grid/GridSpacingX01
350
12A
  3
Grid/GridSpacingX02
350
12B
  3
Grid/GridSpacingX03
350
12C
  3
Grid/GridSpacingY00
350
12D
  3
Grid/GridSpacingY01
350
12E
  3
Grid/GridSpacingY02
350
12F
  3
Grid/GridSpacingY03
350
130
  3
Grid/IsometricGrid00
350
131
  3
Grid/IsometricGrid01
350
132
  3
Grid/IsometricGrid02
350
133
  3
Grid/IsometricGrid03
350
134
  3
Grid/IsometricProjection00
350
135
  3
Grid/IsometricProjection01
350
136
  3
Grid/IsometricProjection02
350
137
  3
Grid/IsometricProjection03
350
138
  3
Grid/MetaGridSpacingX00
350
139
  3
Grid/MetaGridSpacingX01
350
13A
  3
Grid/MetaGridSpacingX02
350
13B
  3
Grid/MetaGridSpacingX03
350
13C
  3
Grid/MetaGridSpacingY00
350
13D
  3
Grid/MetaGridSpacingY01
350
13E
  3
Grid/MetaGridSpacingY02
350
13F
  3
Grid/MetaGridSpacingY03
350
140
  3
MultiPageSettings/Columns
350
141
  3
MultiPageSettings/GlueMarginsBottom
350
142
  3
MultiPageSettings/GlueMarginsLeft
350
143
  3
MultiPageSettings/GlueMarginsRight
350
144
  3
MultiPageSettings/GlueMarginsTop
350
145
  3
MultiPageSettings/PrintCropMarks
350
146
  3
MultiPageSettings/Rows
350
147
  3
PageSettings/OffsetX
350
148
  3
PageSettings/OffsetY
350
149
  3
PageSettings/PageOrientation
350
14A
  3
PageSettings/PaperHeight
350
14B
  3
PageSettings/PaperWidth
350
14C
  3
PageSettings/Scale
350
14D
  3
PageSettings/ShowPaperBorders
350
14E
  3
UnitSettings/PaperUnit
350
14F
  0
XRECORD
  5
125
330
122
100
AcDbXrecord
280
1
290
1
  0
XRECORD
  5
126
330
122
100
AcDbXrecord
280
1
290
1
  0
XRECORD
  5
127
330
122
100
AcDbXrecord
280
1
290
1
  0
XRECORD
  5
128
330
122
100
AcDbXrecord
280
1
290
1
  0
XRECORD
  5
129
330
122
100
AcDbXrecord
280
1
1000
auto
  0
XRECORD
  5
12A
330
122
100
AcDbXrecord
280
1
1000
auto
  0
XRECORD
  5
12B
330
122
100
AcDbXrecord
280
1
1000
auto
  0
XRECORD
  5
12C
330
122
100
AcDbXrecord
280
1
1000
auto
  0
XRECORD
  5
12D
330
122
100
AcDbXrecord
280
1
1000
auto
  0
XRECORD
  5
12E
330
122
100
AcDbXrecord
280
1
1000
auto
  0
XRECORD
  5
12F
330
122
100
AcDbXrecord
280
1
1000
auto
  0
XRECORD
  5
130
330
122
100
AcDbXrecord
280
1
1000
auto
  0
XRECORD
  5
131
330
122
100
AcDbXrecord
280
1
290
0
  0
XRECORD
  5
132
330
122
100
AcDbXrecord
280
1
290
0
  0
XRECORD
  5
133
330
122
100
AcDbXrecord
280
1
290
0
  0
XRECORD
  5
134
330
122
100
AcDbXrecord
280
1
290
0
  0
XRECORD
  5
135
330
122
100
AcDbXrecord
280
1
 90
0
  0
XRECORD
  5
136
330
122
100
AcDbXrecord
280
1
 90
0
  0
XRECORD
  5
137
330
122
100
AcDbXrecord
280
1
 90
0
  0
XRECORD
  5
138
330
122
100
AcDbXrecord
280
1
 90
0
  0
XRECORD
  5
139
330
122
100
AcDbXrecord
280
1
1000
auto
  0
XRECORD
  5
13A
330
122
100
AcDbXrecord
280
1
1000
auto
  0
XRECORD
  5
13B
330
122
100
AcDbXrecord
280
1
1000
auto
  0
XRECORD
  5
13C
330
122
100
AcDbXrecord
280
1
1000
auto
  0
XRECORD
  5
13D
330
122
100
AcDbXrecord
280
1
1000
auto
  0
XRECORD
  5
13E
330
122
100
AcDbXrecord
280
1
1000
auto
  0
XRECORD
  5
13F
330
122
100
AcDbXrecord
280
1
1000
auto
  0
XRECORD
  5
140
330
122
100
AcDbXrecord
280
1
1000
auto
  0
XRECORD
  5
141
330
122
100
AcDbXrecord
280
1
 90
1
  0
XRECORD
  5
142
330
122
100
AcDbXrecord
280
1
 40
10.0
  0
XRECORD
  5
143
330
122
100
AcDbXrecord
280
1
 40
10.0
  0
XRECORD
  5
144
330
122
100
AcDbXrecord
280
1
 40
10.0
  0
XRECORD
  5
145
330
122
100
AcDbXrecord
280
1
 40
10.0
  0
XRECORD
  5
146
330
122
100
AcDbXrecord
280
1
290
0
  0
XRECORD
  5
147
330
122
100
AcDbXrecord
280
1
 90
1
  0
XRECORD
  5
148
330
122
100
AcDbXrecord
280
1
 40
482682.250175689230673
  0
XRECORD
  5
149
330
122
100
AcDbXrecord
280
1
 40
230258.4179449478397146
  0
XRECORD
  5
14A
330
122
100
AcDbXrecord
280
1
1000
Portrait
  0
XRECORD
  5
14B
330
122
100
AcDbXrecord
280
1
 40
297.0
  0
XRECORD
  5
14C
330
122
100
AcDbXrecord
280
1
 40
210.0
  0
XRECORD
  5
14D
330
122
100
AcDbXrecord
280
1
1000
1:2500
  0
XRECORD
  5
14E
330
122
100
AcDbXrecord
280
1
290
1
  0
XRECORD
  5
14F
330
122
100
AcDbXrecord
280
1
 90
4
  0
ENDSEC
  0
EOF
